<?xml version="1.0" standalone="no"?>
<!DOCTYPE svg PUBLIC "-//W3C//DTD SVG 1.1//EN" "http://www.w3.org/Graphics/SVG/1.1/DTD/svg11.dtd">
<svg width="591" height="770" viewBox="0 0 591 770" version="1.1" xmlns="http://www.w3.org/2000/svg" xmlns:xlink="http://www.w3.org/1999/xlink" xml:space="preserve" xmlns:serif="http://www.serif.com/" style="fill-rule:evenodd;clip-rule:evenodd;stroke-linejoin:round;stroke-miterlimit:2;">
    <g transform="matrix(1,0,0,1,0.101786,0)">
        <g>
            <path d="M0,0L0,58.8L8.8,58.3C13.6,58.1 22.2,57.4 28,56.8C33.8,56.2 46.4,55.6 56,55.4C77.6,55 119.7,52.6 120.5,51.8C120.9,51.5 122,42.4 122.9,31.6C123.9,20.8 124.9,11.7 125.3,11.4C125.6,11.1 129.8,11.5 134.7,12.3C139.5,13.2 157.8,16.4 175.3,19.5L207.2,25.1L219.3,21.1C241.2,13.9 259.4,10.1 283.9,7.5C291.9,6.6 298.5,5.9 298.6,5.7C298.7,5.6 298.6,4.3 298.3,2.7L297.8,0L0,0Z" style="fill:rgb(1,81,152);"/>
            <path d="M346,3.5C346,6.7 346.3,7 348.8,7C350.3,7 357.5,7.9 364.9,9C372.3,10.1 378.5,10.8 378.7,10.6C378.9,10.4 378.8,7.9 378.4,5.1L377.7,0L346,0L346,3.5Z" style="fill:rgb(1,81,152);"/>
            <path d="M443.8,4.5L453,8.9L453,33.7L463.8,38.9C522.7,67.5 553.9,98.5 574.4,148.8C581.2,165.3 586.7,186.1 588.3,201C588.5,202.9 588.8,158.5 588.8,102.2L589,0L511.8,0.1L434.5,0.2L443.8,4.5Z" style="fill:rgb(1,81,152);"/>
            <path d="M130.1,27.7C129.5,33.1 128.6,40.8 128.2,44.9L127.3,52.2L133.6,51.8C137.1,51.6 140.2,51.1 140.6,50.7C141,50.4 141.5,47.5 141.9,44.3C142.5,38.9 142.7,38.5 145,38.8C148.4,39.1 242.4,56.2 242.8,56.5C243.3,57 235,153.3 234.2,155.6C233.5,157.6 232.8,157.5 200.5,150.4C155.4,140.5 160.4,141 158.2,146.1L156.3,150.5L195.4,159.7C244.8,171.3 241.8,170.9 245.1,167.3L247.7,164.5L252.6,102.7C256.2,55.9 257.1,40.7 256.2,40.1C255.5,39.7 245.2,37.7 233.3,35.6C221.3,33.5 195.5,29 176,25.5C156.5,22 138.4,18.9 135.9,18.5L131.2,17.8L130.1,27.7Z" style="fill:rgb(1,81,152);"/>
            <path d="M281,30.1C272.5,31.1 263.5,32.3 261,32.8C256.6,33.6 256.6,33.7 259.5,34.4L262.6,35.1L258.8,90.8C256.7,121.4 255.1,148.5 255.3,151L255.5,155.5L260.8,148C283.6,116 297,78.1 299.6,38.2C300.2,28.6 300.2,28 298.4,28.1C297.4,28.2 289.5,29 281,30.1Z" style="fill:rgb(1,81,152);"/>
            <path d="M346.6,40.7C343.8,93.7 324.6,143.8 290.5,187.1C276.1,205.3 248.8,229.6 227,243.4C207.7,255.6 177.1,268.6 153.9,274.5C131,280.3 120.7,281.4 89.7,281.5C73.9,281.5 61,281.6 61,281.8C61,281.9 62.6,286.1 64.5,291.1C67.3,298.4 69.9,309 70,313.2C70,314.4 107.2,314.2 119.1,313C166.8,308.2 210.5,292.7 250.2,266.4C325.6,216.5 373.6,133.4 378.6,44.4L379.3,32.3L372.9,31.2C367.6,30.2 350.1,28 347.9,28C347.6,28 347,33.7 346.6,40.7Z" style="fill:rgb(1,81,152);"/>
            <path d="M146.8,46.7C146.5,48.8 146.4,50.6 146.5,50.8C146.6,50.9 153.6,50.7 162,50.3C171.2,49.9 176.6,49.4 175.5,48.9C174.4,48.4 168.3,47.2 162,46C155.7,44.8 149.8,43.7 148.9,43.4C147.6,43 147.1,43.8 146.8,46.7Z" style="fill:rgb(1,81,152);"/>
            <path d="M186.5,52.1C184.3,52.5 174.3,53.1 164.3,53.5L146.1,54.2L145.6,56.9C145.3,58.3 144.8,62.8 144.4,66.8L143.8,74L146.1,73.1C147.4,72.6 157.4,68.3 168.4,63.6C179.3,58.9 188.9,55 189.6,55C190.4,55 191,55.6 191,56.3C191,57.1 181,62 167.1,67.9L143.2,78.2L142.1,88.9C141.5,94.7 140.7,101.5 140.3,104L139.7,108.5L149.6,99.3C155,94.3 166.9,83.2 176,74.7C188.6,62.9 192.8,59.5 193.8,60.3C194.9,61.1 194.8,61.7 193.3,63C168.1,86.5 154.8,98.9 147.6,105.9L138.8,114.5L139.4,120C139.7,123 140.2,127.2 140.6,129.2L141.2,132.9L149.8,134.9C154.6,136 158.7,136.6 159.1,136.2C159.4,135.8 167.9,119.3 178,99.5C188,79.7 196.4,63.3 196.6,63.1C196.8,62.8 197.5,63.1 198.1,63.7C198.8,64.4 193.7,75.6 181,101C171,120.9 163.1,137.4 163.3,137.7C163.9,138.2 229.4,153.8 229.8,153.4C230.3,153.1 236.9,70.6 237,64.9L237,60.2L222.3,57.5C214.1,56 203.7,54 199,53.1C193.8,52.1 189,51.7 186.5,52.1Z" style="fill:rgb(1,81,152);"/>
            <path d="M436.8,55.7C431.5,58 431,58.5 431,61.4C431,68.8 425.9,97 421.5,114.3C420.9,116.7 421.6,117.9 428.9,125.3L437,133.6L429.7,152L422.4,170.5L411.8,171C405.9,171.3 400.9,171.7 400.7,172C400.4,172.3 398.6,175.7 396.7,179.6C391.5,189.9 382.6,205.2 376,215L370.3,223.5L375.1,233.9L380,244.2L367.4,258.9C360.4,266.9 354.2,273.6 353.4,273.8C352.7,274 347.7,272.8 342.4,271.1L332.6,268.1L325.6,274.8C317.1,282.8 304.4,293.4 293.6,301.5L285.7,307.4L286.3,319.2L286.8,330.9L269,339.9L251.2,349L243.2,342.5L235.2,336.1L227.8,339.4C217.5,344.2 197,351.5 183.5,355.2L172.1,358.3L168.9,367.9C167.2,373.2 165.4,377.9 164.9,378.4C164.5,378.9 155.5,380.3 145,381.5L125.8,383.7L123.2,379.6C121.8,377.3 119.6,373.8 118.4,371.6L116.2,367.7L89.8,367.5C75.4,367.4 61.7,367 59.5,366.6L55.5,365.8L49.2,374.9C43.8,382.7 42.5,384 40.1,384C37.6,384 36.7,384.9 33.3,390.7C24.1,406.2 17.7,420.1 17.6,424.3L17.5,428.5L24,428.4C27.6,428.4 33.7,428 37.6,427.5C52.2,425.9 62.4,429.9 66.9,438.9C70.9,446.9 70.3,452.5 63,475.5C60.7,482.6 58.6,490.5 58.3,493L57.8,497.5L65.5,500.9C78.3,506.6 79.3,512.3 69.5,524C65.5,528.8 65.2,527.8 73,537C85.7,552 88,557.3 86,567.2C85.4,570.6 83.7,575.6 82.4,578.2C81.1,580.8 79.3,585.7 78.5,589.1C77.2,594.9 77.2,595.6 79,599C81.5,603.9 90.7,612 97.5,615.4C104.6,618.9 111,620 123.5,620L133.7,620L134.3,613.2C134.7,609.5 135,604.6 135,602.4L135,598.3L155.8,589.5L156.5,583C157.3,574.3 160.5,556.1 163.6,542.2L166.1,530.9L158.6,522.6C154.4,518 151,513.8 151,513.2C151,511.9 163.9,478.7 164.8,477.8C165.2,477.4 170.3,476.8 176.1,476.4L186.6,475.7L191.8,465.6C197.5,454.3 206.2,439.6 212.7,430.3L217,424.1L212.5,414.4C210,409.1 208,404.2 208,403.5C208,401.7 233.2,372.9 234.4,373.3C235,373.6 239.9,375 245.2,376.5L255,379.3L262.8,371.9C272.5,362.6 278.8,357.3 291.5,347.7L301.4,340.1L301.1,328.3L300.8,316.4L318.3,307.5L335.8,298.5L343.9,304.8L352.1,311.1L363.3,306.4C373.6,302.1 402.3,292.3 411.5,290L415.5,289.1L421.9,268.3L436.7,266.6C444.8,265.7 453.8,264.7 456.5,264.3L461.6,263.8L466.5,271.8L471.3,279.9L495.4,280.1C508.7,280.2 522.4,280.3 525.9,280.4L532.4,280.5L537.8,273C540.7,268.9 543.5,264.9 543.9,264.2C544.5,263.2 546.7,263.3 555.1,265C570.2,267.9 569.6,268.1 570.4,261.2C573,237.2 571.9,215 567,190.9C554.5,130.3 522.2,91.1 458.3,59.1C451.5,55.8 445.2,53 444.3,53.1C443.3,53.1 439.9,54.3 436.8,55.7Z" style="fill:rgb(1,81,152);"/>
            <path d="M127,55.7C127,56.2 126.3,62.1 125.5,68.9C124.7,75.8 124.3,81.6 124.5,81.8C124.8,82.1 128,81 131.7,79.3C139.3,76 139.2,76.2 140.4,62.2L141,55L134,55C130.2,55 127,55.3 127,55.7Z" style="fill:rgb(1,81,152);"/>
            <path d="M95,57C88.7,57.4 80.4,57.8 76.5,57.9L69.5,58.1L75.5,59.9C87,63.2 96.2,68.2 106.8,76.8C112.5,81.4 117.4,85 117.7,84.6C118,84.3 118.6,79.7 119.1,74.3C119.6,68.9 120.2,62.6 120.4,60.2L121,56L113.7,56.2C109.8,56.3 101.3,56.7 95,57Z" style="fill:rgb(1,81,152);"/>
            <path d="M4.3,61.7C0.3,62.1 0,62.3 0,65.2C0,67.8 0.2,68.1 1.5,67C2.3,66.3 5.5,64.7 8.7,63.4C14.8,60.9 14.5,60.8 4.3,61.7Z" style="fill:rgb(1,81,152);"/>
            <path d="M36,62.9C34.9,65.1 34.8,65.1 46.2,66.5L50.9,67.1L50.1,64.3C49.4,61.7 49,61.5 43.2,61.2C38,60.9 37,61.2 36,62.9Z" style="fill:rgb(1,81,152);"/>
            <path d="M52.4,62.6C52.7,63.5 53,64.8 53,65.6C53,66.8 53.5,66.8 56.1,65.5C59.6,63.6 59.5,63.3 55,62C52.3,61.2 51.9,61.3 52.4,62.6Z" style="fill:rgb(1,81,152);"/>
            <path d="M24,63.5C24,65.4 24.9,65.4 27.4,63.5C29.3,62.1 29.3,62 26.7,62C25,62 24,62.5 24,63.5Z" style="fill:rgb(1,81,152);"/>
            <path d="M68.5,63C68.2,63.5 68.1,64 68.4,64C68.6,64 69.5,64.3 70.4,64.6C71.5,65 72,64.7 72,63.6C72,61.8 69.5,61.4 68.5,63Z" style="fill:rgb(1,81,152);"/>
            <path d="M30.6,64.6C29.5,65.4 29,66 29.6,66C30.9,66 33.5,64.2 33,63.6C32.7,63.4 31.6,63.8 30.6,64.6Z" style="fill:rgb(1,81,152);"/>
            <path d="M75,65C75,67.1 75.4,67.3 78.3,66.1C80,65.5 79.9,65.3 77.6,64.2C75.3,63.2 75,63.3 75,65Z" style="fill:rgb(1,81,152);"/>
            <path d="M13.1,66.1C11.2,66.8 10.9,67.3 11.8,68.2C12.7,69.1 13.5,68.9 15.2,67.2C17.6,64.9 17,64.5 13.1,66.1Z" style="fill:rgb(1,81,152);"/>
            <path d="M19,66.5C18.2,67.4 18.2,68 18.8,68C20,68 21.4,66.1 20.7,65.4C20.5,65.2 19.7,65.6 19,66.5Z" style="fill:rgb(1,81,152);"/>
            <path d="M63.6,66.6C62.2,70.2 62.8,70.9 66.5,69.7C70.7,68.5 70.9,67.7 67.5,66.2C64.2,64.7 64.3,64.7 63.6,66.6Z" style="fill:rgb(1,81,152);"/>
            <path d="M57.5,67.4C55.7,68.7 55.7,68.8 57.7,69.8C60,71.1 61,70.5 61,67.8C61,65.6 60,65.5 57.5,67.4Z" style="fill:rgb(1,81,152);"/>
            <path d="M4.5,70.1C2.8,71.1 1.1,72.2 0.5,72.4C-0.6,72.9 1.9,75 3.5,75C4.1,75 6,74.1 7.8,73C10.6,71.3 11,70.7 10,69.5C8.5,67.7 8.2,67.7 4.5,70.1Z" style="fill:rgb(1,81,152);"/>
            <path d="M26.8,68.8C25.2,69.5 25.2,69.7 27,72C29.1,74.8 29.6,74.6 30.5,70.7C31.2,67.9 30.3,67.4 26.8,68.8Z" style="fill:rgb(1,81,152);"/>
            <path d="M33.5,69.5C33.2,70.3 32.8,71.7 32.5,72.5C32.2,73.6 33.2,73.2 35.5,71.4C37.4,70 39,68.6 39,68.4C39,67.2 33.9,68.2 33.5,69.5Z" style="fill:rgb(1,81,152);"/>
            <path d="M44,71.7L44,75.4L47,72.5C48.6,70.9 49.9,69.6 49.7,69.5C49.6,69.4 48.3,69 46.8,68.6C44.1,68 44,68.1 44,71.7Z" style="fill:rgb(1,81,152);"/>
            <path d="M80.5,69L77.6,69.5L80.3,71.3C82.7,72.8 83.1,72.9 83.6,71.6C84.5,69.1 83.7,68.4 80.5,69Z" style="fill:rgb(1,81,152);"/>
            <path d="M16.9,71.4C14.7,72.3 14.4,72.8 15.3,74.7C15.9,76 16.6,77 17.1,77C17.8,77 20.3,70.9 19.8,70.5C19.6,70.4 18.3,70.8 16.9,71.4Z" style="fill:rgb(1,81,152);"/>
            <path d="M70.1,71.1C67,72.3 67.4,72.6 73.9,73.3C79.2,73.9 79.2,73.9 77.5,72C75.5,69.8 73.8,69.6 70.1,71.1Z" style="fill:rgb(1,81,152);"/>
            <path d="M86.7,70.7C86.3,71 86,72.2 86,73.2C86,74.6 86.8,75 90.1,75L94.2,75L91.2,72.5C88,69.8 87.7,69.7 86.7,70.7Z" style="fill:rgb(1,81,152);"/>
            <path d="M93,70.4C93,70.6 93.8,71.4 94.8,72.1C96.3,73.4 96.4,73.3 95.1,71.7C93.8,70.1 93,69.6 93,70.4Z" style="fill:rgb(1,81,152);"/>
            <path d="M52.2,73.5C50.3,77.6 50.8,78.1 54.6,75.8C58,73.8 58.1,73.6 56.4,72.3C53.9,70.5 53.5,70.6 52.2,73.5Z" style="fill:rgb(1,81,152);"/>
            <path d="M9.1,74.9L6.8,76.7L10.8,77.7L14.9,78.8L13.4,75.9C12.6,74.3 11.8,73 11.7,73C11.6,73 10.4,73.9 9.1,74.9Z" style="fill:rgb(1,81,152);"/>
            <path d="M24,74.2C24,76 25.8,77.6 26.8,76.6C27.1,76.2 26.6,75.2 25.7,74.3C24.1,72.7 24,72.7 24,74.2Z" style="fill:rgb(1,81,152);"/>
            <path d="M35.6,74.5C34.5,75.3 33.9,76.2 34.2,76.5C34.4,76.8 35.5,76.1 36.5,75C38.6,72.7 38.3,72.5 35.6,74.5Z" style="fill:rgb(1,81,152);"/>
            <path d="M39.2,75C38.2,76.7 38.2,77 39.5,77C40.3,77 41,76.1 41,75C41,73.9 40.9,73 40.7,73C40.6,73 39.9,73.9 39.2,75Z" style="fill:rgb(1,81,152);"/>
            <path d="M98,73.4C98,73.6 98.8,74.4 99.8,75.1C101.3,76.4 101.4,76.3 100.1,74.7C98.8,73.1 98,72.6 98,73.4Z" style="fill:rgb(1,81,152);"/>
            <path d="M20.7,75.4C20.3,76.4 20.2,77.5 20.5,77.8C21.4,78.7 22.2,77.2 21.8,75.3C21.5,73.6 21.4,73.6 20.7,75.4Z" style="fill:rgb(1,81,152);"/>
            <path d="M46.6,76.9C45.6,77.9 45.3,79.1 45.8,79.4C46.3,79.7 47.2,78.8 47.8,77.5C49.2,74.5 48.9,74.4 46.6,76.9Z" style="fill:rgb(1,81,152);"/>
            <path d="M57.7,76.6C53.8,78.7 54.9,79.4 60.7,78.5C65.1,77.9 65.3,77.7 63.5,76.4C61.2,74.7 61.2,74.7 57.7,76.6Z" style="fill:rgb(1,81,152);"/>
            <path d="M67,76C69,77.3 73.3,77.3 72.5,76C72.2,75.4 70.4,75 68.7,75C66.3,75 65.9,75.3 67,76Z" style="fill:rgb(1,81,152);"/>
            <path d="M87,77.6C87,77.9 87.8,79.3 88.9,80.6C90.6,82.8 90.8,82.8 92.2,81.2C95.4,77.5 95.3,77 91.1,77C88.8,77 87,77.3 87,77.6Z" style="fill:rgb(1,81,152);"/>
            <path d="M73.8,78.7C70.7,79.2 70.5,79.7 72.4,82.2C73.6,83.8 73.9,83.7 76.5,81C79.4,78 79.3,77.9 73.8,78.7Z" style="fill:rgb(1,81,152);"/>
            <path d="M80.5,81L77.6,84L82.8,84C85.7,84 88,83.7 88,83.2C87.9,82.4 84.4,78 83.8,78C83.6,78 82.1,79.3 80.5,81Z" style="fill:rgb(1,81,152);"/>
            <path d="M95.2,81C94,82.6 93.3,84 93.7,84C94.1,84.1 96.4,84.5 98.7,84.9C103.3,85.8 103.3,85.4 99.2,80.2L97.4,77.9L95.2,81Z" style="fill:rgb(1,81,152);"/>
            <path d="M1,80.5C-0.6,82.4 0.3,84.6 2.8,85.2C4.6,85.7 4.7,85.5 3.8,82.6C2.4,78.6 2.5,78.7 1,80.5Z" style="fill:rgb(1,81,152);"/>
            <path d="M25.7,79.8C25.4,80.2 25.5,82.8 25.8,85.5C26.3,89.7 26.5,90.1 27.1,88C28.7,82.5 27.6,76.5 25.7,79.8Z" style="fill:rgb(1,81,152);"/>
            <path d="M30.6,82.1C30.3,83.8 30,86.2 30,87.4C30.1,89.1 30.3,88.9 31.4,86.4C34,80.6 34.2,79 32.7,79C31.9,79 31,80.4 30.6,82.1Z" style="fill:rgb(1,81,152);"/>
            <path d="M36.7,80.3C36.4,81 35.5,83.2 34.6,85.2C33.7,87.3 33.1,89 33.3,89C33.5,89 35.1,87 36.8,84.6C39.2,81.2 39.7,80.1 38.6,79.7C37.8,79.4 36.9,79.7 36.7,80.3Z" style="fill:rgb(1,81,152);"/>
            <path d="M102.9,80.8C104.5,83.7 105.9,84.4 106.6,82.5C107.4,80.6 107.2,80.5 104.2,79.5C102.1,78.9 101.9,79 102.9,80.8Z" style="fill:rgb(1,81,152);"/>
            <path d="M10,81C10.8,81.5 12.2,82 13,82C14.3,82 14.3,81.9 13,81C12.2,80.5 10.8,80 10,80C8.7,80 8.7,80.1 10,81Z" style="fill:rgb(1,81,152);"/>
            <path d="M131,83.5C124.5,86.3 123.5,87 123.2,89.5C123,91.3 123.8,93.6 125.8,96.4C127.4,98.6 130.2,103.4 132.1,107C133.9,110.6 135.5,112.8 135.7,112C136,110.4 138.8,80.6 138.6,80.4C138.5,80.3 135.1,81.7 131,83.5Z" style="fill:rgb(1,81,152);"/>
            <path d="M6.4,82.3C6.7,83.3 7,84.7 7,85.3C7,86.1 7.4,86 8.2,85.2C9.2,84.2 9,83.6 7.6,82.2C5.8,80.6 5.7,80.6 6.4,82.3Z" style="fill:rgb(1,81,152);"/>
            <path d="M19,81.7C19.1,82.2 20.2,84.5 21.6,87C24.1,91.5 24.1,91.5 23.5,88.1C23.2,86.3 23,83.9 23,82.9C23,81.7 22.3,81 21,81C19.9,81 19,81.3 19,81.7Z" style="fill:rgb(1,81,152);"/>
            <path d="M38.9,85.7L35.5,90.5L40.2,86.6C42.8,84.4 44.7,82.3 44.4,81.8C43.4,80.2 42.3,81 38.9,85.7Z" style="fill:rgb(1,81,152);"/>
            <path d="M64,84C60.1,87.3 60.3,87.5 66.5,85.9C70.4,84.9 70.8,84.6 69.9,82.9C68.6,80.4 68,80.5 64,84Z" style="fill:rgb(1,81,152);"/>
            <path d="M51.5,83C51.8,83.5 52.7,83.7 53.5,83.3C55.6,82.6 55.4,82 52.9,82C51.8,82 51.1,82.4 51.5,83Z" style="fill:rgb(1,81,152);"/>
            <path d="M14.6,83.9C14.3,84.4 15.8,86.7 18,89.1L22.1,93.5L19.5,88.2C17.1,83.2 15.7,82 14.6,83.9Z" style="fill:rgb(1,81,152);"/>
            <path d="M43.5,87.1C39.8,91 39.7,91.2 42.5,89.6C48,86.4 49.5,85.1 48.4,84C47.7,83.3 46.1,84.4 43.5,87.1Z" style="fill:rgb(1,81,152);"/>
            <path d="M108.6,84.6C108,86.2 109.4,87.9 111.3,88C112.5,88 112.1,85.3 110.6,84.1C109.5,83.2 109.1,83.3 108.6,84.6Z" style="fill:rgb(1,81,152);"/>
            <path d="M55.8,84.7C53.9,85.2 53.4,86.5 54.9,87.4C55.3,87.7 56.5,87.1 57.5,86C59.3,84 59.1,83.8 55.8,84.7Z" style="fill:rgb(1,81,152);"/>
            <path d="M9.5,87C9,87.8 12.4,90.4 18,93.5C18.8,93.9 17.7,92.4 15.5,90.1C11.4,85.8 10.5,85.3 9.5,87Z" style="fill:rgb(1,81,152);"/>
            <path d="M80.8,86.7C76,87.1 75.5,87.5 76.6,90.4C77.2,91.8 77.7,91.8 80.9,89.9C84.1,87.9 87.2,85.7 86,86.2C85.7,86.3 83.4,86.5 80.8,86.7Z" style="fill:rgb(1,81,152);"/>
            <path d="M46.2,90.2C43.3,91.8 41,93.3 41,93.5C41,94 51.3,89.9 52.3,88.9C52.8,88.5 52.8,88 52.3,87.7C51.8,87.4 49.1,88.5 46.2,90.2Z" style="fill:rgb(1,81,152);"/>
            <path d="M85.2,90L80.9,92.8L86.5,93.5C89.6,93.9 92.3,94 92.5,93.8C93.1,93.3 90.7,87 90,87.1C89.7,87.1 87.6,88.4 85.2,90Z" style="fill:rgb(1,81,152);"/>
            <path d="M94.1,90C95.4,93.6 95.7,93.7 99.8,90.6L103,88.3L99.9,87.6C93.7,86.4 93,86.7 94.1,90Z" style="fill:rgb(1,81,152);"/>
            <path d="M67.5,90.3L63.5,92.5L68.9,92.8C71.8,93 74.4,92.9 74.7,92.6C75.3,92 73.1,88 72.2,88C71.8,88.1 69.7,89.1 67.5,90.3Z" style="fill:rgb(1,81,152);"/>
            <path d="M59.3,89.7C58,89.9 57,90.6 57,91.1C57,92.4 59.1,92.2 62,90.5C64.5,89.1 63.7,88.9 59.3,89.7Z" style="fill:rgb(1,81,152);"/>
            <path d="M0.5,91C0.9,91.6 1.6,91.8 2.1,91.5C3.5,90.6 3.2,90 1.4,90C0.6,90 0.2,90.5 0.5,91Z" style="fill:rgb(1,81,152);"/>
            <path d="M5.5,91.1C5.1,91.7 5,92.2 5.1,92.4C5.9,92.9 16,95.8 16,95.5C16,95.1 7.3,90 6.6,90C6.3,90 5.8,90.5 5.5,91.1Z" style="fill:rgb(1,81,152);"/>
            <path d="M48,93.7C45,95 43.6,95.9 45,95.6C46.4,95.4 49.2,94.8 51.3,94.5C53.5,94.1 55,93.2 55,92.4C55,90.6 54.7,90.7 48,93.7Z" style="fill:rgb(1,81,152);"/>
            <path d="M100.2,93.2C98.3,95.1 98.8,95.7 103.4,96.9C109.1,98.3 108.9,98.3 108.4,96.2C108.1,95.3 106.7,93.9 105.2,93.2C102,91.7 101.7,91.7 100.2,93.2Z" style="fill:rgb(1,81,152);"/>
            <path d="M113.5,94C114.5,95.1 115.7,96 116.2,96C117.7,96 117.1,93.2 115.4,92.6C112.4,91.5 111.7,92 113.5,94Z" style="fill:rgb(1,81,152);"/>
            <path d="M111.1,96.8C111.7,98.6 112.6,100 113.1,100C114.7,100 114.1,97.4 112,95.5C110,93.7 110,93.7 111.1,96.8Z" style="fill:rgb(1,81,152);"/>
            <path d="M2.6,95.9C2,96.9 6.8,98 10.9,97.9C13.3,97.9 13.3,97.8 10,96.5C5.8,94.9 3.3,94.7 2.6,95.9Z" style="fill:rgb(1,81,152);"/>
            <path d="M66,95.9C66,96.6 74,100 75.7,100C75.9,100 76,98.9 76,97.5C76,95.2 75.7,95 71,95C68.3,95 66,95.4 66,95.9Z" style="fill:rgb(1,81,152);"/>
            <path d="M49,97.5L43.5,98.8L49.8,98.9C54.7,99 56,98.7 56,97.5C56,95.8 56.3,95.8 49,97.5Z" style="fill:rgb(1,81,152);"/>
            <path d="M83,96.4C83,97 94.2,104.1 94.6,103.7C94.8,103.5 94.7,101.9 94.4,100.3C93.9,97.9 93.1,97.1 90.8,96.6C87.4,95.9 83,95.8 83,96.4Z" style="fill:rgb(1,81,152);"/>
            <path d="M59,98C59,98.5 59.8,99 60.8,99C61.7,99 63.6,99.3 65,99.5C66.6,99.8 66.2,99.5 64,98.6C59.7,96.8 59,96.7 59,98Z" style="fill:rgb(1,81,152);"/>
            <path d="M79,99.3C79,101.3 79.7,101.8 83.7,102.7C86.4,103.3 88.6,103.8 88.7,103.7C88.8,103.6 86.6,102 83.9,100.2C79,97 79,97 79,99.3Z" style="fill:rgb(1,81,152);"/>
            <path d="M97,101.4C97,105.6 97.6,105.7 103.3,102.9C107.8,100.5 107.6,100.1 100.3,98.6C97.1,97.9 97,97.9 97,101.4Z" style="fill:rgb(1,81,152);"/>
            <path d="M123.2,101.1C124,103.4 124.5,103.8 125.1,102.8C126.3,100.9 126.2,100.6 124.1,99.3C122.2,98.1 122.2,98.2 123.2,101.1Z" style="fill:rgb(1,81,152);"/>
            <path d="M0.5,101C-0.2,102.2 5.3,102.2 9,101C11,100.4 10.4,100.2 6.3,100.1C3.5,100 0.8,100.4 0.5,101Z" style="fill:rgb(1,81,152);"/>
            <path d="M44.5,101.9C45.6,102.3 48.6,103 51.3,103.3C55.1,103.8 56,103.7 56,102.5C56,101.3 54.6,101 49.3,101.1C44.9,101.1 43.2,101.4 44.5,101.9Z" style="fill:rgb(1,81,152);"/>
            <path d="M58.6,103.5C58.3,104.3 59.5,105.1 62.1,105.8C64.2,106.3 66,106.7 66,106.5C66,106.3 64.5,105.3 62.6,104.2C59.9,102.6 59,102.5 58.6,103.5Z" style="fill:rgb(1,81,152);"/>
            <path d="M69,105.5C72,107.4 74.8,109 75.3,109C76.5,109 76.1,104 74.8,103.6C74.1,103.3 71.3,102.9 68.5,102.6L63.6,102L69,105.5Z" style="fill:rgb(1,81,152);"/>
            <path d="M104,105.1L99.5,107.2L102.9,108.7C106.2,110.1 106.5,110 108.2,107.8C110,105.4 110.6,103 109.3,103C108.8,103 106.5,104 104,105.1Z" style="fill:rgb(1,81,152);"/>
            <path d="M1.8,104.7C0.8,104.9 0,105.6 0,106.1C0,107.3 0.7,107.2 6,105.6L10.5,104.1L7,104.2C5.1,104.2 2.7,104.4 1.8,104.7Z" style="fill:rgb(1,81,152);"/>
            <path d="M78.7,106.8C78.4,108.3 78.2,109.6 78.3,109.7C78.4,109.8 81.2,109.3 84.5,108.6L90.5,107.3L86,106.1C83.5,105.4 81,104.7 80.4,104.5C79.7,104.3 79,105.3 78.7,106.8Z" style="fill:rgb(1,81,152);"/>
            <path d="M126.6,105.5C126.2,106.6 126.6,107.7 127.7,108.5C130.1,110.3 130.4,109.7 128.7,106.5C127.5,104.1 127.2,104 126.6,105.5Z" style="fill:rgb(1,81,152);"/>
            <path d="M48,106.9C53.5,109.3 55,109.5 55,107.5C55,106.7 54.2,106 53.3,106C52.3,106 49.7,105.7 47.5,105.5L43.5,104.9L48,106.9Z" style="fill:rgb(1,81,152);"/>
            <path d="M4.8,108.6C2.1,109.4 0,110.5 0,111C0,112.6 2.1,112.1 7,109.5C12.1,106.7 11.5,106.5 4.8,108.6Z" style="fill:rgb(1,81,152);"/>
            <path d="M41.5,108.2C48.1,112.9 51.2,114.3 52,112.9C52.8,111.6 48.9,109.6 41.5,107.4L39.5,106.8L41.5,108.2Z" style="fill:rgb(1,81,152);"/>
            <path d="M121.1,110C121.1,111.9 121.7,114.4 122.5,115.4C123.9,117.3 124,117.2 124,113.9C124,112 123.3,109.5 122.5,108.4C121.2,106.6 121.1,106.7 121.1,110Z" style="fill:rgb(1,81,152);"/>
            <path d="M57,109.3C57,110 58.7,111.4 60.8,112.4L64.5,114.2L61.6,111.1C58.4,107.8 57,107.2 57,109.3Z" style="fill:rgb(1,81,152);"/>
            <path d="M7.8,111.5C3.1,114 1.3,115.7 2.4,116.7C2.9,117.2 13,110.3 13,109.4C13,108.8 13,108.8 7.8,111.5Z" style="fill:rgb(1,81,152);"/>
            <path d="M42.1,113.5C44.8,116.2 47.3,118 47.9,117.6C49.5,116.5 48.6,115.5 42.7,112L37.5,108.8L42.1,113.5Z" style="fill:rgb(1,81,152);"/>
            <path d="M67.5,113.4C72.4,117.7 72.5,117.7 73.7,115.6C75.5,112.5 75.5,112.5 69.7,110.7C62.1,108.3 62,108.5 67.5,113.4Z" style="fill:rgb(1,81,152);"/>
            <path d="M89,110.2C81.3,111.8 81.3,112 87.3,114.7C90.4,116.1 93.2,117.1 93.4,116.9C94.3,116 95.2,109 94.4,109.1C93.9,109.2 91.5,109.6 89,110.2Z" style="fill:rgb(1,81,152);"/>
            <path d="M101.6,112.5C102.5,113.9 103.6,114.7 104.1,114.4C105.6,113.5 105.1,112.4 102.5,111.2C100,110 100,110 101.6,112.5Z" style="fill:rgb(1,81,152);"/>
            <path d="M36.9,114C38.1,115.9 39.6,118.5 40.2,119.7C41.3,122 43.4,122.7 44.4,121.2C44.7,120.7 42.6,118.1 39.8,115.4C35.1,110.9 34.8,110.8 36.9,114Z" style="fill:rgb(1,81,152);"/>
            <path d="M96.8,114.7C96.5,117.4 96.8,118.9 97.9,119.7C100,121.4 100.7,121.3 101.4,119.4C101.9,118.1 98.6,111 97.5,111C97.4,111 97,112.7 96.8,114.7Z" style="fill:rgb(1,81,152);"/>
            <path d="M126.4,113.9C126.7,115.7 127,118 127,118.8C127,120.1 127.4,120 129.2,118.2L131.4,116L128.6,113.2L125.8,110.5L126.4,113.9Z" style="fill:rgb(1,81,152);"/>
            <path d="M8.8,115.8C5.6,118.2 4.4,119.8 5,120.4C6,121.4 11.3,117.1 13.1,113.7C14.4,111.5 14.3,111.5 8.8,115.8Z" style="fill:rgb(1,81,152);"/>
            <path d="M29.7,118.5C30.3,126 30.8,127.4 32.8,126.1C33.7,125.6 33.4,123.8 31.6,118.4L29.2,111.5L29.7,118.5Z" style="fill:rgb(1,81,152);"/>
            <path d="M34.2,118.1C36.7,125.7 36.5,125.4 38.4,124.3C39.6,123.6 39.3,122.6 36.5,118.1C31.9,110.8 31.7,110.8 34.2,118.1Z" style="fill:rgb(1,81,152);"/>
            <path d="M13.2,117.3C9.2,121.4 7.7,124.6 10.2,123.8C11.2,123.4 18.5,113 17.7,113C17.5,113 15.5,114.9 13.2,117.3Z" style="fill:rgb(1,81,152);"/>
            <path d="M21.4,118.7C18.7,127 18.7,127 20.3,127C21.3,127 22,125.6 22.5,122.7C22.8,120.4 23.3,117.3 23.6,115.7C24.5,111.2 23.5,112.6 21.4,118.7Z" style="fill:rgb(1,81,152);"/>
            <path d="M25.6,119.8C24.7,127.6 24.9,128.3 26.8,127.1C27.7,126.6 27.8,124.6 27.2,119.4L26.4,112.5L25.6,119.8Z" style="fill:rgb(1,81,152);"/>
            <path d="M54.5,113.9C53.8,115.2 54.7,115.6 59.5,116.4L63.5,117L60,115C56,112.8 55.3,112.7 54.5,113.9Z" style="fill:rgb(1,81,152);"/>
            <path d="M16.2,120.2C13,125.5 12.8,126.7 15.3,125.7C16.6,125.2 20.4,116.1 19.7,115.4C19.5,115.2 18,117.4 16.2,120.2Z" style="fill:rgb(1,81,152);"/>
            <path d="M75.9,117.1C74.6,119.6 75.3,120.4 81.4,124C83.7,125.4 84.9,125.8 84.4,124.9C82.2,121.3 77.7,115 77.4,115C77.2,115 76.6,116 75.9,117.1Z" style="fill:rgb(1,81,152);"/>
            <path d="M81.7,116.2C82.1,116.9 84.1,119.9 86.2,122.9L90,128.3L91.5,124.7C92.3,122.7 93,120.8 93,120.5C93,119.9 82.6,115 81.4,115C81.1,115 81.2,115.6 81.7,116.2Z" style="fill:rgb(1,81,152);"/>
            <path d="M49.6,119.9C49,120.9 53.9,127.4 54.7,126.7C55.3,126.1 51.8,119 50.9,119C50.5,119 49.9,119.4 49.6,119.9Z" style="fill:rgb(1,81,152);"/>
            <path d="M58.6,119.8C59.1,120.3 61.3,122 63.6,123.8L67.6,126.9L69.3,124L71,121.2L66,120.1C59.9,118.8 57.2,118.7 58.6,119.8Z" style="fill:rgb(1,81,152);"/>
            <path d="M130.6,121.9C128.6,124.1 128.6,124.1 131.3,126.8L134,129.5L133.9,127C133.8,125.6 133.5,123.4 133.1,122.2L132.5,119.8L130.6,121.9Z" style="fill:rgb(1,81,152);"/>
            <path d="M1,122.5C-0.8,124.6 0.7,125.7 2.6,123.8C3.6,122.9 3.8,122 3.2,121.6C2.7,121.3 1.7,121.7 1,122.5Z" style="fill:rgb(1,81,152);"/>
            <path d="M57.7,126.7C59.2,129.9 60.6,132.7 60.8,132.9C60.9,133.2 62.2,132.3 63.5,130.9L66,128.4L61,124.7C58.3,122.7 55.8,121 55.5,121C55.3,121 56.2,123.6 57.7,126.7Z" style="fill:rgb(1,81,152);"/>
            <path d="M93.8,125.6C93,128 92.4,130 92.5,130C94.2,130 96.3,128.2 97.5,125.9C98.9,123.3 98.9,123 97.2,122.1C95.7,121.3 95.2,121.8 93.8,125.6Z" style="fill:rgb(1,81,152);"/>
            <path d="M120,122.5C120,123.4 120.6,123.7 121.5,123.4C122.3,123 122.7,122.4 122.4,121.9C121.6,120.5 120,120.9 120,122.5Z" style="fill:rgb(1,81,152);"/>
            <path d="M45.7,122.6C44.4,123.9 45,124.8 48.6,127C53.3,129.9 53.8,129.1 49.7,125.2C47.9,123.4 46.1,122.3 45.7,122.6Z" style="fill:rgb(1,81,152);"/>
            <path d="M71.6,125.1L69.9,128L73.2,128C75,128 78.3,128.3 80.5,128.6L84.5,129.2L81.5,127C79.9,125.9 77.3,124.3 75.9,123.5C73.5,122.2 73.3,122.3 71.6,125.1Z" style="fill:rgb(1,81,152);"/>
            <path d="M6.6,128.5C5.7,133.2 6.4,133.9 8,130C8.9,127.9 9,126.6 8.3,125.9C7.6,125.2 7,126 6.6,128.5Z" style="fill:rgb(1,81,152);"/>
            <path d="M121.3,126C118.2,127.2 118,133.4 121,135C123.1,136.1 123.4,135.5 124.3,128.2C124.7,124.7 124.6,124.7 121.3,126Z" style="fill:rgb(1,81,152);"/>
            <path d="M39.2,126.8C38.3,127.4 39.1,128.6 42.1,131L46.2,134.3L43.9,130.1C41.3,125.7 41.2,125.6 39.2,126.8Z" style="fill:rgb(1,81,152);"/>
            <path d="M126.5,130.5C126.2,133.1 126.1,135.4 126.3,135.7C126.6,135.9 128.4,135.3 130.4,134.3L134,132.4L127.2,125.8L126.5,130.5Z" style="fill:rgb(1,81,152);"/>
            <path d="M12.4,129.6C12.7,130.5 13,132.4 13.1,133.8L13.2,136.5L14.1,133.5C15.1,130.2 14.6,128 12.9,128C12.3,128 12.1,128.7 12.4,129.6Z" style="fill:rgb(1,81,152);"/>
            <path d="M1.7,131.9C-0.1,134.9 -0.6,141.5 0.9,142.4C1.6,142.9 4.4,130 3.7,129.3C3.5,129.2 2.6,130.4 1.7,131.9Z" style="fill:rgb(1,81,152);"/>
            <path d="M31.1,131.7C31.2,133.3 31.6,135.6 32,137C32.8,139.5 32.8,139.4 32.9,136.5C33,134.8 33.3,132.5 33.6,131.2C34.1,129.6 33.8,129 32.6,129C31.5,129 31,129.8 31.1,131.7Z" style="fill:rgb(1,81,152);"/>
            <path d="M48.1,132.7C52.8,140.6 52.4,140.3 55.4,137.9L58.1,135.8L52.8,132.4C49.9,130.6 47.1,129 46.7,129C46.2,129 46.9,130.7 48.1,132.7Z" style="fill:rgb(1,81,152);"/>
            <path d="M19.1,131.7C19.2,132.7 19.6,134.8 20,136.5L20.8,139.5L20.9,136.3C20.9,134.6 21.3,132.5 21.6,131.6C22,130.5 21.7,130 20.6,130C19.7,130 19.1,130.8 19.1,131.7Z" style="fill:rgb(1,81,152);"/>
            <path d="M24,134.2L24.1,138.5L25.5,135.1C27.4,130.9 27.4,130 25.5,130C24.4,130 24,131.1 24,134.2Z" style="fill:rgb(1,81,152);"/>
            <path d="M77,134.9C82.8,140.1 83.3,140.1 86.2,135.2L88,132.2L81.7,131.5C78.3,131.2 74.6,130.6 73.5,130.4C72.3,130.1 73.7,131.9 77,134.9Z" style="fill:rgb(1,81,152);"/>
            <path d="M39,132.2C39,133.3 42.3,142.6 43,143.3C43.8,144.2 49.2,142 48.8,141C48.4,140.1 39,131.7 39,132.2Z" style="fill:rgb(1,81,152);"/>
            <path d="M64.5,134C62.6,136.2 62.8,136.8 68.3,143.5L70.8,146.4L69.2,139.2C68.4,135.2 67.4,132 67,132C66.6,132 65.5,132.9 64.5,134Z" style="fill:rgb(1,81,152);"/>
            <path d="M7.3,137.4C6,140 5,142.7 5,143.4C5,144.6 8.9,146.4 9.8,145.6C9.9,145.4 10,142.4 9.8,139L9.5,132.8L7.3,137.4Z" style="fill:rgb(1,81,152);"/>
            <path d="M35.7,135C35.4,136.4 34.8,139.7 34.4,142.4C33.8,147.1 33.8,147.2 36.1,146.5C40.1,145.3 40.3,144.4 38.3,138.3C36.6,133.3 36.3,132.9 35.7,135Z" style="fill:rgb(1,81,152);"/>
            <path d="M72.3,141.1L74.3,149.2L77.8,145.7L81.3,142.1L76.4,137.6C73.7,135.1 71.2,133.1 70.9,133C70.5,133 71.1,136.6 72.3,141.1Z" style="fill:rgb(1,81,152);"/>
            <path d="M14.8,140.4L13.3,146.8L16.3,147.4C18,147.7 19.5,147.9 19.6,147.7C19.9,147.4 17.1,134.8 16.7,134.3C16.5,134.2 15.7,136.9 14.8,140.4Z" style="fill:rgb(1,81,152);"/>
            <path d="M26.2,140.7C25,144 24,147 24,147.4C24,147.8 25.5,148 27.3,147.8C30.3,147.5 30.5,147.3 30.2,143.8C30,141.8 29.5,138.9 29.1,137.4C28.4,134.8 28.3,135 26.2,140.7Z" style="fill:rgb(1,81,152);"/>
            <path d="M87,138.5C85.2,141.4 85,142.3 86,143.5C87.9,145.8 88.6,145.3 90,141C91.9,135.2 90,133.6 87,138.5Z" style="fill:rgb(1,81,152);"/>
            <path d="M118,138.8C118,141.3 118.4,142 120,142C121.1,142 122,141.4 122,140.7C122,139.9 121.1,138.5 120,137.5C118,135.7 118,135.8 118,138.8Z" style="fill:rgb(1,81,152);"/>
            <path d="M129.3,137.8L126,139.5L128.6,142.3C131.8,145.8 132.6,145.7 133.4,141.9C134.7,135.4 134.4,135.1 129.3,137.8Z" style="fill:rgb(1,81,152);"/>
            <path d="M109.8,140.4C108.2,143.7 108.2,143.8 111.6,147.1C114.2,149.6 115,150 115,148.7C115,147.8 114.6,147 114,147C113.5,147 113,145.3 113,143.2C113,137.5 111.7,136.4 109.8,140.4Z" style="fill:rgb(1,81,152);"/>
            <path d="M56.7,140.3L53.9,142.5L56.9,148L60,153.5L60,145.7C60,141.5 59.9,138 59.8,138C59.6,138 58.2,139 56.7,140.3Z" style="fill:rgb(1,81,152);"/>
            <path d="M135.8,142C135.4,146.5 135.4,146.4 138.1,145C139.9,144 139.9,143.7 138.5,141C137.6,139.3 136.8,138 136.6,138C136.4,138 136,139.8 135.8,142Z" style="fill:rgb(1,81,152);"/>
            <path d="M142.4,142.1C143.3,147.5 143.5,147.7 148.7,148.6C152.8,149.2 152.9,149.2 154.9,145.2L157,141.1L153.3,140.1C151.2,139.6 147.7,138.8 145.6,138.4L141.7,137.7L142.4,142.1Z" style="fill:rgb(1,81,152);"/>
            <path d="M62.6,148C63,152.7 63.4,156.6 63.5,156.8C63.7,157 65.6,155.8 67.8,154.3L71.8,151.4L67.3,145.9C64.8,142.9 62.6,140.3 62.4,140C62.1,139.8 62.2,143.4 62.6,148Z" style="fill:rgb(1,81,152);"/>
            <path d="M47,145.3C45.6,145.9 44.4,146.5 44.3,146.5C44.1,146.6 45.1,149.8 46.4,153.6L48.7,160.5L49.4,152.7C49.9,148.4 50,144.7 49.8,144.5C49.7,144.4 48.4,144.7 47,145.3Z" style="fill:rgb(1,81,152);"/>
            <path d="M80.1,147.4C77.4,150.2 77.1,150.8 78.5,151.4C81.8,152.6 84.9,152 86.1,149.9C87,148.1 86.9,147.4 85.3,145.9C83.5,144 83.4,144 80.1,147.4Z" style="fill:rgb(1,81,152);"/>
            <path d="M1.5,152C0.6,154.8 0,157.3 0.2,157.5C0.4,157.8 2.6,156 5,153.5C7.4,151 9.2,148.8 8.9,148.6C8.7,148.4 7.3,147.9 5.9,147.5C3.4,146.9 3.1,147.2 1.5,152Z" style="fill:rgb(1,81,152);"/>
            <path d="M52.7,147.7C51.9,149 50.7,163 51.4,163C51.8,163 53.9,162.1 56.1,161L60,158.9L58.4,155.9C55.3,149.9 53.2,146.8 52.7,147.7Z" style="fill:rgb(1,81,152);"/>
            <path d="M105.1,150.1C104.5,151.9 104,153.5 104,153.6C104,153.8 106.6,154 109.8,154L115.5,153.9L111.6,150.5C109.4,148.6 107.3,147 106.9,147C106.5,147 105.7,148.4 105.1,150.1Z" style="fill:rgb(1,81,152);"/>
            <path d="M36.7,148.8C35.2,149.4 35.8,150.4 40.5,155L46,160.5L43.9,154.2C41.8,147.9 40.9,147.2 36.7,148.8Z" style="fill:rgb(1,81,152);"/>
            <path d="M120.7,151.1C120.3,152.6 120.5,153 121.7,152.6C122.5,152.3 124.3,151.7 125.7,151.4C127.5,150.9 127.8,150.5 126.8,149.9C124.4,148.3 121.3,148.9 120.7,151.1Z" style="fill:rgb(1,81,152);"/>
            <path d="M16.5,155.7C17.9,158.8 19.3,161.6 19.5,161.9C19.8,162.1 20,159.6 20,156.2L20,150L14,150L16.5,155.7Z" style="fill:rgb(1,81,152);"/>
            <path d="M23,156.7C23,160.3 23.2,163.1 23.4,162.9C23.6,162.7 25.2,159.7 26.9,156.2L30,150L23,150L23,156.7Z" style="fill:rgb(1,81,152);"/>
            <path d="M4.7,156.8C2.1,159.4 0,162.1 0,162.7C0,163.9 6,166.3 6.9,165.4C7.5,164.8 10,152.7 9.6,152.3C9.5,152.1 7.3,154.2 4.7,156.8Z" style="fill:rgb(1,81,152);"/>
            <path d="M125.2,154L120,155.6L123.2,160L126.4,164.3L128.8,159C130,156.1 130.9,153.4 130.8,153.1C130.6,152.7 128.1,153.1 125.2,154Z" style="fill:rgb(1,81,152);"/>
            <path d="M136.6,153.5C137,154.3 137.6,155 138.1,155C138.6,155 139,154.3 139,153.5C139,152.7 138.3,152 137.5,152C136.6,152 136.3,152.6 136.6,153.5Z" style="fill:rgb(1,81,152);"/>
            <path d="M11.1,159.4C10.4,163.1 10.1,166.4 10.4,166.7C11.3,167.6 19,168.2 18.9,167.4C18.9,166.9 17.4,163.3 15.6,159.5L12.3,152.5L11.1,159.4Z" style="fill:rgb(1,81,152);"/>
            <path d="M27.8,160.4L24,168L34.1,168L33.5,164.7C33.2,163 32.6,159.6 32.2,157.2L31.5,152.9L27.8,160.4Z" style="fill:rgb(1,81,152);"/>
            <path d="M34.3,155C34.6,156.4 35.2,159.7 35.6,162.3L36.3,167.2L39.9,166.5C46.4,165.3 46.4,164.8 39.9,158.5C34.8,153.5 33.8,152.9 34.3,155Z" style="fill:rgb(1,81,152);"/>
            <path d="M143.6,155.4C143.4,156.6 142.9,159.7 142.5,162.5C142.2,165.2 141.7,168.6 141.5,170C141.2,171.4 143,168.7 145.4,164C147.8,159.3 149.6,155.2 149.4,154.9C149.2,154.5 147.9,154 146.6,153.8C144.7,153.4 144,153.8 143.6,155.4Z" style="fill:rgb(1,81,152);"/>
            <path d="M76.9,154L81.3,160.2L82.6,157.9C84,155.2 83,154 79.2,154L76.9,154Z" style="fill:rgb(1,81,152);"/>
            <path d="M67.1,157.8L63.7,160.6L67,166.3C68.8,169.5 70.4,172 70.5,171.8C71.2,170.9 71.9,155 71.2,155C70.8,155 68.9,156.3 67.1,157.8Z" style="fill:rgb(1,81,152);"/>
            <path d="M73.6,164.6C73.3,169.4 73.2,173.5 73.5,173.8C74.5,174.8 76.9,171.7 78.5,167.5C80.1,163.4 80.1,163.2 77.8,159.6C76.6,157.6 75.2,156 74.9,156C74.6,156 74,159.9 73.6,164.6Z" style="fill:rgb(1,81,152);"/>
            <path d="M108,156.7C105,156.9 102.1,157.5 101.6,158C100.8,158.8 106.6,167 108.1,167C108.8,167 115,157.5 115,156.5C115,156.2 114.7,156.1 114.3,156.2C113.8,156.3 111,156.5 108,156.7Z" style="fill:rgb(1,81,152);"/>
            <path d="M135.4,191.2C125.7,210.6 117.6,226.7 117.4,226.9C117.2,227.1 116.4,227 115.5,226.6C114.2,226.1 114.4,225.1 117,219.8L120.2,213.5L114.3,219.5C111,222.8 105.2,227.6 101.5,230C94.8,234.3 94.7,234.5 97.5,234.8C101.8,235.3 120.8,233.2 133,230.9C138.8,229.7 149.6,226.8 157,224.4C170.3,219.9 197.1,207.5 197.7,205.5C197.9,204.8 187.8,202.2 173,199L148,193.6L148,189.9C148,186.2 148.3,185.9 163.7,174.6C174.9,166.3 180.2,163 182.2,163C183.7,163 185,163.3 185,163.7C185,164.2 178.4,168.8 170.4,174L155.7,183.5L160.1,184.4C162.5,184.8 174.7,187.1 187.1,189.4L209.7,193.6L218.5,183.3C223.4,177.6 227.5,173 227.7,173C228.1,173 225.6,176.9 219.4,186C216.6,190.1 214,194.2 213.5,195C212.1,197.2 222.4,188.8 225.5,185.2C227,183.4 228.5,182.2 228.9,182.5C229.3,182.7 231.6,180.9 234,178.5C238.2,174.2 238.3,174.1 235.9,173.6C204.9,166.6 155.7,156 154.4,156C153.6,156 146.2,169.6 135.4,191.2ZM232,179.1C230.8,180.7 229.5,181.9 229.2,181.6C228.7,181 232.8,176 233.7,176C234,176 233.2,177.4 232,179.1Z" style="fill:rgb(1,81,152);"/>
            <path d="M134.5,158.1C134.2,159 134,161.9 134.2,164.6L134.5,169.5L135.9,165.3C136.9,162.1 137,160.4 136.3,158.8C135.4,156.8 135.1,156.8 134.5,158.1Z" style="fill:rgb(1,81,152);"/>
            <path d="M114.2,162.7C112.5,165.3 111.2,167.5 111.4,167.7C111.9,168.2 121.8,166.7 123,166C123.9,165.4 123.5,164.3 121.5,161.6C120,159.6 118.4,158 118,158C117.6,158 115.9,160.1 114.2,162.7Z" style="fill:rgb(1,81,152);"/>
            <path d="M130.2,162.3C128.6,166.7 129.4,172.8 131.1,169.7C131.7,168.8 132,165.8 131.8,163.2L131.5,158.5L130.2,162.3Z" style="fill:rgb(1,81,152);"/>
            <path d="M55.2,164.1C50.4,166.2 50.5,165.3 54,175.4L55.7,180.4L57.9,171.6C59.1,166.7 60,162.6 59.8,162.5C59.6,162.4 57.6,163.1 55.2,164.1Z" style="fill:rgb(1,81,152);"/>
            <path d="M99,164.6C97.7,167.9 98,168.2 101.8,167.8L104.9,167.5L102.4,164.7L100,161.9L99,164.6Z" style="fill:rgb(1,81,152);"/>
            <path d="M60.2,172.2C59,177.2 58.1,181.4 58.2,181.5C58.4,181.6 61,180.6 64.1,179.1L69.7,176.5L66.1,169.8L62.4,163.1L60.2,172.2Z" style="fill:rgb(1,81,152);"/>
            <path d="M0,170C0,172.7 0.2,172.9 1.8,172.1C2.8,171.6 4.2,170.5 4.9,169.7C5.8,168.5 5.6,168.1 3.8,167.6C0.2,166.7 0,166.8 0,170Z" style="fill:rgb(1,81,152);"/>
            <path d="M42.5,168.4L38.6,169.5L44.5,174.1C53.2,180.7 53,180.7 50.7,173.5C48.4,166.5 48.5,166.6 42.5,168.4Z" style="fill:rgb(1,81,152);"/>
            <path d="M116,169.7C110.9,170.3 110.5,171.3 113.6,176L116.4,180.2L118.5,177.6C119.6,176.2 121.4,173.7 122.3,172C124.3,168.6 124.6,168.7 116,169.7Z" style="fill:rgb(1,81,152);"/>
            <path d="M15.6,177L20.5,184.3L20.8,178.5C21,175.3 20.7,172.3 20.2,171.8C19.7,171.3 17.3,170.6 15,170.3L10.8,169.7L15.6,177Z" style="fill:rgb(1,81,152);"/>
            <path d="M27.8,170.7L23,171.1L23.1,175.8C23.2,184.6 24.2,184.9 28.5,177.8C32.8,170.6 33.2,169.9 32.8,170.2C32.6,170.3 30.4,170.5 27.8,170.7Z" style="fill:rgb(1,81,152);"/>
            <path d="M95,174.4C93.1,181.3 94.6,181.9 100.1,176.4C105.4,171.2 105.2,170.2 98.9,170.1C96.6,170 96.1,170.6 95,174.4Z" style="fill:rgb(1,81,152);"/>
            <path d="M138.1,171.6C138.1,172.7 138.4,173 138.7,172.2C139,171.5 138.9,170.6 138.6,170.3C138.3,169.9 138,170.5 138.1,171.6Z" style="fill:rgb(1,81,152);"/>
            <path d="M3.2,174.3C-1.1,178.8 -1.2,183.4 2.9,184.8L5.8,185.8L6.2,178.7C6.5,174.7 6.6,171.4 6.5,171.3C6.4,171.1 4.9,172.5 3.2,174.3Z" style="fill:rgb(1,81,152);"/>
            <path d="M126.2,178.1C125.5,182.1 125.1,185.5 125.3,185.7C125.5,185.9 126.9,184.2 128.4,182C131,178 131,178 129.2,174.5L127.4,170.9L126.2,178.1Z" style="fill:rgb(1,81,152);"/>
            <path d="M8.7,178.8C8.3,182.4 8.4,185.7 8.8,186.1C9.2,186.4 11.9,187 14.8,187.3L20.2,187.9L18.7,185.6C17.9,184.4 15.4,180.8 13.2,177.7L9.3,172.1L8.7,178.8Z" style="fill:rgb(1,81,152);"/>
            <path d="M38.8,179.5C40,185.6 40.6,187 41.9,186.6C42.8,186.3 45.6,185.6 48.2,184.9L53,183.8L48.7,180.6C46.4,178.8 42.9,176.2 40.9,174.7L37.3,172L38.8,179.5Z" style="fill:rgb(1,81,152);"/>
            <path d="M102.5,177L97.6,182L104.2,182C114.1,182 114.5,181.6 110.9,176.4C109.3,174 107.8,172 107.7,172C107.5,172 105.2,174.2 102.5,177Z" style="fill:rgb(1,81,152);"/>
            <path d="M29.8,180.4L25,188L28.4,188C30.2,188 33.1,187.7 34.8,187.4C38.2,186.7 38.2,186 35.6,176.6L34.5,172.7L29.8,180.4Z" style="fill:rgb(1,81,152);"/>
            <path d="M120.7,178.9C118,182.9 118,183.1 119.7,186.3L121.4,189.5L122.7,183C123.4,179.5 123.9,176.2 123.7,175.7C123.6,175.2 122.2,176.6 120.7,178.9Z" style="fill:rgb(1,81,152);"/>
            <path d="M134.1,177.6C134.1,178.7 134.4,179 134.7,178.2C135,177.5 134.9,176.6 134.6,176.3C134.3,175.9 134,176.5 134.1,177.6Z" style="fill:rgb(1,81,152);"/>
            <path d="M64.7,181.6C62,183 60,184.3 60.2,184.5C60.3,184.7 62.8,185.7 65.6,186.8L70.6,188.8L71.8,185.8C72.6,183.7 72.6,182.1 71.9,180.9C70.7,178.5 70.5,178.5 64.7,181.6Z" style="fill:rgb(1,81,152);"/>
            <path d="M128.6,186C125.7,190.4 125.7,190.5 129.5,188.8C131.3,188 132,186.9 132,184.8C132,183.3 131.8,182 131.6,182C131.4,182 130.1,183.8 128.6,186Z" style="fill:rgb(1,81,152);"/>
            <path d="M99.9,189C101.3,191.7 102.7,194 103,194C103.3,194 105.8,191.7 108.5,189L113.4,184L97.2,184L99.9,189Z" style="fill:rgb(1,81,152);"/>
            <path d="M151.5,187C151.1,188.7 151.1,190.4 151.4,190.7C151.7,191 163.7,193.7 178,196.6C202.7,201.7 204.2,201.9 206.6,200.4C207.9,199.5 208.9,198.6 208.8,198.4C208.6,198.3 196.5,195.2 182,191.5C167.4,187.9 154.8,184.7 153.8,184.4C152.6,184.1 152,184.8 151.5,187Z" style="fill:rgb(1,81,152);"/>
            <path d="M46.7,187.8C41.1,189.2 40.9,189.4 41.5,191.9C43.1,198.6 44.2,202.2 44.4,201.9C45.3,200.8 53,186.7 52.8,186.5C52.6,186.4 49.9,187 46.7,187.8Z" style="fill:rgb(1,81,152);"/>
            <path d="M90.8,187.7C88.9,190 84.9,202.3 85.8,203.2C86.2,203.6 87.9,199.9 89.6,194.9C91.4,190 92.7,186 92.5,186C92.4,186 91.6,186.8 90.8,187.7Z" style="fill:rgb(1,81,152);"/>
            <path d="M92.2,194.9C90.5,199.9 89.4,204 89.7,204C90,204 92.5,202.3 95.4,200.3C98.2,198.3 100.7,196.5 100.9,196.4C101.1,196.2 99.9,193.8 98.2,190.9L95.3,185.8L92.2,194.9Z" style="fill:rgb(1,81,152);"/>
            <path d="M0,188.6C0,190.3 2.2,190 2.8,188.2C3,187.5 2.5,187 1.6,187C0.7,187 0,187.7 0,188.6Z" style="fill:rgb(1,81,152);"/>
            <path d="M51.2,195.1C48.8,199.5 47,203.3 47.2,203.5C48,204.3 60,200.7 59.9,199.6C59.9,199 58.9,195.9 57.7,192.8L55.5,187.1L51.2,195.1Z" style="fill:rgb(1,81,152);"/>
            <path d="M60.3,193C63.1,200.6 66.4,201.2 68.8,194.3C69.8,191.2 69.8,191.2 64.8,189.1C62,187.9 59.4,187 58.9,187C58.5,187 59.1,189.7 60.3,193Z" style="fill:rgb(1,81,152);"/>
            <path d="M113.7,195.3L111,203.4L115.7,198.8C120.2,194.3 120.3,194.1 119,191.1C118.3,189.4 117.4,187.8 117.1,187.5C116.7,187.3 115.2,190.8 113.7,195.3Z" style="fill:rgb(1,81,152);"/>
            <path d="M8,188.9L8,202.4L14,196.5C17.3,193.3 19.8,190.5 19.7,190.4C19.6,190.3 16.9,189.9 13.8,189.6L8,188.9Z" style="fill:rgb(1,81,152);"/>
            <path d="M108.7,192.8C104.7,196.9 104.4,198.2 106.5,202C108,204.8 107.7,205.2 111,195.6C112.1,192.3 112.9,189.5 112.7,189.4C112.5,189.2 110.7,190.7 108.7,192.8Z" style="fill:rgb(1,81,152);"/>
            <path d="M25.9,190.7C24.6,191 24.4,192 24.8,195.8C25.6,203.5 26.2,203.7 30.6,197.8C36.7,189.7 36.7,190 31.8,190.1C29.4,190.2 26.8,190.4 25.9,190.7Z" style="fill:rgb(1,81,152);"/>
            <path d="M1.7,192.4C-0.7,194.3 -0.6,200.6 1.9,202C5.5,203.8 6,203.2 6,197C6,190.7 5.2,189.8 1.7,192.4Z" style="fill:rgb(1,81,152);"/>
            <path d="M21.5,191.9L9.7,203.9L13.6,204.5C24.1,206.1 23,206.4 22.9,201.7C22.8,199.4 22.5,196.2 22.1,194.7L21.5,191.9Z" style="fill:rgb(1,81,152);"/>
            <path d="M33.8,197.7C26.9,206.7 26.8,206.3 34.6,205.5C38.4,205.1 41.6,204.7 41.7,204.6C42,204.4 39.2,192.8 38.7,192.4C38.5,192.2 36.3,194.6 33.8,197.7Z" style="fill:rgb(1,81,152);"/>
            <path d="M125.9,193.5C123.8,194.6 123.4,195.5 123.7,197.5C124,198.9 124.3,200 124.5,200C124.6,200 125.9,198.2 127.4,196C130.2,191.7 130,191.3 125.9,193.5Z" style="fill:rgb(1,81,152);"/>
            <path d="M116.5,201C112.2,205.4 112.4,205.6 118.1,203.8C122,202.7 122.9,201 121.2,198.3C120.6,197.4 119.3,198.2 116.5,201Z" style="fill:rgb(1,81,152);"/>
            <path d="M98.7,207.5C96.7,211.6 95.2,215 95.5,215C96.1,215 106,207.9 106,207.5C106,206.9 103,200 102.7,200C102.6,200 100.8,203.4 98.7,207.5Z" style="fill:rgb(1,81,152);"/>
            <path d="M93.6,204.5C90.9,206.4 88.5,208.1 88.3,208.3C88.1,208.5 88.7,210.4 89.5,212.5C90.4,214.5 91.3,216.1 91.4,215.9C92,215.2 99,201 98.8,201C98.6,201 96.3,202.6 93.6,204.5Z" style="fill:rgb(1,81,152);"/>
            <path d="M0,205.5C0,207.2 0.9,207.4 2.8,206.1C3.9,205.4 3.8,205.1 2.5,204.6C0.2,203.7 0,203.8 0,205.5Z" style="fill:rgb(1,81,152);"/>
            <path d="M50.7,205.5C48,206.2 45.7,207 45.6,207.2C45.4,207.4 46.1,209.9 46.9,212.9L48.6,218.4L53.8,211.2C59.5,203.3 59.4,203.1 50.7,205.5Z" style="fill:rgb(1,81,152);"/>
            <path d="M56.5,211.6C53.9,215.2 52,218.3 52.2,218.5C52.4,218.7 54.5,218.4 56.9,217.8C61.5,216.6 63,214.4 63,209C63,204.1 61.4,204.7 56.5,211.6Z" style="fill:rgb(1,81,152);"/>
            <path d="M114.5,207.4C112.1,208.2 110.4,209.4 110.2,210.4C109.4,214.1 111.7,213.9 115.5,210C117.6,207.8 119.2,206 119,206.1C118.7,206.2 116.7,206.8 114.5,207.4Z" style="fill:rgb(1,81,152);"/>
            <path d="M2.8,208.9C-0.8,211 -0.7,213.6 3,215.5C4.6,216.3 6.1,217 6.5,217C7.2,217 7,210.8 6.2,208.9C5.6,207.5 5.2,207.5 2.8,208.9Z" style="fill:rgb(1,81,152);"/>
            <path d="M12,207.2C12,207.4 15.2,210.2 19,213.4C22.9,216.5 26,218.9 26,218.6C26,218.3 25.5,215.8 24.9,213C23.9,208.4 23.6,208 21,208C19.5,208 16.8,207.7 15.1,207.4C13.4,207 12,206.9 12,207.2Z" style="fill:rgb(1,81,152);"/>
            <path d="M27.4,212.2C28.6,219.4 29.1,219.5 35,213.5L40.4,208L26.7,208L27.4,212.2Z" style="fill:rgb(1,81,152);"/>
            <path d="M9.5,213.6C9.9,216.3 10.3,218.6 10.4,218.7C10.7,219 23.4,220.8 23.7,220.6C23.9,220.4 12.1,210.8 10.2,209.6C9,208.9 8.9,209.5 9.5,213.6Z" style="fill:rgb(1,81,152);"/>
            <path d="M36.9,215.2L31.5,221.3L38.4,220.7C42.2,220.3 45.5,219.9 45.7,219.6C46.3,219 43.9,210 43,209.5C42.5,209.2 39.8,211.8 36.9,215.2Z" style="fill:rgb(1,81,152);"/>
            <path d="M82.2,216.4C77.8,223.6 78.1,224.4 83.8,221.8C86.4,220.5 88.7,219.4 88.8,219.3C89.4,219 86.9,212.1 86.1,211.6C85.7,211.3 83.9,213.5 82.2,216.4Z" style="fill:rgb(1,81,152);"/>
            <path d="M101.6,214C99.5,215.6 97.6,217.1 97.4,217.3C97,217.7 102.3,217.1 105.8,216.4C107.5,216.1 108,215.4 107.8,213.8C107.4,210.7 106,210.7 101.6,214Z" style="fill:rgb(1,81,152);"/>
            <path d="M100,219.7C93.3,220.7 92.9,221 93.6,223.3C93.9,224.5 94.4,225.6 94.5,225.8C94.7,226 97.2,224.6 100.2,222.6C105.3,219.1 105.3,218.8 100,219.7Z" style="fill:rgb(1,81,152);"/>
            <path d="M55,221C52.3,221.9 52.5,221.9 58.2,222.4C58.8,222.5 59.5,221.9 59.8,221.2C60.2,219.9 58.8,219.8 55,221Z" style="fill:rgb(1,81,152);"/>
            <path d="M105,222C102.5,223.9 102.5,224 104.7,224C105.9,224 107.4,223.1 108,222C109.3,219.5 108.2,219.5 105,222Z" style="fill:rgb(1,81,152);"/>
            <path d="M85.7,227.5L80.9,232.9L86.2,230.5C92,227.8 92.4,227.3 91.3,224.2C90.6,222.3 90.1,222.5 85.7,227.5Z" style="fill:rgb(1,81,152);"/>
            <path d="M24.5,224C27.2,225.2 28.8,225.2 27,224C26.2,223.5 24.8,223.1 24,223.1C23,223.1 23.2,223.4 24.5,224Z" style="fill:rgb(1,81,152);"/>
            <path d="M31.7,223.9C30.1,224.5 30,224.8 31.2,225.7C34.3,228.3 37.9,228.3 41.1,225.6L44.2,223L38.8,223.1C35.9,223.1 32.7,223.5 31.7,223.9Z" style="fill:rgb(1,81,152);"/>
            <path d="M51.8,227.5C53.5,232.3 56.4,232.7 57.5,228.3C58.2,225.3 58.4,225.5 53.8,224.2L50.2,223.2L51.8,227.5Z" style="fill:rgb(1,81,152);"/>
            <path d="M43.7,226.5L40.9,228.9L43.7,229.6C45.3,229.9 47.3,230.4 48.3,230.7C50.3,231.2 50.3,231.2 48.9,227.1C47.6,223.4 47.3,223.4 43.7,226.5Z" style="fill:rgb(1,81,152);"/>
            <path d="M81.1,225.8C78.8,226.9 77.3,228.5 76.8,230.4C76.4,232.1 76.2,233.6 76.4,233.7C76.6,233.9 78.6,231.8 81,229C83.3,226.3 85,224 84.8,224C84.7,224 82.9,224.8 81.1,225.8Z" style="fill:rgb(1,81,152);"/>
            <path d="M98.6,227.5C98.2,228.8 98.4,228.9 100,228C102.3,226.7 102.6,226 100.6,226C99.8,226 99,226.7 98.6,227.5Z" style="fill:rgb(1,81,152);"/>
            <path d="M90,231.5C88.5,232.3 88.1,232.9 89,232.9C90.8,233 93.6,231.3 93,230.6C92.7,230.4 91.4,230.8 90,231.5Z" style="fill:rgb(1,81,152);"/>
            <path d="M588,248.2C588,250.6 587.3,257.4 586.4,263.5C584.9,274.1 584.9,274.8 586.8,282L588.8,289.5L588.9,266.7C589,254.2 588.8,244 588.5,244C588.2,244 588,245.9 588,248.2Z" style="fill:rgb(1,81,152);"/>
            <path d="M0,282.8L0,299.7L10.8,302.9C21.4,306 40.3,310.2 49.2,311.4C53.7,312.1 53.8,312 53.3,309.8C53,308.5 50.8,303.1 48.3,297.7C45.8,292.3 43.5,285.6 43.1,282.8L42.5,277.7L34.5,275.9C28,274.5 15.7,270.9 1.8,266.3C0.1,265.8 0,267 0,282.8Z" style="fill:rgb(1,81,152);"/>
            <path d="M476.5,333.6C445.8,336.6 429.4,339.9 405,348C349.4,366.3 300.6,401.4 265.5,448.5C230.9,495 211.6,548.3 208.4,606.1L207.7,618.7L214.1,622.1C220.2,625.4 229.8,633.8 232,638C233,639.9 232.8,640 223.2,640C214.6,640 213.1,639.7 211.5,638C210.5,636.9 209.5,636.2 209.1,636.4C208.8,636.6 208.7,639.5 208.8,642.9L209.2,649L225.7,649C240.2,649 242.1,648.8 241.6,647.4C240.3,643.9 239.8,614.8 240.9,601.7C246.3,537.6 272.6,481.7 318.1,437.5C371.5,385.6 444.7,359.5 517.7,366.2C538.6,368.1 535.4,369.7 543.2,353C549.2,340.1 549.7,338.4 548.1,337.8C540.7,335.1 491,332.2 476.5,333.6Z" style="fill:rgb(1,81,152);"/>
            <path d="M566,342.9C566,343.6 558.9,360.5 554.4,370.6C554.1,371.2 557.4,372.6 562.7,374C567.5,375.2 575.2,377.6 579.7,379.1C584.2,380.7 588.1,382 588.4,382C588.7,382 589,374.4 589,365.2L589,348.3L578.7,345.2C567.7,341.8 566,341.5 566,342.9Z" style="fill:rgb(1,81,152);"/>
            <path d="M0.1,506.7L0,649L156.5,649L145.3,643.7C135,639 134.1,638.3 134,635.7L134,633L124.6,633C98.5,633 77.2,625.4 68.3,612.9C64.3,607.3 61.5,597.2 62.4,591.6C62.8,589.4 65.1,583 67.5,577.3C74.5,561.4 73.9,559 59.4,543.8C54.1,538.2 51.9,535.2 51.4,532.5C50.5,527.3 51.5,521.6 53.9,518.1C56.6,514.3 56.5,513.4 53.6,512.6C49.8,511.6 45.2,507.3 43.9,503.2C41.9,497.2 42.7,489.1 46.1,479.4C53.1,459.3 54.1,455.7 53.8,450.6C53.5,446.1 53.2,445.4 50.5,444.1C47.2,442.5 41.7,442.4 26.3,443.5C16.5,444.2 15.8,444.1 10.8,441.7C-3.1,434.9 -1.8,423.1 16.4,390.5L22,380.5L17.7,379.8C15.4,379.4 11.2,378.5 8.3,378L3.1,376.9L1.6,370.7C0.3,365.1 0.2,379.4 0.1,506.7Z" style="fill:rgb(1,81,152);"/>
            <path d="M485.5,412.6C471.3,413.6 467.8,414.2 468.9,415.3C469.7,416.1 469.1,417.3 466.8,419.7L463.6,423L459.9,419.4L456.3,415.9L446.4,418.4C433.2,421.7 418.5,426.9 406.7,432.4C401.3,434.9 397,437.1 397,437.3C397,437.5 399.7,437 402.9,436.1C408,434.8 409.6,434.8 414.2,435.9C421.3,437.7 424.8,439.5 429.3,443.9C435.1,449.4 437.9,456.4 438.3,466.2C438.5,470.8 438.8,471.2 449.3,481.9L460.2,492.9L456.5,494.4C454.4,495.3 452.4,496 452,496C451.6,496 449.4,497.3 447.2,499C442.9,502.1 440.6,505.6 438,512.6L436.5,516.8L425.2,506L413.9,495.3L407.1,494.8C381.6,493 370.1,464 387.1,444.5C390.4,440.8 390.1,440.9 381,447C357.8,462.5 337.9,482.1 323.3,504C317.4,512.8 307,531.1 307,532.5C307.1,533 308.2,531.3 309.6,528.6C315.1,518.1 326.3,510.1 338.9,507.8L345,506.7L360.2,485.9L375.5,465.1L376.8,469.8C381.9,488.4 391.4,497 406.5,497C409.5,497 412,497.3 412,497.7C412,498 405.6,506.8 397.9,517.2L383.8,536L384.5,542.6C385.5,552.6 382.2,563.7 375.3,572.7C369.6,580.2 355.2,587 345.2,587C330.2,586.9 316.1,578.1 309.3,564.3C306,557.6 305.6,556 305.6,548.7C305.5,544.2 305.8,538.9 306.2,537L306.9,533.5L305.1,537C300.2,546.1 292.3,572.8 290,588C288.2,599.9 287,618.9 287.7,626.2C288.3,632.9 288.3,633 291.1,633L293.9,633L294.2,618.2L294.5,603.5L306.8,603.2L319,602.9L319,595L366,595L366,603L388,603L388,633L395.9,633L396.2,619.7L396.5,606.5L500.5,606.5L500.8,610.7L501.1,615L473,615L473,633L531,633L531,642L289,642L289,649L589,649L589,434L582.3,430.9C572.3,426.4 550.8,419.3 540,417.1C534.8,416 530.4,415.3 530.3,415.4C529.3,416.4 519,461.4 519,464.6C519,465.4 526.9,474 536.5,483.8L553.9,501.5L551,504.5L548,507.5L518,477.5L518,484.5C518,493.6 519.7,505.2 521.2,506.1C521.8,506.5 524.1,507.1 526.4,507.4C528.6,507.8 533.5,508.8 537.3,509.6C542.7,510.9 544,511.5 544,513.1C544,514.7 544.7,515 548.5,515L553,515L553,532L548.5,532C544.5,532 544,532.2 544,534.3C544,536.4 543.3,536.8 537.9,537.8C534.5,538.4 531.5,539.1 531.3,539.4C530.7,540 535.1,551 535.9,551C536.2,551 538.7,548.7 541.4,546L546.2,541L552.4,547L546,553.6L539.5,560.1L555.9,591.5L560.4,591.8L565,592.1L565,600.1C565,608 565.1,608.3 570.9,618.8C574.1,624.7 577.9,631.9 579.4,634.7L582,640L561.3,640L550.3,619.7C531.9,586 529.1,580.6 522.7,566.3L516.5,552.5L506.7,552.8L497,553.1L497,539L490.4,539C484.7,539 483.4,539.4 480.2,541.9C473.7,546.9 464.5,548.4 455.8,545.8C450.8,544.3 443.5,537.9 440.9,532.8C432,515.4 446.6,494.4 466.3,496.4C473.1,497.1 474.9,497.9 481.2,503.1C485.4,506.6 486.4,507 491.4,507L497,507L497,500C497,493.4 497.1,493 499.3,493C501.5,493 501.5,492.9 501.6,478.2C501.7,460.7 503.9,448.5 510.7,427.7C513.1,420.1 515,413.7 514.8,413.5C514.2,413 490.6,412.3 485.5,412.6ZM490.5,437.3C495.7,442.4 500,447.1 500,447.6C500,448.2 498.7,449.8 497.2,451.3L494.4,454L474.6,434L477.5,431C479.1,429.4 480.5,428 480.7,428C480.9,428 485.3,432.2 490.5,437.3ZM565,430.2L565,458L556,458L556,429.5L560.5,429.8L565,430.2ZM565,464L565,521L556,521L556,464L565,464ZM565,531L565,588L556,588L556,531L565,531ZM521.5,578L505.5,594L499.5,588L515.5,572L521.5,578ZM473.2,590.5L473.5,595L376,595L376,591.2C376,589.1 376.3,587 376.7,586.7C377,586.3 398.8,586 425.1,586L472.8,586L473.2,590.5Z" style="fill:rgb(1,81,152);"/>
            <path d="M479.6,432.9C478.6,434.5 493.6,449.8 494.9,448.5C495.7,447.7 493.6,445 488.1,439.6C483.4,435 480,432.2 479.6,432.9Z" style="fill:rgb(1,81,152);"/>
            <path d="M559,444C559,452.1 559.3,455.1 560.2,454.8C561,454.5 561.4,451.1 561.4,444C561.4,436.9 561,433.5 560.2,433.2C559.3,432.9 559,435.9 559,444Z" style="fill:rgb(1,81,152);"/>
            <path d="M559,492.5C559,508.8 559.4,518 560,518C560.6,518 561,517.4 561,516.7C561.1,515.4 561.1,470.4 561,468.2C561,467.6 560.6,467 560,467C559.4,467 559,476.2 559,492.5Z" style="fill:rgb(1,81,152);"/>
            <path d="M559,559.5C559,576.9 559.3,585.1 560,584.8C561.5,584.3 561.6,534.7 560.1,534.2C559.3,533.9 559,541.5 559,559.5Z" style="fill:rgb(1,81,152);"/>
            <path d="M509.1,582.4C505.8,585.7 504,588.3 504.5,589C505,589.8 507.1,588.3 511.1,584.4C516.2,579.3 517.5,577 515.2,577C514.8,577 512,579.4 509.1,582.4Z" style="fill:rgb(1,81,152);"/>
            <path d="M379,591C379,591.7 394.8,592 424.5,592C454.2,592 470,591.7 470,591C470,590.3 454.2,590 424.5,590C394.8,590 379,590.3 379,591Z" style="fill:rgb(1,81,152);"/>
            <path d="M461.2,416.2C461.5,416.9 462.5,417.7 463.4,417.8C464.6,418.1 465.1,417.7 464.8,416.8C464.5,416.1 463.5,415.3 462.6,415.2C461.4,414.9 460.9,415.3 461.2,416.2Z" style="fill:rgb(1,81,152);"/>
            <path d="M399.2,440.3C394.3,441.8 387,448.8 384.4,454.5C377.7,468.7 386.1,486.1 401.7,490.6C405,491.6 408.8,492 410.9,491.6C414.4,491.1 414.8,491.4 424.7,501.2L434.9,511.4L436.5,507.6C438.7,502.5 445.1,495.7 450,493.5L454.1,491.6L435,472.5L435,466.2C435,450.1 424.3,438.9 409.1,439.1C405.4,439.2 401,439.7 399.2,440.3ZM420.8,444.6C429,449.4 433.8,459 432.6,468.3L432.1,473.1L440.7,482.1C445.4,487 449.1,491.2 448.9,491.3C448.7,491.5 446.6,492.8 444.3,494.3C442,495.7 438.7,499 436.9,501.6L433.8,506.2L424.9,497.4L416.1,488.7L410.1,488.9C395.9,489.4 385,479 385,465C385,459.7 387.2,453.5 390.2,450C392.7,447 398.5,443.2 402,442.1C407.2,440.5 415.8,441.7 420.8,444.6Z" style="fill:rgb(1,81,152);"/>
            <path d="M403.5,445.1C398.2,446.3 392.2,451.3 389.9,456.4C383.3,470.9 395.1,487.3 411,485.7L416.5,485.1L424.6,493.1L432.6,501.1L438.3,495.3L444.1,489.6L436,481.5C428.1,473.5 428,473.4 429,470C431.4,461.8 426.4,450.8 418.7,447.2C413.3,444.6 408.5,444 403.5,445.1ZM412.7,452.1C416.8,453.6 420.9,457.9 421.9,461.7C424.8,472.1 412.6,482.5 403.2,477.6C392.5,472.1 392.4,458.5 403,452.9C407,450.7 408.8,450.6 412.7,452.1Z" style="fill:rgb(1,81,152);"/>
            <path d="M403.4,456.1C400.7,457.5 398,462.1 398,465.5C398,472 406.1,477.4 412.1,475C416.4,473.2 419,469.4 419,464.8C419,457.2 410.7,452.6 403.4,456.1Z" style="fill:rgb(1,81,152);"/>
            <path d="M518.2,471.2C518.5,473.1 546.7,503 548.1,503C550.8,503 547.4,498.9 533.4,485C524.8,476.5 518,470.3 518.2,471.2Z" style="fill:rgb(1,81,152);"/>
            <path d="M359.6,492C349.5,505.8 345.3,510.7 344,510.5C341.3,510 334.3,511.8 328.6,514.5C321.7,517.8 315.6,524 311.8,531.8C308.9,537.6 308.6,539.2 308.6,546.9C308.6,558.4 311.8,565.8 320.1,573.4C338.2,590.2 365.9,585.4 377.3,563.6C380.3,557.8 380.5,556.9 380.6,546.3L380.6,535.1L393.3,518C400.3,508.7 406,500.8 406,500.6C406,500.4 403.8,500 401.1,499.7C391.2,498.5 382.3,491.9 377.8,482.5C376.3,479.2 375,475.7 375,474.7C375,473.8 374.7,473 374.3,473C373.8,473.1 367.3,481.6 359.6,492ZM375.2,483.7C378.3,490.4 385.6,497.2 392.5,499.8C395.6,501 398.9,502 399.7,502C402,502 401.1,503.5 388.6,520.2L377.1,535.7L378.2,539.6C379.8,545.4 378.6,555.2 375.7,561.3C371.8,569 367.9,573.2 360.8,577.1C354.9,580.3 353.9,580.5 345,580.5C337,580.5 334.7,580.1 330.5,578C324.1,574.9 317.1,567.9 314,561.5C310.8,555.1 310.1,543.2 312.4,536.5C316.9,523.2 330.6,513.1 344.2,513C347.3,513 348.2,512 360,496C366.9,486.6 372.6,479 372.7,479C372.9,479 374,481.1 375.2,483.7Z" style="fill:rgb(1,81,152);"/>
            <path d="M360.3,500.8L349.3,515.7L343.3,516.2C326.5,517.8 314,530.9 314,547.1C314,558.2 321,569.4 331.4,574.8C338.5,578.4 350,578.6 357.7,575.1C370.5,569.4 377.9,554.6 375,540.6L373.8,534.9L385,519.9C391.1,511.6 396,504.7 395.8,504.6C395.6,504.5 393.5,503.6 391,502.7C385.8,500.8 376.6,493.1 374.4,488.9C373.6,487.3 372.6,486 372.1,486C371.6,486 366.3,492.7 360.3,500.8ZM354.3,531.4C356.6,532.6 359.3,535.3 360.7,537.8C362.9,541.4 363.2,543 362.8,548.3C362.2,558.7 355.3,565.2 344.9,565.2C323.2,565.2 320.1,533.8 341.4,529C345.5,528.1 349.7,528.8 354.3,531.4Z" style="fill:rgb(1,81,152);"/>
            <path d="M337.2,534C324.3,541.9 329.8,562 344.8,562C349.7,562 353.4,560.3 356.9,556.6C360.4,552.9 361,543.9 358.1,539.2C353.7,532.3 344.1,529.8 337.2,534Z" style="fill:rgb(1,81,152);"/>
            <path d="M500,502.9C500,507.9 499.6,510 498.8,510.1C484.8,511.1 485.4,511.2 479.5,506C470.3,498 459.5,497.2 450.2,504C440.3,511.2 438.8,527.6 447.3,536.9C450.8,540.7 458.8,544 464.6,544C469.9,544 479.7,540 480.7,537.4C481.1,536.3 483.6,536 490.6,536L500,536L500,550L513.2,550L512.8,544.5C512.2,536.8 510,534.8 510,541.8L510,547L502,547L502,533L491.4,533C481.2,533 480.7,533.1 478.8,535.5C475.8,539.4 471.7,541 465.1,541C458,541 454.5,539.8 450.7,536.2C439.9,526 442.7,509.2 456.2,503.5C464.3,500.2 474.4,502.7 479.5,509.4L482.2,513L502,513L502,505.5C502,501.4 502,497.7 502.1,497.3C502.1,496.9 501.7,496.4 501.1,496.2C500.4,496 500,498.3 500,502.9Z" style="fill:rgb(1,81,152);"/>
            <path d="M456,507.3C451,509.9 447,516.3 447,521.7C447,526.2 450.2,532.3 454.1,535.1C460.7,539.8 473.6,538.5 476.5,532.9L478.1,530L506,530L506.2,537.2C506.3,543.5 506.4,543.8 506.7,539.2C507,535.4 507.5,534 508.6,534C509.5,534 509.9,533.4 509.7,532.7C509.4,532.1 508.3,528 507.3,523.7L505.5,516L480.7,516L477.2,511.9C471.1,504.8 463.8,503.2 456,507.3ZM471.1,512.1C479.5,517.9 475.7,531.3 465.4,532.7C454.6,534.1 447.8,518.3 456.7,512.5C462.2,508.9 466.3,508.8 471.1,512.1Z" style="fill:rgb(1,81,152);"/>
            <path d="M458.6,515.1C456.7,516.6 456,518.1 456,520.5C456,525.2 456.8,526.9 460.1,528.5C464.1,530.6 468.8,529.4 471.1,525.6C473.7,521.3 473.5,519.3 470.1,515.9C466.6,512.4 462.4,512.1 458.6,515.1Z" style="fill:rgb(1,81,152);"/>
            <path d="M521,511C521,511.5 522.2,512.2 523.8,512.6C525.3,512.9 528.1,513.6 530,514C531.9,514.4 534.7,515.1 536.3,515.4C538.1,515.8 539,516.7 539,518C539,519.7 539.7,520 543.5,520C547.8,520 548,520.1 548,523C548,525.9 547.8,526 543.5,526C539.2,526 539,526.1 539,528.9C539,531.5 538.6,531.9 534.3,532.6C531.8,533.1 529.5,534.1 529.2,534.9C528.9,535.9 529.5,536.1 531.9,535.6C533.6,535.3 536.3,534.7 537.9,534.4C540.2,534 541,533.3 541.2,531.2C541.5,528.8 542,528.5 545.8,528.2L550,527.9L550,518L545.6,518C541.8,518 541.1,517.7 540.8,515.8C540.5,513.9 539.3,513.4 532.5,511.8C523.3,509.8 521,509.6 521,511Z" style="fill:rgb(1,81,152);"/>
            <path d="M523,516.6C523,517 524,520.3 525.1,524L527.3,530.6L530.9,530.1C534.5,529.5 534.5,529.5 534.8,523.9L535.1,518.2L531.3,517.6C529.2,517.2 526.5,516.6 525.3,516.3C524,516 523,516.1 523,516.6Z" style="fill:rgb(1,81,152);"/>
            <path d="M541.3,550.2C535.4,556.4 537,558.4 543.1,552.4C547.4,548.2 548.4,546 546.1,546C545.7,546 543.6,547.9 541.3,550.2Z" style="fill:rgb(1,81,152);"/>
            <path d="M559,596.3C559,597.8 561.9,602 562,600.5C562,599.9 561.7,598.5 561.4,597.2C560.7,594.8 559,594.1 559,596.3Z" style="fill:rgb(1,81,152);"/>
            <path d="M322,598L322,607L297.1,607L297.1,621.7L297.2,636.5L292.6,636.8C290.1,637 288,637.5 288,638C288,638.6 335.3,639 408,639C513.7,639 528,638.8 528,637.5C528,636.2 524,636 499,636L470,636L470,612L483.5,612C491.8,612 497,611.6 497,611C497,610.3 480,610 448,610L399,610L399,636L385,636L385,607L363,607L363,598L322,598ZM361,601L361,609L382,609L382,636L300,636L300,609.1L324.4,608.5L324.6,605C324.6,603.1 324.8,601.4 324.9,601.2C324.9,601.1 333.1,601 343,601L361,601ZM467,612L467,636L402,636L402,612L467,612Z" style="fill:rgb(1,81,152);"/>
            <path d="M328,604L328,612L303,612L303,633L379,633L379,612L356.8,612L357,609.2C357.4,603.8 358,604 342.5,604L328,604Z" style="fill:rgb(1,81,152);"/>
            <path d="M405,615L405,633L464,633L464,615L405,615Z" style="fill:rgb(1,81,152);"/>
            <path d="M0,717.5L0,766.2L31.3,765.8C58.9,765.4 63,765.2 67,763.5C82.1,757.3 88.7,745.3 89.7,722.4C90.3,709.1 89.2,700.3 85.8,691.2C82.9,683.4 74.6,675.2 66.5,671.9C60.7,669.6 59.4,669.5 30.3,669.2L0,668.9L0,717.5ZM54.2,687.8C63.1,691.7 67.5,701.4 67.5,717C67.5,728.2 65.2,737.1 60.8,742.4C56.6,747.6 50.7,749 33.8,749L20,749L20,717.7C20,700.4 20.3,686 20.8,685.5C21.2,685.1 27.8,685 35.6,685.3C46.7,685.7 50.7,686.2 54.2,687.8Z" style="fill:rgb(1,81,152);"/>
            <path d="M154.9,670C141.4,672.3 129.8,684.7 125.5,701.5C123.5,709.3 123.5,726.7 125.5,734.5C129.2,748.9 137.1,759 147.5,762.9C154.6,765.6 168.1,766.9 187.8,767L202,767L202,750.2L183.3,749.8C162.8,749.2 157.9,748.2 152.7,743.3C151.2,741.8 149.3,738.3 148.5,735.6C145.7,726.3 143.4,727.1 174.3,726.8L201.5,726.5L201.8,718.2L202.1,710L146.7,710L147.4,704.4C148.2,697.7 149.9,694.1 153.9,690.7C158.3,687 165,686 184.5,686L202,686L202,669L180.8,669.1C169.1,669.2 157.4,669.6 154.9,670Z" style="fill:rgb(1,81,152);"/>
            <path d="M246,669L246,767L265,767L265,730.3C265,710.2 265.3,693.9 265.6,694.3C266,694.6 271.6,711.1 278.2,730.9L290.1,767L310.9,767L312.8,761.7C313.8,758.9 319.6,742.4 325.6,725.2L336.5,693.8L336.8,730.4L337,767L357,767L357,669L326.5,669L314.1,706.3C307.3,726.7 301.4,743.9 301,744.3C300.6,744.7 297.9,737.8 295.1,728.8C292.2,719.8 286.7,702.7 282.8,690.7L275.9,669L246,669Z" style="fill:rgb(1,81,152);"/>
            <path d="M426.9,670C413.4,672.3 401.8,684.7 397.5,701.5C395.5,709.3 395.5,726.7 397.5,734.5C401.2,748.9 409.1,759 419.5,762.9C426.6,765.6 440.1,766.9 459.8,767L474,767L474,750.2L455.3,749.8C434.8,749.2 429.9,748.2 424.7,743.3C423.2,741.8 421.3,738.3 420.5,735.6C417.7,726.3 415.4,727.1 446.3,726.8L473.5,726.5L473.8,718.2L474.1,710L418.7,710L419.4,704.4C420.2,697.7 421.9,694.1 425.9,690.7C430.3,687 437,686 456.5,686L474,686L474,669L452.8,669.1C441.1,669.2 429.4,669.6 426.9,670Z" style="fill:rgb(1,81,152);"/>
            <path d="M543.3,672.1C528.8,674.9 517.9,686.4 513.5,703.5C511.7,710.5 511.5,727.6 513.1,735.2C515.7,747.3 522.4,757.8 530.7,762.6C538,766.9 544.7,768 568.3,768.7L590,769.3L590,752.2L571.3,751.8C545.7,751.1 541.1,749.3 537,738.3C535.4,733.9 535,730.5 535,719.2C535,703 536,698.8 540.9,693.9C545.8,689 551.1,688 572.5,688L590,688L590,671L568.8,671.1C557.1,671.2 545.6,671.6 543.3,672.1Z" style="fill:rgb(1,81,152);"/>
        </g>
        <g transform="matrix(0.492041,0,0,0.492198,-0.309809,-0.136118)">
            <path d="M599.5,13.1C596.2,13.6 582.3,15.3 568.5,17C528,21.9 498.5,27.8 465.5,37.6C445.2,43.7 422.8,51.1 423.3,51.6C423.5,51.9 446.1,55.9 473.5,60.6C509,66.6 523.6,68.8 524.5,68C526.3,66.5 580.6,59 601.4,57.4L610.1,56.7L609.5,46.1C609.3,40.3 608.7,30.2 608.4,23.7C608,15.8 607.4,12 606.7,12.1C606,12.2 602.8,12.6 599.5,13.1Z" style="fill:rgb(151,163,201);"/>
            <path d="M704,14.7C704.1,15.7 704.7,25.3 705.5,36C706.2,46.7 706.7,55.7 706.4,56.1C705.8,57.1 713.5,58.3 716.2,57.6C717.5,57.3 717.8,57.3 717,57.7C716.2,58.1 726.8,60.1 740.5,62.1C754.3,64.2 767,66.2 768.8,66.5L772,67.1L772,44.5C772,32.1 771.8,22 771.6,22C771.4,22 757.7,20.2 741.3,17.9C724.9,15.7 710.2,14.1 708.5,14.4C706.3,14.8 705.9,14.7 707,14C708.2,13.2 708.1,13 706.3,13C704.8,13 704,13.6 704,14.7ZM726.3,58.7C725.6,58.9 724.4,58.9 723.8,58.7C723.1,58.4 723.6,58.2 725,58.2C726.4,58.2 726.9,58.4 726.3,58.7ZM734.3,59.7C733.6,59.9 732.2,59.9 731.3,59.7C730.3,59.4 730.9,59.2 732.5,59.2C734.2,59.2 734.9,59.4 734.3,59.7ZM740.8,60.7C739.8,60.9 738.2,60.9 737.3,60.7C736.3,60.4 737.1,60.2 739,60.2C740.9,60.2 741.7,60.4 740.8,60.7ZM755,62.4C759.1,63.2 761.4,63.8 760,63.8C758.6,63.8 754.1,63.3 750,62.6C745.9,61.8 743.6,61.2 745,61.2C746.4,61.2 750.9,61.7 755,62.4ZM767.3,64.7C766.6,64.9 765.2,64.9 764.3,64.7C763.3,64.4 763.9,64.2 765.5,64.2C767.2,64.2 767.9,64.4 767.3,64.7Z" style="fill:rgb(151,163,201);"/>
            <path d="M921.6,75.3C921.3,78.6 921,83.6 921,86.4C921,89.2 920.7,93.8 920.4,96.7L919.7,101.9L912.4,104.6L905,107.3L914.7,111.5C936.7,121 968.4,138.1 990.7,152.6C1052.6,192.7 1093.8,236.8 1122.1,293.1C1124.8,298.5 1126.7,303 1126.4,303C1126,303 1126.3,303.6 1126.9,304.3C1128.6,306.4 1142.9,342.5 1142,342.5C1141.9,342.5 1142.1,343.2 1142.4,344C1144.4,349.9 1149.4,368.7 1151.9,380C1159.5,414.1 1162.1,436.1 1162.7,472.5C1163.2,501.9 1161.5,532.9 1159,539.5C1158,542.1 1157.8,542.2 1152.2,541.6C1139.9,540.4 1149.6,542.2 1166.9,544.4C1178.4,545.8 1185.5,547.1 1186,547.9C1186.4,548.6 1187.6,549 1188.6,548.8C1190.2,548.5 1190.7,546.3 1192.7,530.5C1193.9,520.6 1195.3,508.4 1195.7,503.5L1196.5,494.5L1197.1,501C1197.4,504.6 1197.7,484.3 1197.7,456C1197.8,427.7 1197.5,405.6 1197.1,407C1196.4,409.1 1196.2,408.8 1195.6,404.5C1190.5,369.3 1176.7,321.5 1162.5,290.4C1160.6,286.3 1159.4,283 1159.8,283C1160.2,283 1160.1,282.6 1159.5,282.2C1159,281.8 1155.6,275.6 1152,268.5C1121,206.4 1075.1,157.1 1010.5,116.8C990,103.9 979.4,98.1 950.4,83.4L922.3,69.2L921.6,75.3Z" style="fill:rgb(151,163,201);"/>
            <path d="M231.5,184.1C231.1,186.8 231.1,189.4 231.4,189.7C231.7,190.1 232,189.6 232,188.7C232,186.4 234.2,186.6 236.8,189C240.1,192.1 239.4,196.4 236.1,193.7C234.3,192.3 238.6,197.9 246.4,207C249.5,210.6 252,214 252,214.6C252,215.2 252.6,215.7 253.3,215.7C254.1,215.7 254.4,214.4 254.1,211.7C253.9,209.4 253.5,208.3 253,209C252.5,209.8 251.6,208.5 250.5,205.5C249.1,201.9 248.9,200.6 249.9,200.1C250.7,199.6 248.2,196.1 242,189.2C236.9,183.6 232.7,179 232.5,179C232.3,179 231.9,181.3 231.5,184.1Z" style="fill:rgb(151,163,201);"/>
            <path d="M231.6,200.5C232.6,203 230.9,204.5 229.3,202.5C227.3,199.7 227.6,200.8 232.5,213.7C235,220.2 237,226.3 237,227.2C237,228.2 237.4,229 237.9,229C238.7,229 240.3,233.6 240.4,236.5C240.5,238 245.3,240.1 246.4,239C247.4,238 247.4,236.4 246.7,224.8C246.3,218.3 246.1,217.9 239,208.6C235,203.3 231.6,199 231.4,199C231.2,199 231.3,199.7 231.6,200.5Z" style="fill:rgb(151,163,201);"/>
            <path d="M223.7,213C224,213.9 222.6,216.7 220.7,219.1L217.3,223.6L224.7,227.8C228.7,230.2 232.6,231.8 233.2,231.4C233.8,231 234,231.1 233.7,231.7C233.3,232.3 233.8,233.4 234.7,234.1C236.1,235.3 236.3,235.3 235.8,234C235.5,233.2 233.8,228.7 232,224C230.2,219.3 228.3,214.6 227.8,213.5C226.7,211 223.1,210.6 223.7,213Z" style="fill:rgb(151,163,201);"/>
            <path d="M213.7,231.1C213.3,232.4 212.7,232.9 212,232.5C210.6,231.6 211.2,232.7 217.6,244C219.9,248.1 222.9,253.4 224.2,255.7C225.4,258.1 226.8,259.9 227.1,259.7C227.4,259.6 229.3,260.7 231.3,262.2C235.2,265.3 236,265.5 236,263.9C236,262.5 243,250.7 244.4,249.8C245,249.4 245.2,248.9 245,248.7C244.5,248.3 218,231.2 215.4,229.7C214.7,229.3 214,229.9 213.7,231.1Z" style="fill:rgb(151,163,201);"/>
            <path d="M206.8,240.5C207.1,243 206.8,244 205.9,244C205.2,244 205.6,244.7 206.8,245.6C208,246.4 209.5,246.8 210.2,246.4C210.8,246 211,246.1 210.7,246.7C210.3,247.3 210.9,248.5 212,249.5C214.6,251.9 214.5,251.1 211.6,245.9C210.2,243.5 209.3,241.3 209.5,240.9C209.8,240.6 209.2,239.5 208.2,238.7C206.5,237.2 206.4,237.3 206.8,240.5Z" style="fill:rgb(151,163,201);"/>
            <path d="M200.6,252.3C199.8,255.7 194.2,263 192.5,263C190.2,263 190.7,264.9 193.3,265.5C198,266.6 232.3,272.1 232.5,271.8C232.8,271.5 213.2,257.8 203.9,251.7C201.3,250 201.2,250 200.6,252.3Z" style="fill:rgb(151,163,201);"/>
            <path d="M189,271C189,271.6 189.5,272 190.1,272C190.6,272 197.5,276.4 205.3,281.8C223,294 221.9,293.4 221.3,291.1C220.7,288.7 224.3,281.6 227.2,279.6C230,277.6 230.2,277.7 210,274.5C200.9,273.1 192.5,271.5 191.3,271C189.8,270.4 189,270.4 189,271Z" style="fill:rgb(151,163,201);"/>
            <path d="M185,279.3C185,283.1 182,292 180.1,293.9C178.4,295.6 178.6,296 185.7,303.3L193.1,310.9L200.8,312C205,312.6 209.2,313.3 210.1,313.6C211.3,313.9 211.8,313.4 211.8,311.8C211.8,310.5 212.5,307.5 213.5,305C214.4,302.5 215.2,300 215.3,299.3C215.5,298.4 186.9,277 185.5,277C185.2,277 185,278 185,279.3Z" style="fill:rgb(151,163,201);"/>
            <path d="M176.2,300C177.2,301.6 177.1,302.4 175.2,304.9C172.7,308.4 172.7,308.4 182,309.5L187.5,310.2L181.5,304.1C178.2,300.7 175.4,298 175.3,298C175.1,298 175.5,298.9 176.2,300Z" style="fill:rgb(151,163,201);"/>
            <path d="M169.4,317.5C169.4,319.4 168.6,321.8 167.7,322.8C166.2,324.5 166.3,324.9 170.1,330.3C172.3,333.4 174.8,336 175.5,336C177,336 202.1,319.8 201.6,319.2C201.4,319.1 195.4,318 188.4,317C181.3,315.9 174.2,314.8 172.5,314.5C169.7,314 169.5,314.2 169.4,317.5Z" style="fill:rgb(151,163,201);"/>
            <path d="M193.5,333.1C188.6,336.4 183.6,339.5 182.5,340C181.2,340.6 184,340.9 190.8,340.9C197.9,341 200.9,340.7 200.5,339.9C199.6,338.6 201.9,330 203.1,330C203.6,330 204,329.3 204,328.5C204,326.3 203.4,326.6 193.5,333.1Z" style="fill:rgb(151,163,201);"/>
            <path d="M162.2,333.5C162.1,334.8 160.9,338.8 159.6,342.3L157.2,348.8L163.5,344.8L169.9,340.7L166.7,336.3C162.8,330.8 162.5,330.6 162.2,333.5Z" style="fill:rgb(151,163,201);"/>
            <path d="M166,350.6C160.8,354.1 156.1,357.1 155.5,357.4C155,357.6 154.8,358 155.1,358.4C155.7,359 188.4,367.9 190.1,368C190.5,368 191,365.4 191.4,362.2C191.8,359.1 192.9,354.2 193.9,351.3L195.7,346.1L191.6,345.6C176.2,343.7 176.4,343.7 166,350.6Z" style="fill:rgb(151,163,201);"/>
            <path d="M148.5,366.9C147.5,370 146.5,373.2 146.3,374C145.9,375.3 145.9,375.3 147,374C147.9,372.8 148,373 147.4,375C147.1,376.4 146.2,378.9 145.5,380.6L144.2,383.7L151,386L157.7,388.3L170.4,380C177.4,375.5 182.9,371.5 182.6,371.3C182.4,371 175,368.7 166.2,366.1L150.3,361.3L148.5,366.9Z" style="fill:rgb(151,163,201);"/>
            <path d="M162.6,393C150,401.2 139.5,408.1 139.4,408.3C138.7,409 169.6,415.2 172.1,414.8C174.1,414.6 174.5,414 174.2,411.4C173.9,407.6 180.5,386.9 182.6,385.4C183.8,384.5 186.5,378 185.6,378C185.5,378 175.1,384.7 162.6,393Z" style="fill:rgb(151,163,201);"/>
            <path d="M140.8,394L139.2,400L141.4,398.8C142.5,398.2 145.5,396.4 147.9,394.7L152.3,391.7L149.3,390.5C142.4,387.6 142.6,387.5 140.8,394Z" style="fill:rgb(151,163,201);"/>
            <path d="M130.4,416.2C130.2,422.9 126.4,438 124.6,439.3C123.8,439.9 123.8,440.1 124.6,439.8C126.7,439.2 166,420.7 165.7,420.4C165.6,420.3 158.7,419 150.5,417.5C142.2,416.1 134.4,414.7 133,414.4C130.9,414 130.5,414.3 130.4,416.2Z" style="fill:rgb(151,163,201);"/>
            <path d="M147,435.2C133,441.7 121.1,447.6 120.5,448.2C119.8,449 119.9,449.1 120.8,448.6C121.4,448.2 122,448.3 122,448.9C122,449.4 121.2,450 120.3,450.3C119.3,450.5 124.4,451 131.5,451.3C138.7,451.7 147.9,452.3 152.2,452.6C159.1,453.1 159.9,452.9 160.4,451.2C160.8,450.2 163.9,444.4 167.5,438.4C173.3,428.8 175.5,422.8 173.3,423.1C172.8,423.1 161,428.6 147,435.2Z" style="fill:rgb(151,163,201);"/>
            <path d="M117.3,463.8L117.1,470.6L134.3,472.4C143.8,473.4 152.5,474.4 153.8,474.7C155.5,475.1 155.9,474.9 155.4,473.7C154.6,471.5 156.8,464.2 158.7,463.1C160.6,462.1 159,461.8 138.5,459.5C130.8,458.6 122.9,457.7 121,457.4L117.5,456.9L117.3,463.8Z" style="fill:rgb(151,163,201);"/>
            <path d="M86.9,565.8C87.5,566.9 88,569.1 88,570.5C88,575.4 91,585.1 97.2,599.9C100.6,607.9 104.6,617.6 106.2,621.4C107.7,625.1 109,629 109,630C109,633.9 111.4,634.7 124.7,635.4C131.7,635.8 139.1,636.3 141,636.6C143,636.9 144,636.8 143.4,636.3C142.7,635.9 141.5,631.4 140.5,626.5C138.1,613.3 133,596.7 126.1,579.2C124.9,576.2 124.2,573.5 124.4,573.1C124.7,572.7 116.7,570.6 106.7,568.5C96.7,566.4 87.9,564.5 87.1,564.2C86,563.8 86,564.1 86.9,565.8Z" style="fill:rgb(151,163,201);"/>
            <path d="M1116.7,687.5C1117.4,689.5 1113.5,699.8 1104.8,718.6C1095.3,739.3 1093.2,742.8 1088.8,745.1C1086.5,746.3 1085.9,747 1087,747.4C1091.1,748.8 1130.2,754.6 1128.8,753.6C1127.3,752.5 1127.9,750.7 1133.6,737.5C1145.6,709.9 1149.2,700.3 1148.8,696.9L1148.5,693.7L1132.3,690C1121.9,687.6 1116.4,686.8 1116.7,687.5Z" style="fill:rgb(151,163,201);"/>
            <path d="M44.3,774.2C44.3,774.9 39.3,784.5 33.3,795.5C8.8,840.1 0.8,863.5 5,878.5C6.8,885 13.4,891.9 22.2,896.6L29.5,900.5L42.5,900.5C49.7,900.4 64.5,900.2 75.5,900C105.4,899.3 109.2,900.9 109.8,915C110.3,925.2 108.7,931.9 99,961.2C94.6,974.2 90.3,988.9 89.4,993.7C87.3,1005.2 87.9,1016.6 90.9,1023.7C93.8,1030.2 101.1,1037.2 108.4,1040.4C112.2,1042.1 114,1043.5 114,1044.7C114,1045.7 112.1,1050.3 109.8,1054.9C105.9,1062.5 105.5,1064 105.1,1072.2C104.7,1084.4 106.5,1087.8 123.1,1106.1C137.9,1122.4 143,1129.3 145.5,1136.5C148.4,1145.1 147.4,1149.1 134,1183.9C126.6,1203 126.2,1205.4 128.8,1217.1C134.2,1242.3 145.4,1256.5 169.5,1268.4C191.3,1279.2 211.1,1283.4 249.8,1285.3L273,1286.5L273,1273.9C273,1261.6 272.9,1261.2 270.8,1260.6C269.5,1260.3 260.9,1260 251.5,1260C218.1,1260 202,1255.4 182.1,1240.2C173.1,1233.2 162.8,1222.3 160.1,1216.6C156.1,1208.5 158.1,1196.7 166.9,1175.2C173.1,1160.1 175.5,1150.4 175.4,1141C175.3,1128.1 169.8,1117.8 151.9,1096.1C132.7,1072.8 133.1,1074.4 142,1062.9C150.7,1051.7 154,1045 154,1038.7C154,1033.7 153.8,1033.4 148.1,1028C143.4,1023.5 139.8,1021.3 129.9,1016.8L117.5,1011.3L117.8,1006.4C118.3,999.2 121,988.4 129.3,960.5C142.5,916.3 143.3,908.7 136.1,893.5C132.5,885.7 128.8,881.5 121.7,876.9C110.1,869.4 97.4,867.6 71.6,869.6C62.2,870.3 50.1,871 44.8,871L35,871L35,867.5C35,855.8 43.3,836.1 62.2,802.8C72.8,784 75.1,781 78.3,781.7C79.5,782 80.2,782 79.9,781.7C79.5,781.2 46,773 44.5,773C44.4,773 44.3,773.6 44.3,774.2Z" style="fill:rgb(151,163,201);"/>
            <path d="M1047,841.7C1047,842.8 1043,856.9 1038.1,873.1C1024.1,919.3 1022.3,929.7 1021.1,970.7C1020.6,986.2 1019.9,999.3 1019.6,999.8C1019.1,1000.7 1032.4,1002 1041.7,1002L1046,1002L1046,1025.5L1051.3,1026.9C1059.1,1028.8 1061.6,1029.3 1060.4,1028.3C1056.7,1025.6 1054.2,1011.1 1053.3,987.9L1052.7,971.2L1040.8,958.4C1034.3,951.3 1029,945.3 1029,945C1029,944.7 1031.6,941.3 1034.9,937.3L1040.7,930.1L1046.6,935.2C1049.9,938.1 1053.5,941.2 1054.6,942.2C1056.7,944.1 1056.7,944.1 1056.3,941.8C1055.6,938 1063.7,899.3 1073.4,860.7C1077.5,844.4 1077.5,843.9 1075.5,843.5C1074.4,843.3 1069,842.6 1063.5,842C1058,841.4 1052,840.6 1050.3,840.3C1047.5,839.9 1047,840.1 1047,841.7Z" style="fill:rgb(151,163,201);"/>
            <path d="M1041.2,945.1C1040.4,946.3 1040,947.3 1040.2,947.3C1040.4,947.4 1043.7,950.5 1047.5,954.2C1054.4,960.8 1054.5,960.9 1054.6,958C1054.7,955.8 1053.4,953.9 1048.6,949.1C1042.7,943.2 1042.4,943.1 1041.2,945.1Z" style="fill:rgb(151,163,201);"/>
            <path d="M1029,1010.1C1024.3,1010.4 1022,1010.7 1023.8,1010.8C1026.9,1011 1027,1011.1 1027,1015.3C1027,1017.7 1027.3,1024.5 1027.7,1030.3C1028.2,1039.8 1028.1,1041 1026.7,1041C1025.2,1041 1025.2,1041.5 1027.1,1046.2C1030,1053.5 1037.1,1081.2 1036.5,1082.8C1035.9,1084.3 1039.4,1093.3 1040.2,1092.4C1040.6,1092.1 1040.6,1092.8 1040.3,1094.1C1039.8,1095.8 1040,1096.1 1041,1095.5C1041.8,1095 1042.1,1095.1 1041.6,1095.8C1041.2,1096.4 1041.6,1098.5 1042.4,1100.5C1043.6,1103.3 1043.7,1105.2 1042.9,1109.6C1042.3,1112.7 1042.1,1115.4 1042.3,1115.7C1042.6,1115.9 1043.3,1113 1043.9,1109.3C1046.4,1094.8 1044.1,1097 1061.3,1092.6C1077.7,1088.4 1078.7,1088.1 1077.3,1087.1C1073.9,1084.8 1061.9,1050.3 1064.1,1048.9C1064.8,1048.5 1064.8,1047 1064,1044.1C1063.4,1041.8 1062.5,1040.2 1062.1,1040.4C1061.7,1040.7 1060.4,1039.9 1059.3,1038.7C1058,1037.2 1054.5,1035.6 1048.8,1034.1L1040.3,1031.9L1039.6,1025.8C1039.3,1022.4 1039,1017.9 1039,1015.6C1039,1013.3 1038.6,1011 1038.2,1010.5C1037.8,1009.9 1034.2,1009.7 1029,1010.1Z" style="fill:rgb(151,163,201);"/>
            <path d="M1066.5,1099.7C1059.4,1101.5 1052.7,1102.8 1051.8,1102.6C1050.2,1102.2 1050,1103.2 1050,1112.5C1050,1118.2 1050.4,1123 1050.8,1123.2C1051.3,1123.3 1054.3,1129.3 1057.5,1136.5C1072,1169 1081.7,1188.3 1110.5,1241.5C1127.4,1272.9 1141.6,1298.8 1141.9,1299.3C1142.3,1299.7 1151.7,1299.9 1162.8,1299.8L1183,1299.5L1167.1,1269.6C1158.3,1253.2 1150.7,1237.9 1150.1,1235.6C1149.6,1233.3 1147.9,1230 1146.5,1228.1C1144.4,1225.2 1144,1223.5 1144,1218.1C1144,1210.1 1143.2,1208.6 1138.8,1208.7C1136.3,1208.8 1134.9,1208.1 1132.9,1205.6C1131.5,1203.9 1122.8,1188.1 1113.6,1170.6L1096.9,1138.7L1099.2,1136.1C1100.5,1134.7 1099.1,1135.7 1096.1,1138.4C1091,1143.1 1090.6,1143.2 1089.4,1141.5C1088.6,1140.5 1088,1139.4 1088,1139C1088,1138.7 1091.6,1135.4 1096,1131.6C1104,1124.8 1107.3,1121.1 1100.3,1126.9C1096.7,1129.9 1093,1131 1093,1129.1C1093,1128.7 1094,1127 1095.1,1125.4C1096.3,1123.8 1094.7,1125.3 1091.6,1128.8C1088.4,1132.2 1085.4,1134.7 1084.8,1134.4C1083.7,1133.7 1085.4,1137.3 1088.1,1141.1C1089.9,1143.6 1089.9,1143.8 1088.2,1145.3C1086.6,1146.8 1086,1146.5 1080.7,1141.9L1075,1136.8L1082.3,1128.9L1089.6,1120.9L1086.3,1114.2C1084.5,1110.5 1082.7,1105.9 1082.4,1104C1082,1102.1 1081.2,1099.6 1080.6,1098.4L1079.5,1096.3L1066.5,1099.7Z" style="fill:rgb(151,163,201);"/>
            <path d="M423.3,1271.7C423.7,1278.8 424,1286.4 424,1288.7C424,1291.8 424.4,1293 425.5,1293C426.3,1293 429,1294.5 431.6,1296.3L436.2,1299.5L453.5,1299.5C463,1299.5 471.1,1299.2 471.5,1298.8C473.3,1297 463.4,1285.8 451.5,1276C443.8,1269.8 426.6,1259 424.2,1259C422.9,1259 422.8,1260.8 423.3,1271.7Z" style="fill:rgb(151,163,201);"/>
        </g>
    </g>
</svg>