<?xml version="1.0" encoding="UTF-8"?>
<svg width="207.15pt" height="151.74pt" version="1.1" viewBox="0 0 207.15 151.74" xmlns="http://www.w3.org/2000/svg" xmlns:cc="http://creativecommons.org/ns#" xmlns:dc="http://purl.org/dc/elements/1.1/" xmlns:rdf="http://www.w3.org/1999/02/22-rdf-syntax-ns#">
 <metadata>
  <rdf:RDF>
   <cc:Work rdf:about="">
    <dc:format>image/svg+xml</dc:format>
    <dc:type rdf:resource="http://purl.org/dc/dcmitype/StillImage"/>
    <dc:title/>
   </cc:Work>
  </rdf:RDF>
 </metadata>
 <defs>
  <style type="text/css">*{stroke-linecap:butt;stroke-linejoin:round;}</style>
 </defs>
 <g transform="translate(-1.0547 -.017118)" fill="none" stroke="#00f" stroke-linecap="square" stroke-width="2.8346">
  <path d="m3.4896 149.82 0.56521 0.4221 0.56521-1.4344 0.56521-0.88376 0.56521-3.2526 0.56521-1.3319 0.56521-1.7606 1.1304-4.7018 0.56521-2.8206 1.1304-8.2124 1.1304-14.399 1.6956-33.038 0.56521-11.088 1.6956-22.724 0.5652-10.158 0.56521-7.0787 0.56521-12.885 1.1304-8.4809 0.56521-0.8645 0.5652-0.15128 0.56521-1.0133 0.5652 1.0947 0.56521-1.3871 0.56521 1.6303 0.5652-1.4949 0.56521 0.35142 0.56521-0.34741 0.5652 0.10204 0.56521 0.61551 0.56521-0.92991 0.5652-0.05859 0.56521 0.98555 0.5652-0.7813 0.56521-0.03858 0.56521 0.3436 0.5652-0.09956 0.56521-0.36233 0.56521 0.39199 0.5652-0.40574 0.56521 0.1883 1.1304 0.05159 0.56521-0.29479 0.5652-0.50183 0.56521 0.82473 0.56521-0.46025 1.1304 0.68289 0.56521-0.85296 0.5652 0.35467 0.56521-0.255 0.5652 0.33881 0.56521 0.06382 0.56521-0.44949 0.5652-0.05677 0.56521 0.40051 0.56521-0.71132 0.5652 0.46396 0.56521 0.08926 0.56521-1.2585 1.1304 1.2751 0.56521-0.53357 0.5652-0.74498 0.56521 1.0902 0.5652-0.0023 0.56521-0.78444 0.56521 1.245 0.5652-1.7485 0.56521 1.0557 0.56521-0.22528 0.5652 0.28974 0.56521-0.51505 0.56521 0.33231 0.5652-0.28191 0.56521 0.2582 0.5652-0.14815 0.56521 0.26007 0.56521-0.82338 0.5652 1.1032 1.1304-1.1706 0.5652 0.61156 0.56521 0.02222 0.56521 0.5368 0.5652-1.1032 0.56521 0.82338 0.5652-0.26007 0.56521 0.14815 0.56521-0.2582 0.5652 0.28191 0.56521-0.33231 0.56521 0.51505 0.5652-0.28974 0.56521 0.22528 0.56521-1.0557 0.5652 1.7485 0.56521-1.245 0.5652 0.78444 0.56521 0.0023 0.56521-1.0902 0.5652 0.74498 0.56521 0.53357 1.1304-1.2751 0.56521 1.2585 0.56521-0.08926 0.5652-0.46396 0.56521 0.71132 0.56521-0.40051 0.5652 0.05677 0.56521 0.44949 0.5652-0.06382 0.56521-0.33881 0.56521 0.255 0.5652-0.35467 0.56521 0.85296 1.1304-0.68289 0.56521 0.46025 0.56521-0.82473 0.5652 0.50183 0.56521 0.29479 1.1304-0.05159 0.56521-0.1883 0.5652 0.40574 0.56521-0.39199 0.56521 0.36233 0.5652 0.09956 0.56521-0.3436 0.56521 0.03858 0.5652 0.7813 0.56521-0.98555 0.5652 0.05859 0.56521 0.92991 0.56521-0.61551 0.5652-0.10204 0.56521 0.34741 0.56521-0.35142 0.5652 1.4949 0.56521-1.6303 0.56521 1.3871 0.5652-1.0947 0.56521 1.0133 0.5652 0.15128 0.56521 0.8645 1.1304 8.4809 0.56521 12.885 0.56521 7.0787 1.1304 18.506 1.1304 14.376 2.2608 44.125 1.1304 14.399 1.1304 8.2124 1.1304 5.1799 0.5652 2.3425 0.56521 1.7606 0.56521 1.3319 0.5652 3.2526 0.56521 0.88376 0.5652 1.4344 0.56521-0.4221h0.56521l0.5652 0.4221 0.56521-1.4344 0.56521-0.88376 0.5652-3.2526 0.56521-1.3319 0.56521-1.7606 1.1304-4.7018 0.5652-2.8206 1.1304-8.2124 1.1304-14.399 1.6956-33.038 0.56521-11.088 1.6956-22.724 0.56521-10.158 0.56521-7.0787 0.5652-12.885 1.1304-8.4809 0.5652-0.8645 0.56521-0.15128 0.56521-1.0133 0.5652 1.0947 0.56521-1.3871 0.5652 1.6303 0.56521-1.4949 0.56521 0.35142 0.5652-0.34741 0.56521 0.10204 0.56521 0.61551 0.5652-0.92991 0.56521-0.05859 0.56521 0.98555 0.5652-0.7813 0.56521-0.03858 0.56521 0.3436 0.5652-0.09956 0.56521-0.36233 0.5652 0.39199 0.56521-0.40574 0.56521 0.1883 1.1304 0.05159 0.56521-0.29479 0.5652-0.50183 0.56521 0.82473 0.56521-0.46025 1.1304 0.68289 0.5652-0.85296 0.56521 0.35467 0.56521-0.255 0.5652 0.33881 0.56521 0.06382 0.56521-0.44949 0.5652-0.05677 0.56521 0.40051 0.56521-0.71132 0.5652 0.46396 0.56521 0.08926 0.5652-1.2585 1.1304 1.2751 0.5652-0.53357 0.56521-0.74498 0.56521 1.0902 0.5652-0.0023 0.56521-0.78444 0.56521 1.245 0.5652-1.7485 0.56521 1.0557 0.5652-0.22528 0.56521 0.28974 0.56521-0.51505 0.5652 0.33231 0.56521-0.28191 0.56521 0.2582 0.5652-0.14815 0.56521 0.26007 0.56521-0.82338 0.5652 1.1032 1.1304-1.1706"/>
  <path d="m2.9244 149.82h0.56521"/>
  <path d="m155.47 2.121 1.1304 1.1706 0.56521-1.1032 0.5652 0.82338 0.56521-0.26007 0.56521 0.14815 0.5652-0.2582 0.56521 0.28191 0.5652-0.33231 0.56521 0.51505 0.56521-0.28974 0.5652 0.22528 0.56521-1.0557 0.56521 1.7485 0.5652-1.245 0.56521 0.78444 0.56521 0.0023 0.5652-1.0902 0.56521 0.74498 0.5652 0.53357 1.1304-1.2751 0.5652 1.2585 0.56521-0.08926 0.56521-0.46396 0.5652 0.71132 0.56521-0.40051 0.56521 0.05677 0.5652 0.44949 0.56521-0.06382 0.5652-0.33881 0.56521 0.255 0.56521-0.35467 0.5652 0.85296 1.1304-0.68289 0.5652 0.46025 0.56521-0.82473 0.56521 0.50183 0.5652 0.29479 1.1304-0.05159 0.5652-0.1883 0.56521 0.40574 0.5652-0.39199 0.56521 0.36233 0.56521 0.09956 0.5652-0.3436 0.56521 0.03858 0.56521 0.7813 0.5652-0.98555 0.56521 0.05859 0.56521 0.92991 0.5652-0.61551 0.56521-0.10204 0.5652 0.34741 0.56521-0.35142 0.56521 1.4949 0.5652-1.6303 0.56521 1.3871 0.56521-1.0947 0.5652 1.0133 0.56521 0.15128 0.56521 0.8645 1.1304 8.4809 0.5652 12.885 0.56521 7.0787 1.1304 18.506 1.1304 14.376 2.2608 44.125 1.1304 14.399 1.1304 8.2124 1.1304 5.1799 0.56521 2.3426 0.5652 1.7606 0.56521 1.3319 0.56521 3.2526 0.5652 0.88376 0.56521 1.4344 0.5652-0.4221"/>
 </g>
</svg>
