<?xml version="1.0" encoding="UTF-8" standalone="no"?>
<svg
   xmlns:dc="http://purl.org/dc/elements/1.1/"
   xmlns:cc="http://creativecommons.org/ns#"
   xmlns:rdf="http://www.w3.org/1999/02/22-rdf-syntax-ns#"
   xmlns:svg="http://www.w3.org/2000/svg"
   xmlns="http://www.w3.org/2000/svg"
   xmlns:xlink="http://www.w3.org/1999/xlink"
   xmlns:sodipodi="http://sodipodi.sourceforge.net/DTD/sodipodi-0.dtd"
   xmlns:inkscape="http://www.inkscape.org/namespaces/inkscape"
   height="297.26825pt"
   version="1.1"
   viewBox="0 0 402.48094 297.26824"
   width="402.48093pt"
   id="svg401"
   sodipodi:docname="fluxogerador.svg"
   inkscape:version="1.0.1 (3bc2e813f5, 2020-09-07)">
  <sodipodi:namedview
     pagecolor="#ffffff"
     bordercolor="#666666"
     borderopacity="1"
     objecttolerance="10"
     gridtolerance="10"
     guidetolerance="10"
     inkscape:pageopacity="0"
     inkscape:pageshadow="2"
     inkscape:window-width="1366"
     inkscape:window-height="722"
     id="namedview403"
     showgrid="false"
     showguides="true"
     inkscape:guide-bbox="true"
     inkscape:zoom="0.72250486"
     inkscape:cx="296.02603"
     inkscape:cy="198.17883"
     inkscape:window-x="-8"
     inkscape:window-y="15"
     inkscape:window-maximized="1"
     inkscape:current-layer="svg401" />
  <metadata
     id="metadata2">
    <rdf:RDF>
      <cc:Work>
        <dc:type
           rdf:resource="http://purl.org/dc/dcmitype/StillImage" />
        <dc:date>2021-06-30T11:58:43.742680</dc:date>
        <dc:format>image/svg+xml</dc:format>
        <dc:creator>
          <cc:Agent>
            <dc:title>Matplotlib v3.3.2, https://matplotlib.org/</dc:title>
          </cc:Agent>
        </dc:creator>
      </cc:Work>
    </rdf:RDF>
  </metadata>
  <defs
     id="defs6">
    <style
       type="text/css"
       id="style4">*{stroke-linecap:butt;stroke-linejoin:round;}</style>
    <clipPath
       clipPathUnits="userSpaceOnUse"
       id="clipPath1744">
      <rect
         style="fill:#d40000;stroke:#d40000;stroke-width:0.75;stroke-linejoin:round;stroke-dasharray:0.75, 0.75"
         id="rect1746"
         width="324.65457"
         height="250.17133"
         x="73.832733"
         y="50.864708" />
    </clipPath>
    <clipPath
       clipPathUnits="userSpaceOnUse"
       id="clipPath1748">
      <rect
         style="fill:#d40000;stroke:#d40000;stroke-width:0.75;stroke-linejoin:round;stroke-dasharray:0.75, 0.75"
         id="rect1750"
         width="324.65457"
         height="250.17133"
         x="73.832733"
         y="50.864708" />
    </clipPath>
  </defs>
  <g
     id="patch_2"
     transform="translate(-12.639063,-41.072)">
    <path
       d="M 57.6,307.584 H 414.72 V 41.472 H 57.6 Z"
       style="fill:#ffffff"
       id="path11" />
  </g>
  <g
     id="matplotlib.axis_1"
     transform="translate(-12.639063,-41.072)">
    <g
       id="xtick_1">
      <g
         id="line2d_1">
        <defs
           id="defs15">
          <path
             d="M 0,0 V 3.5"
             id="md728eec0c5"
             style="stroke:#000000;stroke-width:0.8" />
        </defs>
        <g
           id="g19">
          <use
             style="stroke:#000000;stroke-width:0.8"
             x="73.832726"
             xlink:href="#md728eec0c5"
             y="307.58401"
             id="use17"
             width="100%"
             height="100%" />
        </g>
      </g>
      <g
         id="text_1">
        <!-- 0 -->
        <g
           transform="matrix(0.1,0,0,-0.1,70.651477,322.18244)"
           id="g27">
          <defs
             id="defs23">
            <path
               d="m 31.78125,66.40625 q -7.609375,0 -11.453125,-7.5 Q 16.5,51.421875 16.5,36.375 q 0,-14.984375 3.828125,-22.484375 3.84375,-7.5 11.453125,-7.5 7.671875,0 11.5,7.5 3.84375,7.5 3.84375,22.484375 0,15.046875 -3.84375,22.53125 -3.828125,7.5 -11.5,7.5 z m 0,7.8125 q 12.265625,0 18.734375,-9.703125 6.46875,-9.6875 6.46875,-28.140625 0,-18.40625 -6.46875,-28.109375 -6.46875,-9.6875 -18.734375,-9.6875 -12.25,0 -18.71875,9.6875 Q 6.59375,17.96875 6.59375,36.375 q 0,18.453125 6.46875,28.140625 6.46875,9.703125 18.71875,9.703125 z"
               id="DejaVuSans-48" />
          </defs>
          <use
             xlink:href="#DejaVuSans-48"
             id="use25"
             x="0"
             y="0"
             width="100%"
             height="100%" />
        </g>
      </g>
    </g>
    <g
       id="xtick_2">
      <g
         id="line2d_2">
        <g
           id="g33">
          <use
             style="stroke:#000000;stroke-width:0.8"
             x="119.04924"
             xlink:href="#md728eec0c5"
             y="307.58401"
             id="use31"
             width="100%"
             height="100%" />
        </g>
      </g>
      <g
         id="text_2">
        <!-- 50 -->
        <g
           transform="matrix(0.1,0,0,-0.1,112.68674,322.18244)"
           id="g43">
          <defs
             id="defs37">
            <path
               d="m 10.796875,72.90625 h 38.71875 v -8.3125 h -29.6875 V 46.734375 q 2.140625,0.734375 4.28125,1.09375 2.15625,0.359375 4.3125,0.359375 Q 40.625,48.1875 47.75,41.5 54.890625,34.8125 54.890625,23.390625 54.890625,11.625 47.5625,5.09375 40.234375,-1.421875 26.90625,-1.421875 q -4.59375,0 -9.359375,0.78125 -4.75,0.78125 -9.828125,2.34375 V 11.625 q 4.390625,-2.390625 9.078125,-3.5625 4.6875,-1.171875 9.90625,-1.171875 8.453125,0 13.375,4.4375 4.9375,4.4375 4.9375,12.0625 0,7.609375 -4.9375,12.046875 -4.921875,4.453125 -13.375,4.453125 -3.953125,0 -7.890625,-0.875 -3.921875,-0.875 -8.015625,-2.734375 z"
               id="DejaVuSans-53" />
          </defs>
          <use
             xlink:href="#DejaVuSans-53"
             id="use39"
             x="0"
             y="0"
             width="100%"
             height="100%" />
          <use
             x="63.623047"
             xlink:href="#DejaVuSans-48"
             id="use41"
             y="0"
             width="100%"
             height="100%" />
        </g>
      </g>
    </g>
    <g
       id="xtick_3">
      <g
         id="line2d_3">
        <g
           id="g49">
          <use
             style="stroke:#000000;stroke-width:0.8"
             x="164.26575"
             xlink:href="#md728eec0c5"
             y="307.58401"
             id="use47"
             width="100%"
             height="100%" />
        </g>
      </g>
      <g
         id="text_3">
        <!-- 100 -->
        <g
           transform="matrix(0.1,0,0,-0.1,154.722,322.18244)"
           id="g61">
          <defs
             id="defs53">
            <path
               d="m 12.40625,8.296875 h 16.109375 v 55.625 L 10.984375,60.40625 v 8.984375 l 17.4375,3.515625 H 38.28125 V 8.296875 H 54.390625 V 0 H 12.40625 Z"
               id="DejaVuSans-49" />
          </defs>
          <use
             xlink:href="#DejaVuSans-49"
             id="use55"
             x="0"
             y="0"
             width="100%"
             height="100%" />
          <use
             x="63.623047"
             xlink:href="#DejaVuSans-48"
             id="use57"
             y="0"
             width="100%"
             height="100%" />
          <use
             x="127.24609"
             xlink:href="#DejaVuSans-48"
             id="use59"
             y="0"
             width="100%"
             height="100%" />
        </g>
      </g>
    </g>
    <g
       id="xtick_4">
      <g
         id="line2d_4">
        <g
           id="g67">
          <use
             style="stroke:#000000;stroke-width:0.8"
             x="209.48225"
             xlink:href="#md728eec0c5"
             y="307.58401"
             id="use65"
             width="100%"
             height="100%" />
        </g>
      </g>
      <g
         id="text_4">
        <!-- 150 -->
        <g
           transform="matrix(0.1,0,0,-0.1,199.93851,322.18244)"
           id="g76">
          <use
             xlink:href="#DejaVuSans-49"
             id="use70"
             x="0"
             y="0"
             width="100%"
             height="100%" />
          <use
             x="63.623047"
             xlink:href="#DejaVuSans-53"
             id="use72"
             y="0"
             width="100%"
             height="100%" />
          <use
             x="127.24609"
             xlink:href="#DejaVuSans-48"
             id="use74"
             y="0"
             width="100%"
             height="100%" />
        </g>
      </g>
    </g>
    <g
       id="xtick_5">
      <g
         id="line2d_5">
        <g
           id="g82">
          <use
             style="stroke:#000000;stroke-width:0.8"
             x="254.69878"
             xlink:href="#md728eec0c5"
             y="307.58401"
             id="use80"
             width="100%"
             height="100%" />
        </g>
      </g>
      <g
         id="text_5">
        <!-- 200 -->
        <g
           transform="matrix(0.1,0,0,-0.1,245.15502,322.18244)"
           id="g94">
          <defs
             id="defs86">
            <path
               d="M 19.1875,8.296875 H 53.609375 V 0 H 7.328125 v 8.296875 q 5.609375,5.8125 15.296875,15.59375 9.703125,9.796875 12.1875,12.640625 4.734375,5.3125 6.609375,9 1.890625,3.6875 1.890625,7.25 0,5.8125 -4.078125,9.46875 -4.078125,3.671875 -10.625,3.671875 -4.640625,0 -9.796875,-1.609375 -5.140625,-1.609375 -11,-4.890625 v 9.96875 Q 13.765625,71.78125 18.9375,73 q 5.1875,1.21875 9.484375,1.21875 11.328125,0 18.0625,-5.671875 6.734375,-5.65625 6.734375,-15.125 0,-4.5 -1.6875,-8.53125 Q 49.859375,40.875 45.40625,35.40625 44.1875,33.984375 37.640625,27.21875 31.109375,20.453125 19.1875,8.296875 Z"
               id="DejaVuSans-50" />
          </defs>
          <use
             xlink:href="#DejaVuSans-50"
             id="use88"
             x="0"
             y="0"
             width="100%"
             height="100%" />
          <use
             x="63.623047"
             xlink:href="#DejaVuSans-48"
             id="use90"
             y="0"
             width="100%"
             height="100%" />
          <use
             x="127.24609"
             xlink:href="#DejaVuSans-48"
             id="use92"
             y="0"
             width="100%"
             height="100%" />
        </g>
      </g>
    </g>
    <g
       id="xtick_6">
      <g
         id="line2d_6">
        <g
           id="g100">
          <use
             style="stroke:#000000;stroke-width:0.8"
             x="299.91528"
             xlink:href="#md728eec0c5"
             y="307.58401"
             id="use98"
             width="100%"
             height="100%" />
        </g>
      </g>
      <g
         id="text_6">
        <!-- 250 -->
        <g
           transform="matrix(0.1,0,0,-0.1,290.37153,322.18244)"
           id="g109">
          <use
             xlink:href="#DejaVuSans-50"
             id="use103"
             x="0"
             y="0"
             width="100%"
             height="100%" />
          <use
             x="63.623047"
             xlink:href="#DejaVuSans-53"
             id="use105"
             y="0"
             width="100%"
             height="100%" />
          <use
             x="127.24609"
             xlink:href="#DejaVuSans-48"
             id="use107"
             y="0"
             width="100%"
             height="100%" />
        </g>
      </g>
    </g>
    <g
       id="xtick_7">
      <g
         id="line2d_7">
        <g
           id="g115">
          <use
             style="stroke:#000000;stroke-width:0.8"
             x="345.13177"
             xlink:href="#md728eec0c5"
             y="307.58401"
             id="use113"
             width="100%"
             height="100%" />
        </g>
      </g>
      <g
         id="text_7">
        <!-- 300 -->
        <g
           transform="matrix(0.1,0,0,-0.1,335.58804,322.18244)"
           id="g127">
          <defs
             id="defs119">
            <path
               d="M 40.578125,39.3125 Q 47.65625,37.796875 51.625,33 q 3.984375,-4.78125 3.984375,-11.8125 0,-10.78125 -7.421875,-16.703125 -7.421875,-5.90625 -21.09375,-5.90625 -4.578125,0 -9.4375,0.90625 -4.859375,0.90625 -10.03125,2.71875 v 9.515625 q 4.09375,-2.390625 8.96875,-3.609375 4.890625,-1.21875 10.21875,-1.21875 9.265625,0 14.125,3.65625 4.859375,3.65625 4.859375,10.640625 0,6.453125 -4.515625,10.078125 -4.515625,3.640625 -12.5625,3.640625 h -8.5 v 8.109375 h 8.890625 q 7.265625,0 11.125,2.90625 3.859375,2.90625 3.859375,8.375 0,5.609375 -3.984375,8.609375 -3.96875,3.015625 -11.390625,3.015625 -4.0625,0 -8.703125,-0.890625 Q 15.375,64.15625 9.8125,62.3125 v 8.78125 q 5.625,1.5625 10.53125,2.34375 4.90625,0.78125 9.25,0.78125 11.234375,0 17.765625,-5.109375 6.546875,-5.09375 6.546875,-13.78125 0,-6.0625 -3.46875,-10.234375 -3.46875,-4.171875 -9.859375,-5.78125 z"
               id="DejaVuSans-51" />
          </defs>
          <use
             xlink:href="#DejaVuSans-51"
             id="use121"
             x="0"
             y="0"
             width="100%"
             height="100%" />
          <use
             x="63.623047"
             xlink:href="#DejaVuSans-48"
             id="use123"
             y="0"
             width="100%"
             height="100%" />
          <use
             x="127.24609"
             xlink:href="#DejaVuSans-48"
             id="use125"
             y="0"
             width="100%"
             height="100%" />
        </g>
      </g>
    </g>
    <g
       id="xtick_8">
      <g
         id="line2d_8">
        <g
           id="g133">
          <use
             style="stroke:#000000;stroke-width:0.8"
             x="390.3483"
             xlink:href="#md728eec0c5"
             y="307.58401"
             id="use131"
             width="100%"
             height="100%" />
        </g>
      </g>
      <g
         id="text_8">
        <!-- 350 -->
        <g
           transform="matrix(0.1,0,0,-0.1,380.80455,322.18244)"
           id="g142">
          <use
             xlink:href="#DejaVuSans-51"
             id="use136"
             x="0"
             y="0"
             width="100%"
             height="100%" />
          <use
             x="63.623047"
             xlink:href="#DejaVuSans-53"
             id="use138"
             y="0"
             width="100%"
             height="100%" />
          <use
             x="127.24609"
             xlink:href="#DejaVuSans-48"
             id="use140"
             y="0"
             width="100%"
             height="100%" />
        </g>
      </g>
    </g>
    <g
       id="text_9">
      <!-- ângulo do núcleo [graus] -->
      <g
         transform="matrix(0.1,0,0,-0.1,173.55453,336.26056)"
         id="g212">
        <defs
           id="defs162">
          <path
             d="m 34.28125,27.484375 q -10.890625,0 -15.09375,-2.484375 -4.203125,-2.484375 -4.203125,-8.5 0,-4.78125 3.15625,-7.59375 3.15625,-2.796875 8.5625,-2.796875 7.484375,0 12,5.296875 4.515625,5.296875 4.515625,14.078125 v 2 z m 17.921875,3.71875 V 0 H 43.21875 v 8.296875 q -3.078125,-4.96875 -7.671875,-7.34375 -4.59375,-2.375 -11.234375,-2.375 -8.390625,0 -13.359375,4.71875 Q 6,8.015625 6,15.921875 q 0,9.21875 6.171875,13.90625 6.1875,4.6875 18.4375,4.6875 H 43.21875 v 0.890625 q 0,6.203125 -4.078125,9.59375 -4.078125,3.390625 -11.453125,3.390625 -4.6875,0 -9.140625,-1.125 -4.4375,-1.125 -8.53125,-3.375 v 8.3125 q 4.921875,1.90625 9.5625,2.84375 Q 24.21875,56 28.609375,56 q 11.875,0 17.734375,-6.15625 5.859375,-6.140625 5.859375,-18.640625 z m -26.8125,48.78125 H 32.625 L 44.578125,61.625 h -6.78125 L 29,73.578125 20.21875,61.625 h -6.796875 z"
             id="DejaVuSans-226" />
          <path
             d="M 54.890625,33.015625 V 0 H 45.90625 v 32.71875 q 0,7.765625 -3.03125,11.609375 -3.03125,3.859375 -9.078125,3.859375 -7.28125,0 -11.484375,-4.640625 -4.203125,-4.625 -4.203125,-12.640625 V 0 h -9.03125 v 54.6875 h 9.03125 v -8.5 q 3.234375,4.9375 7.59375,7.375 4.375,2.4375 10.09375,2.4375 9.421875,0 14.25,-5.828125 4.84375,-5.828125 4.84375,-17.15625 z"
             id="DejaVuSans-110" />
          <path
             d="m 45.40625,27.984375 q 0,9.765625 -4.03125,15.125 -4.015625,5.375 -11.296875,5.375 -7.21875,0 -11.25,-5.375 -4.03125,-5.359375 -4.03125,-15.125 0,-9.71875 4.03125,-15.09375 4.03125,-5.375 11.25,-5.375 7.28125,0 11.296875,5.375 4.03125,5.375 4.03125,15.09375 z M 54.390625,6.78125 q 0,-13.953125 -6.203125,-20.765625 -6.1875,-6.8125 -18.984375,-6.8125 -4.734375,0 -8.9375,0.703125 -4.203125,0.703125 -8.15625,2.171875 V -9.1875 q 3.953125,-2.140625 7.8125,-3.15625 3.859375,-1.03125 7.859375,-1.03125 8.84375,0 13.234375,4.609375 4.390625,4.609375 4.390625,13.9375 V 9.625 Q 42.625,4.78125 38.28125,2.390625 33.9375,0 27.875,0 17.828125,0 11.671875,7.65625 q -6.15625,7.671875 -6.15625,20.328125 0,12.6875 6.15625,20.34375 Q 17.828125,56 27.875,56 q 6.0625,0 10.40625,-2.390625 4.34375,-2.390625 7.125,-7.21875 V 54.6875 h 8.984375 z"
             id="DejaVuSans-103" />
          <path
             d="M 8.5,21.578125 V 54.6875 h 8.984375 V 21.921875 q 0,-7.765625 3.015625,-11.65625 3.03125,-3.875 9.09375,-3.875 7.265625,0 11.484375,4.640625 4.234375,4.640625 4.234375,12.65625 v 31 h 8.984375 V 0 H 45.3125 V 8.40625 Q 42.046875,3.421875 37.71875,1 33.40625,-1.421875 27.6875,-1.421875 18.265625,-1.421875 13.375,4.4375 8.5,10.296875 8.5,21.578125 Z M 31.109375,56 Z"
             id="DejaVuSans-117" />
          <path
             d="M 9.421875,75.984375 H 18.40625 V 0 H 9.421875 Z"
             id="DejaVuSans-108" />
          <path
             d="m 30.609375,48.390625 q -7.21875,0 -11.421875,-5.640625 -4.203125,-5.640625 -4.203125,-15.453125 0,-9.8125 4.171875,-15.453125 4.1875,-5.640625 11.453125,-5.640625 7.1875,0 11.375,5.65625 4.203125,5.671875 4.203125,15.4375 0,9.71875 -4.203125,15.40625 -4.1875,5.6875 -11.375,5.6875 z m 0,7.609375 q 11.71875,0 18.40625,-7.625 6.703125,-7.609375 6.703125,-21.078125 0,-13.421875 -6.703125,-21.078125 -6.6875,-7.640625 -18.40625,-7.640625 -11.765625,0 -18.4375,7.640625 -6.65625,7.65625 -6.65625,21.078125 0,13.46875 6.65625,21.078125 Q 18.84375,56 30.609375,56 Z"
             id="DejaVuSans-111" />
          <path
             id="DejaVuSans-32"
             d="" />
          <path
             d="m 45.40625,46.390625 v 29.59375 h 8.984375 V 0 H 45.40625 v 8.203125 q -2.828125,-4.875 -7.15625,-7.25 -4.3125,-2.375 -10.375,-2.375 -9.90625,0 -16.140625,7.90625 -6.21875,7.921875 -6.21875,20.8125 0,12.890625 6.21875,20.796875 Q 17.96875,56 27.875,56 q 6.0625,0 10.375,-2.375 4.328125,-2.359375 7.15625,-7.234375 z M 14.796875,27.296875 q 0,-9.90625 4.078125,-15.546875 4.078125,-5.640625 11.203125,-5.640625 7.125,0 11.21875,5.640625 4.109375,5.640625 4.109375,15.546875 0,9.90625 -4.109375,15.546875 -4.09375,5.640625 -11.21875,5.640625 -7.125,0 -11.203125,-5.640625 -4.078125,-5.640625 -4.078125,-15.546875 z"
             id="DejaVuSans-100" />
          <path
             d="M 8.5,21.578125 V 54.6875 h 8.984375 V 21.921875 q 0,-7.765625 3.015625,-11.65625 3.03125,-3.875 9.09375,-3.875 7.265625,0 11.484375,4.640625 4.234375,4.640625 4.234375,12.65625 v 31 h 8.984375 V 0 H 45.3125 V 8.40625 Q 42.046875,3.421875 37.71875,1 33.40625,-1.421875 27.6875,-1.421875 18.265625,-1.421875 13.375,4.4375 8.5,10.296875 8.5,21.578125 Z M 31.109375,56 Z m 6.6875,23.984375 h 9.71875 L 31.59375,61.625 H 24.125 Z"
             id="DejaVuSans-250" />
          <path
             d="M 48.78125,52.59375 V 44.1875 q -3.8125,2.109375 -7.640625,3.15625 -3.828125,1.046875 -7.734375,1.046875 -8.75,0 -13.59375,-5.546875 -4.828125,-5.53125 -4.828125,-15.546875 0,-10.015625 4.828125,-15.5625 4.84375,-5.53125 13.59375,-5.53125 3.90625,0 7.734375,1.046875 3.828125,1.046875 7.640625,3.15625 v -8.3125 q -3.765625,-1.75 -7.796875,-2.625 -4.015625,-0.890625 -8.5625,-0.890625 -12.359375,0 -19.640625,7.765625 -7.265625,7.765625 -7.265625,20.953125 0,13.375 7.34375,21.03125 Q 20.21875,56 33.015625,56 q 4.140625,0 8.09375,-0.859375 3.953125,-0.84375 7.671875,-2.546875 z"
             id="DejaVuSans-99" />
          <path
             d="m 56.203125,29.59375 v -4.390625 h -41.3125 q 0.59375,-9.28125 5.59375,-14.140625 5,-4.859375 13.9375,-4.859375 5.171875,0 10.03125,1.265625 4.859375,1.265625 9.65625,3.8125 v -8.5 q -4.84375,-2.046875 -9.921875,-3.125 -5.078125,-1.078125 -10.296875,-1.078125 -13.09375,0 -20.734375,7.609375 -7.640625,7.625 -7.640625,20.625 0,13.421875 7.25,21.296875 Q 20.015625,56 32.328125,56 q 11.03125,0 17.453125,-7.109375 6.421875,-7.09375 6.421875,-19.296875 z m -8.984375,2.640625 q -0.09375,7.359375 -4.125,11.75 -4.03125,4.40625 -10.671875,4.40625 -7.515625,0 -12.03125,-4.25 -4.515625,-4.25 -5.203125,-11.96875 z"
             id="DejaVuSans-101" />
          <path
             d="M 8.59375,75.984375 H 29.296875 V 69 H 17.578125 V -6.203125 h 11.71875 V -13.1875 H 8.59375 Z"
             id="DejaVuSans-91" />
          <path
             d="m 41.109375,46.296875 q -1.515625,0.875 -3.296875,1.28125 Q 36.03125,48 33.890625,48 26.265625,48 22.1875,43.046875 18.109375,38.09375 18.109375,28.8125 V 0 h -9.03125 v 54.6875 h 9.03125 v -8.5 q 2.84375,4.984375 7.375,7.390625 Q 30.03125,56 36.53125,56 q 0.921875,0 2.046875,-0.125 1.125,-0.109375 2.484375,-0.359375 z"
             id="DejaVuSans-114" />
          <path
             d="m 34.28125,27.484375 q -10.890625,0 -15.09375,-2.484375 -4.203125,-2.484375 -4.203125,-8.5 0,-4.78125 3.15625,-7.59375 3.15625,-2.796875 8.5625,-2.796875 7.484375,0 12,5.296875 4.515625,5.296875 4.515625,14.078125 v 2 z m 17.921875,3.71875 V 0 H 43.21875 v 8.296875 q -3.078125,-4.96875 -7.671875,-7.34375 -4.59375,-2.375 -11.234375,-2.375 -8.390625,0 -13.359375,4.71875 Q 6,8.015625 6,15.921875 q 0,9.21875 6.171875,13.90625 6.1875,4.6875 18.4375,4.6875 H 43.21875 v 0.890625 q 0,6.203125 -4.078125,9.59375 -4.078125,3.390625 -11.453125,3.390625 -4.6875,0 -9.140625,-1.125 -4.4375,-1.125 -8.53125,-3.375 v 8.3125 q 4.921875,1.90625 9.5625,2.84375 Q 24.21875,56 28.609375,56 q 11.875,0 17.734375,-6.15625 5.859375,-6.140625 5.859375,-18.640625 z"
             id="DejaVuSans-97" />
          <path
             d="m 44.28125,53.078125 v -8.5 Q 40.484375,46.53125 36.375,47.5 q -4.09375,0.984375 -8.5,0.984375 -6.6875,0 -10.03125,-2.046875 Q 14.5,44.390625 14.5,40.28125 q 0,-3.125 2.390625,-4.90625 2.390625,-1.78125 9.625,-3.390625 l 3.078125,-0.6875 Q 39.15625,29.25 43.1875,25.515625 47.21875,21.78125 47.21875,15.09375 q 0,-7.625 -6.03125,-12.078125 -6.03125,-4.4375 -16.578125,-4.4375 -4.390625,0 -9.15625,0.859375 Q 10.6875,0.296875 5.421875,2 v 9.28125 q 4.984375,-2.59375 9.8125,-3.890625 4.828125,-1.28125 9.578125,-1.28125 6.34375,0 9.75,2.171875 3.421875,2.171875 3.421875,6.125 0,3.65625 -2.46875,5.609375 -2.453125,1.953125 -10.8125,3.765625 l -3.125,0.734375 q -8.34375,1.75 -12.0625,5.390625 -3.703125,3.640625 -3.703125,9.984375 0,7.71875 5.46875,11.90625 Q 16.75,56 26.8125,56 q 4.96875,0 9.359375,-0.734375 4.40625,-0.71875 8.109375,-2.1875 z"
             id="DejaVuSans-115" />
          <path
             d="M 30.421875,75.984375 V -13.1875 H 9.71875 v 6.984375 H 21.390625 V 69 H 9.71875 v 6.984375 z"
             id="DejaVuSans-93" />
        </defs>
        <use
           xlink:href="#DejaVuSans-226"
           id="use164"
           x="0"
           y="0"
           width="100%"
           height="100%" />
        <use
           x="61.279297"
           xlink:href="#DejaVuSans-110"
           id="use166"
           y="0"
           width="100%"
           height="100%" />
        <use
           x="124.6582"
           xlink:href="#DejaVuSans-103"
           id="use168"
           y="0"
           width="100%"
           height="100%" />
        <use
           x="188.13477"
           xlink:href="#DejaVuSans-117"
           id="use170"
           y="0"
           width="100%"
           height="100%" />
        <use
           x="251.51367"
           xlink:href="#DejaVuSans-108"
           id="use172"
           y="0"
           width="100%"
           height="100%" />
        <use
           x="279.29688"
           xlink:href="#DejaVuSans-111"
           id="use174"
           y="0"
           width="100%"
           height="100%" />
        <use
           x="340.47852"
           xlink:href="#DejaVuSans-32"
           id="use176"
           y="0"
           width="100%"
           height="100%" />
        <use
           x="372.26562"
           xlink:href="#DejaVuSans-100"
           id="use178"
           y="0"
           width="100%"
           height="100%" />
        <use
           x="435.74219"
           xlink:href="#DejaVuSans-111"
           id="use180"
           y="0"
           width="100%"
           height="100%" />
        <use
           x="496.92383"
           xlink:href="#DejaVuSans-32"
           id="use182"
           y="0"
           width="100%"
           height="100%" />
        <use
           x="528.71094"
           xlink:href="#DejaVuSans-110"
           id="use184"
           y="0"
           width="100%"
           height="100%" />
        <use
           x="592.08984"
           xlink:href="#DejaVuSans-250"
           id="use186"
           y="0"
           width="100%"
           height="100%" />
        <use
           x="655.46875"
           xlink:href="#DejaVuSans-99"
           id="use188"
           y="0"
           width="100%"
           height="100%" />
        <use
           x="710.44922"
           xlink:href="#DejaVuSans-108"
           id="use190"
           y="0"
           width="100%"
           height="100%" />
        <use
           x="738.23242"
           xlink:href="#DejaVuSans-101"
           id="use192"
           y="0"
           width="100%"
           height="100%" />
        <use
           x="799.75586"
           xlink:href="#DejaVuSans-111"
           id="use194"
           y="0"
           width="100%"
           height="100%" />
        <use
           x="860.9375"
           xlink:href="#DejaVuSans-32"
           id="use196"
           y="0"
           width="100%"
           height="100%" />
        <use
           x="892.72461"
           xlink:href="#DejaVuSans-91"
           id="use198"
           y="0"
           width="100%"
           height="100%" />
        <use
           x="931.73828"
           xlink:href="#DejaVuSans-103"
           id="use200"
           y="0"
           width="100%"
           height="100%" />
        <use
           x="995.21484"
           xlink:href="#DejaVuSans-114"
           id="use202"
           y="0"
           width="100%"
           height="100%" />
        <use
           x="1036.3281"
           xlink:href="#DejaVuSans-97"
           id="use204"
           y="0"
           width="100%"
           height="100%" />
        <use
           x="1097.6074"
           xlink:href="#DejaVuSans-117"
           id="use206"
           y="0"
           width="100%"
           height="100%" />
        <use
           x="1160.9863"
           xlink:href="#DejaVuSans-115"
           id="use208"
           y="0"
           width="100%"
           height="100%" />
        <use
           x="1213.0859"
           xlink:href="#DejaVuSans-93"
           id="use210"
           y="0"
           width="100%"
           height="100%" />
      </g>
    </g>
  </g>
  <g
     id="matplotlib.axis_2"
     transform="translate(-12.639063,-41.072)">
    <g
       id="ytick_1">
      <g
         id="line2d_9">
        <defs
           id="defs217">
          <path
             d="M 0,0 H -3.5"
             id="mdf342d0849"
             style="stroke:#000000;stroke-width:0.8" />
        </defs>
        <g
           id="g221">
          <use
             style="stroke:#000000;stroke-width:0.8"
             x="57.599998"
             xlink:href="#mdf342d0849"
             y="289.15585"
             id="use219"
             width="100%"
             height="100%" />
        </g>
      </g>
      <g
         id="text_10">
        <!-- −0.4 -->
        <g
           transform="matrix(0.1,0,0,-0.1,26.317187,292.95507)"
           id="g237">
          <defs
             id="defs227">
            <path
               d="M 10.59375,35.5 H 73.1875 V 27.203125 H 10.59375 Z"
               id="DejaVuSans-8722" />
            <path
               d="M 10.6875,12.40625 H 21 V 0 H 10.6875 Z"
               id="DejaVuSans-46" />
            <path
               d="M 37.796875,64.3125 12.890625,25.390625 h 24.90625 z m -2.59375,8.59375 h 12.40625 V 25.390625 h 10.40625 V 17.1875 H 47.609375 V 0 h -9.8125 V 17.1875 H 4.890625 v 9.515625 z"
               id="DejaVuSans-52" />
          </defs>
          <use
             xlink:href="#DejaVuSans-8722"
             id="use229"
             x="0"
             y="0"
             width="100%"
             height="100%" />
          <use
             x="83.789062"
             xlink:href="#DejaVuSans-48"
             id="use231"
             y="0"
             width="100%"
             height="100%" />
          <use
             x="147.41211"
             xlink:href="#DejaVuSans-46"
             id="use233"
             y="0"
             width="100%"
             height="100%" />
          <use
             x="179.19922"
             xlink:href="#DejaVuSans-52"
             id="use235"
             y="0"
             width="100%"
             height="100%" />
        </g>
      </g>
    </g>
    <g
       id="ytick_2">
      <g
         id="line2d_10">
        <g
           id="g243">
          <use
             style="stroke:#000000;stroke-width:0.8"
             x="57.599998"
             xlink:href="#mdf342d0849"
             y="231.84192"
             id="use241"
             width="100%"
             height="100%" />
        </g>
      </g>
      <g
         id="text_11">
        <!-- −0.2 -->
        <g
           transform="matrix(0.1,0,0,-0.1,26.317187,235.64114)"
           id="g254">
          <use
             xlink:href="#DejaVuSans-8722"
             id="use246"
             x="0"
             y="0"
             width="100%"
             height="100%" />
          <use
             x="83.789062"
             xlink:href="#DejaVuSans-48"
             id="use248"
             y="0"
             width="100%"
             height="100%" />
          <use
             x="147.41211"
             xlink:href="#DejaVuSans-46"
             id="use250"
             y="0"
             width="100%"
             height="100%" />
          <use
             x="179.19922"
             xlink:href="#DejaVuSans-50"
             id="use252"
             y="0"
             width="100%"
             height="100%" />
        </g>
      </g>
    </g>
    <g
       id="ytick_3">
      <g
         id="line2d_11">
        <g
           id="g260">
          <use
             style="stroke:#000000;stroke-width:0.8"
             x="57.599998"
             xlink:href="#mdf342d0849"
             y="174.528"
             id="use258"
             width="100%"
             height="100%" />
        </g>
      </g>
      <g
         id="text_12">
        <!-- 0.0 -->
        <g
           transform="matrix(0.1,0,0,-0.1,34.696875,178.32722)"
           id="g269">
          <use
             xlink:href="#DejaVuSans-48"
             id="use263"
             x="0"
             y="0"
             width="100%"
             height="100%" />
          <use
             x="63.623047"
             xlink:href="#DejaVuSans-46"
             id="use265"
             y="0"
             width="100%"
             height="100%" />
          <use
             x="95.410156"
             xlink:href="#DejaVuSans-48"
             id="use267"
             y="0"
             width="100%"
             height="100%" />
        </g>
      </g>
    </g>
    <g
       id="ytick_4">
      <g
         id="line2d_12">
        <g
           id="g275">
          <use
             style="stroke:#000000;stroke-width:0.8"
             x="57.599998"
             xlink:href="#mdf342d0849"
             y="117.21407"
             id="use273"
             width="100%"
             height="100%" />
        </g>
      </g>
      <g
         id="text_13">
        <!-- 0.2 -->
        <g
           transform="matrix(0.1,0,0,-0.1,34.696875,121.0133)"
           id="g284">
          <use
             xlink:href="#DejaVuSans-48"
             id="use278"
             x="0"
             y="0"
             width="100%"
             height="100%" />
          <use
             x="63.623047"
             xlink:href="#DejaVuSans-46"
             id="use280"
             y="0"
             width="100%"
             height="100%" />
          <use
             x="95.410156"
             xlink:href="#DejaVuSans-50"
             id="use282"
             y="0"
             width="100%"
             height="100%" />
        </g>
      </g>
    </g>
    <g
       id="ytick_5">
      <g
         id="line2d_13">
        <g
           id="g290">
          <use
             style="stroke:#000000;stroke-width:0.8"
             x="57.599998"
             xlink:href="#mdf342d0849"
             y="59.90015"
             id="use288"
             width="100%"
             height="100%" />
        </g>
      </g>
      <g
         id="text_14">
        <!-- 0.4 -->
        <g
           transform="matrix(0.1,0,0,-0.1,34.696875,63.699371)"
           id="g299">
          <use
             xlink:href="#DejaVuSans-48"
             id="use293"
             x="0"
             y="0"
             width="100%"
             height="100%" />
          <use
             x="63.623047"
             xlink:href="#DejaVuSans-46"
             id="use295"
             y="0"
             width="100%"
             height="100%" />
          <use
             x="95.410156"
             xlink:href="#DejaVuSans-52"
             id="use297"
             y="0"
             width="100%"
             height="100%" />
        </g>
      </g>
    </g>
    <g
       id="text_15">
      <!-- fluxo concatenado numa fase [Wb] -->
      <g
         transform="matrix(0,-0.1,-0.1,0,20.2375,262.15534)"
         id="g375">
        <defs
           id="defs309">
          <path
             d="M 37.109375,75.984375 V 68.5 h -8.59375 q -4.828125,0 -6.71875,-1.953125 -1.875,-1.953125 -1.875,-7.03125 V 54.6875 H 34.71875 V 47.703125 H 19.921875 V 0 h -9.03125 V 47.703125 H 2.296875 V 54.6875 h 8.59375 V 58.5 q 0,9.125 4.25,13.296875 4.25,4.1875 13.46875,4.1875 z"
             id="DejaVuSans-102" />
          <path
             d="M 54.890625,54.6875 35.109375,28.078125 55.90625,0 H 45.3125 L 29.390625,21.484375 13.484375,0 H 2.875 L 24.125,28.609375 4.6875,54.6875 h 10.59375 l 14.5,-19.484375 14.5,19.484375 z"
             id="DejaVuSans-120" />
          <path
             d="M 18.3125,70.21875 V 54.6875 h 18.5 v -6.984375 h -18.5 v -29.6875 q 0,-6.6875 1.828125,-8.59375 1.828125,-1.90625 7.453125,-1.90625 H 36.8125 V 0 H 27.59375 Q 17.1875,0 13.234375,3.875 9.28125,7.765625 9.28125,18.015625 v 29.6875 H 2.6875 V 54.6875 h 6.59375 v 15.53125 z"
             id="DejaVuSans-116" />
          <path
             d="M 52,44.1875 Q 55.375,50.25 60.0625,53.125 64.75,56 71.09375,56 q 8.546875,0 13.1875,-5.984375 4.640625,-5.96875 4.640625,-17 V 0 h -9.03125 v 32.71875 q 0,7.859375 -2.796875,11.65625 -2.78125,3.8125 -8.484375,3.8125 -6.984375,0 -11.046875,-4.640625 -4.046875,-4.625 -4.046875,-12.640625 V 0 h -9.03125 v 32.71875 q 0,7.90625 -2.78125,11.6875 -2.78125,3.78125 -8.59375,3.78125 -6.890625,0 -10.953125,-4.65625 -4.046875,-4.65625 -4.046875,-12.625 V 0 h -9.03125 v 54.6875 h 9.03125 v -8.5 q 3.078125,5.03125 7.375,7.421875 Q 29.78125,56 35.6875,56 41.65625,56 45.828125,52.96875 50,49.953125 52,44.1875 Z"
             id="DejaVuSans-109" />
          <path
             d="m 3.328125,72.90625 h 9.953125 l 15.328125,-61.625 15.28125,61.625 h 11.09375 l 15.328125,-61.625 15.28125,61.625 H 95.609375 L 77.296875,0 H 64.890625 L 49.515625,63.28125 33.984375,0 h -12.40625 z"
             id="DejaVuSans-87" />
          <path
             d="m 48.6875,27.296875 q 0,9.90625 -4.078125,15.546875 -4.078125,5.640625 -11.203125,5.640625 -7.140625,0 -11.21875,-5.640625 -4.078125,-5.640625 -4.078125,-15.546875 0,-9.90625 4.078125,-15.546875 4.078125,-5.640625 11.21875,-5.640625 7.125,0 11.203125,5.640625 4.078125,5.640625 4.078125,15.546875 z m -30.578125,19.09375 q 2.84375,4.875 7.15625,7.234375 Q 29.59375,56 35.59375,56 q 9.96875,0 16.1875,-7.90625 6.234375,-7.90625 6.234375,-20.796875 0,-12.890625 -6.234375,-20.8125 -6.21875,-7.90625 -16.1875,-7.90625 -6,0 -10.328125,2.375 -4.3125,2.375 -7.15625,7.25 V 0 h -9.03125 v 75.984375 h 9.03125 z"
             id="DejaVuSans-98" />
        </defs>
        <use
           xlink:href="#DejaVuSans-102"
           id="use311"
           x="0"
           y="0"
           width="100%"
           height="100%" />
        <use
           x="35.205078"
           xlink:href="#DejaVuSans-108"
           id="use313"
           y="0"
           width="100%"
           height="100%" />
        <use
           x="62.988281"
           xlink:href="#DejaVuSans-117"
           id="use315"
           y="0"
           width="100%"
           height="100%" />
        <use
           x="126.36719"
           xlink:href="#DejaVuSans-120"
           id="use317"
           y="0"
           width="100%"
           height="100%" />
        <use
           x="182.42188"
           xlink:href="#DejaVuSans-111"
           id="use319"
           y="0"
           width="100%"
           height="100%" />
        <use
           x="243.60352"
           xlink:href="#DejaVuSans-32"
           id="use321"
           y="0"
           width="100%"
           height="100%" />
        <use
           x="275.39062"
           xlink:href="#DejaVuSans-99"
           id="use323"
           y="0"
           width="100%"
           height="100%" />
        <use
           x="330.37109"
           xlink:href="#DejaVuSans-111"
           id="use325"
           y="0"
           width="100%"
           height="100%" />
        <use
           x="391.55273"
           xlink:href="#DejaVuSans-110"
           id="use327"
           y="0"
           width="100%"
           height="100%" />
        <use
           x="454.93164"
           xlink:href="#DejaVuSans-99"
           id="use329"
           y="0"
           width="100%"
           height="100%" />
        <use
           x="509.91211"
           xlink:href="#DejaVuSans-97"
           id="use331"
           y="0"
           width="100%"
           height="100%" />
        <use
           x="571.19141"
           xlink:href="#DejaVuSans-116"
           id="use333"
           y="0"
           width="100%"
           height="100%" />
        <use
           x="610.40039"
           xlink:href="#DejaVuSans-101"
           id="use335"
           y="0"
           width="100%"
           height="100%" />
        <use
           x="671.92383"
           xlink:href="#DejaVuSans-110"
           id="use337"
           y="0"
           width="100%"
           height="100%" />
        <use
           x="735.30273"
           xlink:href="#DejaVuSans-97"
           id="use339"
           y="0"
           width="100%"
           height="100%" />
        <use
           x="796.58203"
           xlink:href="#DejaVuSans-100"
           id="use341"
           y="0"
           width="100%"
           height="100%" />
        <use
           x="860.05859"
           xlink:href="#DejaVuSans-111"
           id="use343"
           y="0"
           width="100%"
           height="100%" />
        <use
           x="921.24023"
           xlink:href="#DejaVuSans-32"
           id="use345"
           y="0"
           width="100%"
           height="100%" />
        <use
           x="953.02734"
           xlink:href="#DejaVuSans-110"
           id="use347"
           y="0"
           width="100%"
           height="100%" />
        <use
           x="1016.4062"
           xlink:href="#DejaVuSans-117"
           id="use349"
           y="0"
           width="100%"
           height="100%" />
        <use
           x="1079.7852"
           xlink:href="#DejaVuSans-109"
           id="use351"
           y="0"
           width="100%"
           height="100%" />
        <use
           x="1177.1973"
           xlink:href="#DejaVuSans-97"
           id="use353"
           y="0"
           width="100%"
           height="100%" />
        <use
           x="1238.4766"
           xlink:href="#DejaVuSans-32"
           id="use355"
           y="0"
           width="100%"
           height="100%" />
        <use
           x="1270.2637"
           xlink:href="#DejaVuSans-102"
           id="use357"
           y="0"
           width="100%"
           height="100%" />
        <use
           x="1305.4688"
           xlink:href="#DejaVuSans-97"
           id="use359"
           y="0"
           width="100%"
           height="100%" />
        <use
           x="1366.748"
           xlink:href="#DejaVuSans-115"
           id="use361"
           y="0"
           width="100%"
           height="100%" />
        <use
           x="1418.8477"
           xlink:href="#DejaVuSans-101"
           id="use363"
           y="0"
           width="100%"
           height="100%" />
        <use
           x="1480.3711"
           xlink:href="#DejaVuSans-32"
           id="use365"
           y="0"
           width="100%"
           height="100%" />
        <use
           x="1512.1582"
           xlink:href="#DejaVuSans-91"
           id="use367"
           y="0"
           width="100%"
           height="100%" />
        <use
           x="1551.1719"
           xlink:href="#DejaVuSans-87"
           id="use369"
           y="0"
           width="100%"
           height="100%" />
        <use
           x="1650.0488"
           xlink:href="#DejaVuSans-98"
           id="use371"
           y="0"
           width="100%"
           height="100%" />
        <use
           x="1713.5254"
           xlink:href="#DejaVuSans-93"
           id="use373"
           y="0"
           width="100%"
           height="100%" />
      </g>
    </g>
  </g>
  <g
     id="line2d_14"
     transform="translate(-12.639063,-41.072)">
    <path
       clip-path="url(#pd11d413633)"
       d="m 73.832727,174.52822 h 0.90433 l 0.904331,4.22146 h 0.90433 l 0.90433,4.21631 h 0.90433 l 0.904331,4.20604 h 0.90433 l 0.90433,4.19063 h 0.90433 l 0.90433,4.17011 h 0.904331 l 0.90433,4.1445 h 0.90433 l 0.90433,4.11386 h 0.90433 l 0.904331,4.07821 h 0.90433 l 0.90433,4.03757 h 0.90433 l 0.90433,3.99204 h 0.904331 l 0.90433,3.94164 h 0.90433 l 0.90433,3.88645 h 0.904331 l 0.90433,3.82652 h 0.90433 l 0.90433,3.76196 h 0.904327 l 0.90433,3.69278 h 0.90433 l 0.90433,3.61907 h 0.90433 l 0.90433,3.54095 h 0.90434 l 0.90433,3.45856 h 0.90433 l 0.90433,3.37194 h 0.90433 l 0.90433,3.28117 h 0.90433 l 0.90433,3.18641 h 0.90433 l 0.90433,3.08777 h 0.90433 l 0.90433,2.98541 h 0.90433 l 0.90433,2.87941 h 0.90433 l 0.90433,2.76991 h 0.90433 l 0.90433,2.65701 h 0.90433 l 0.90433,2.54092 h 0.90433 l 0.90433,2.4217 h 0.90433 l 0.90433,2.29953 h 0.90433 l 0.90433,2.17455 h 0.90433 l 0.90433,2.04691 h 0.90433 l 0.90433,1.9168 h 0.90433 l 0.90433,1.78436 h 0.90433 l 0.90433,1.64972 h 0.90433 l 0.90433,1.51306 h 0.90433 l 0.90433,1.37455 h 0.90433 l 0.90433,1.23439 h 0.90433 l 0.90433,1.09273 h 0.90433 l 0.90433,0.94973 h 0.90433 l 0.90433,0.80558 h 0.90433 l 0.90433,0.66045 h 0.90433 l 0.90433,0.51453 h 0.90433 l 0.90433,0.36796 h 0.90434 l 0.90433,0.22095 4.52165,-3e-5 0.90433,-0.22098 h 0.90433 l 0.90433,-0.36798 h 0.90433 l 0.90433,-0.51453 h 0.90433 l 0.90433,-0.66047 h 0.90433 l 0.90433,-0.8056 h 0.90433 l 0.90433,-0.94975 h 0.90433 l 0.90433,-1.09274 h 0.90433 l 0.90433,-1.23442 h 0.90433 l 0.90433,-1.37458 h 0.90433 l 0.90433,-1.51307 h 0.90433 l 0.90433,-1.64972 h 0.90433 l 0.90433,-1.78435 h 0.90433 l 0.90433,-1.91682 h 0.90433 l 0.90433,-2.04695 h 0.90433 l 0.90433,-2.17457 h 0.90433 l 0.90433,-2.29954 h 0.90433 l 0.90433,-2.42172 h 0.90433 l 0.90433,-2.54091 h 0.90433 l 0.90433,-2.65702 h 0.90433 l 0.90433,-2.7699 h 0.90433 l 0.90433,-2.87941 h 0.90434 l 0.90433,-2.98541 h 0.90433 l 0.90433,-3.08781 h 0.90433 l 0.90433,-3.18645 h 0.90433 l 0.90433,-3.2812 h 0.90433 l 0.90433,-3.37193 h 0.90433 l 0.90433,-3.45857 h 0.90433 l 0.90433,-3.54099 h 0.90433 l 0.90433,-3.61909 h 0.90433 l 0.90433,-3.69278 h 0.90433 l 0.90433,-3.76194 h 0.90433 l 0.90433,-3.82653 h 0.90433 l 0.90433,-3.88647 h 0.90433 l 0.90433,-3.94166 h 0.90433 l 0.90433,-3.99205 h 0.90433 l 0.90433,-4.03758 h 0.90433 l 0.90433,-4.07818 h 0.90433 l 0.90433,-4.11383 h 0.90433 l 0.90433,-4.14448 h 0.90433 l 0.90433,-4.1701 h 0.90433 l 0.90433,-4.1906 h 0.90433 l 0.90433,-4.20603 h 0.90433 l 0.90433,-4.21634 h 0.90433 l 0.90433,-4.22147 h 0.90433 l 0.90434,-4.22146 h 0.90433 l 0.90433,-4.21631 h 0.90433 l 0.90433,-4.20604 h 0.90433 l 0.90433,-4.19063 h 0.90433 l 0.90433,-4.17011 h 0.90433 l 0.90433,-4.1445 h 0.90433 l 0.90433,-4.11386 h 0.90433 l 0.90433,-4.07821 h 0.90433 l 0.90433,-4.03757 h 0.90433 l 0.90433,-3.99204 h 0.90433 l 0.90433,-3.94164 h 0.90433 l 0.90433,-3.88645 h 0.90433 l 0.90433,-3.82652 h 0.90433 l 0.90433,-3.76196 h 0.90433 l 0.90433,-3.69278 h 0.90433 l 0.90433,-3.61907 h 0.90433 l 0.90433,-3.54095 h 0.90433 l 0.90433,-3.45856 h 0.90433 l 0.90433,-3.37194 h 0.90433 l 0.90433,-3.281171 h 0.90433 l 0.90433,-3.186407 h 0.90433 l 0.90433,-3.087773 h 0.90433 l 0.90434,-2.985407 h 0.90432 l 0.90433,-2.879417 h 0.90434 l 0.90433,-2.769906 h 0.90433 l 0.90433,-2.657014 h 0.90433 l 0.90433,-2.540913 h 0.90433 l 0.90433,-2.421707 h 0.90433 l 0.90433,-2.299527 h 0.90433 l 0.90433,-2.174545 h 0.90433 l 0.90433,-2.046909 h 0.90433 l 0.90433,-1.916805 h 0.90433 l 0.90433,-1.78436 h 0.90433 l 0.90433,-1.649717 h 0.90433 l 0.90433,-1.513058 h 0.90433 l 0.90433,-1.374554 h 0.90433 l 0.90433,-1.23439 h 0.90433 l 0.90433,-1.092728 h 0.90433 l 0.90433,-0.949731 h 0.90433 l 0.90433,-0.805576 h 0.90433 l 0.90433,-0.660452 h 0.90433 l 0.90433,-0.514528 h 0.90433 l 0.90433,-0.367965 h 0.90433 l 0.90433,-0.22095 4.52165,3e-5 0.90434,0.220977 h 0.90432 l 0.90433,0.367981 h 0.90434 l 0.90433,0.514535 h 0.90433 l 0.90433,0.660467 h 0.90433 l 0.90433,0.805599 h 0.90433 l 0.90433,0.949748 h 0.90433 l 0.90433,1.092745 h 0.90433 l 0.90433,1.234415 h 0.90433 l 0.90433,1.374581 h 0.90433 l 0.90433,1.513072 h 0.90433 l 0.90433,1.649716 h 0.90433 l 0.90433,1.78435 h 0.90433 l 0.90433,1.916827 h 0.90433 l 0.90433,2.046948 h 0.90433 l 0.90433,2.174565 h 0.90433 l 0.90433,2.299545 h 0.90433 l 0.90433,2.421714 h 0.90433 l 0.90433,2.540914 h 0.90433 l 0.90433,2.657017 h 0.90433 l 0.90433,2.769899 h 0.90433 l 0.90433,2.879414 h 0.90433 l 0.90433,2.985415 h 0.90433 l 0.90433,3.087803 h 0.90433 l 0.90433,3.186448 h 0.90433 l 0.90434,3.281205 h 0.90432 l 0.90433,3.37193 h 0.90434 l 0.90433,3.45857 h 0.90433 l 0.90433,3.54099 h 0.90433 l 0.90433,3.61909 h 0.90433 l 0.90433,3.69278 h 0.90433 l 0.90433,3.76194 h 0.90433 l 0.90433,3.82653 h 0.90433 l 0.90433,3.88646 h 0.90433 l 0.90433,3.94167 h 0.90433 l 0.90433,3.99205 h 0.90433 l 0.90433,4.03758 h 0.90433 l 0.90433,4.07818 h 0.90433 l 0.90433,4.11383 h 0.90433 l 0.90433,4.14448 h 0.90433 l 0.90433,4.17009 h 0.90433 l 0.90433,4.19061 h 0.90433 l 0.90433,4.20603 h 0.90433 l 0.90433,4.21633 h 0.90433 v 0"
       style="fill:none;stroke:#1f77b4;stroke-width:1.5;stroke-linecap:square"
       id="path379" />
  </g>
  <g
     id="patch_3"
     transform="translate(-12.639063,-41.072)">
    <path
       d="M 57.6,307.584 V 41.472"
       style="fill:none;stroke:#000000;stroke-width:0.8;stroke-linecap:square;stroke-linejoin:miter"
       id="path382" />
  </g>
  <g
     id="patch_4"
     transform="translate(-12.639063,-41.072)">
    <path
       d="M 414.72,307.584 V 41.472"
       style="fill:none;stroke:#000000;stroke-width:0.8;stroke-linecap:square;stroke-linejoin:miter"
       id="path385" />
  </g>
  <g
     id="patch_5"
     transform="translate(-12.639063,-41.072)">
    <path
       d="M 57.6,307.584 H 414.72"
       style="fill:none;stroke:#000000;stroke-width:0.8;stroke-linecap:square;stroke-linejoin:miter"
       id="path388" />
  </g>
  <g
     id="patch_6"
     transform="translate(-12.639063,-41.072)">
    <path
       d="M 57.6,41.472 H 414.72"
       style="fill:none;stroke:#000000;stroke-width:0.8;stroke-linecap:square;stroke-linejoin:miter"
       id="path391" />
  </g>
  <defs
     id="defs399">
    <clipPath
       id="pd11d413633">
      <rect
         height="266.112"
         width="357.12"
         x="57.599998"
         y="41.472"
         id="rect396" />
    </clipPath>
  </defs>
  <g
     id="g1732"
     clip-path="url(#clipPath1748)"
     transform="translate(-12.639063,-41.072)">
    <g
       id="g1705"
       transform="translate(214.3115)"
       style="stroke:#d40000">
      <path
         clip-path="url(#pd11d413633)"
         d="m 73.832727,174.52822 h 0.90433 l 0.904331,4.22146 h 0.90433 l 0.90433,4.21631 h 0.90433 l 0.904331,4.20604 h 0.90433 l 0.90433,4.19063 h 0.90433 l 0.90433,4.17011 h 0.904331 l 0.90433,4.1445 h 0.90433 l 0.90433,4.11386 h 0.90433 l 0.904331,4.07821 h 0.90433 l 0.90433,4.03757 h 0.90433 l 0.90433,3.99204 h 0.904331 l 0.90433,3.94164 h 0.90433 l 0.90433,3.88645 h 0.904331 l 0.90433,3.82652 h 0.90433 l 0.90433,3.76196 h 0.904327 l 0.90433,3.69278 h 0.90433 l 0.90433,3.61907 h 0.90433 l 0.90433,3.54095 h 0.90434 l 0.90433,3.45856 h 0.90433 l 0.90433,3.37194 h 0.90433 l 0.90433,3.28117 h 0.90433 l 0.90433,3.18641 h 0.90433 l 0.90433,3.08777 h 0.90433 l 0.90433,2.98541 h 0.90433 l 0.90433,2.87941 h 0.90433 l 0.90433,2.76991 h 0.90433 l 0.90433,2.65701 h 0.90433 l 0.90433,2.54092 h 0.90433 l 0.90433,2.4217 h 0.90433 l 0.90433,2.29953 h 0.90433 l 0.90433,2.17455 h 0.90433 l 0.90433,2.04691 h 0.90433 l 0.90433,1.9168 h 0.90433 l 0.90433,1.78436 h 0.90433 l 0.90433,1.64972 h 0.90433 l 0.90433,1.51306 h 0.90433 l 0.90433,1.37455 h 0.90433 l 0.90433,1.23439 h 0.90433 l 0.90433,1.09273 h 0.90433 l 0.90433,0.94973 h 0.90433 l 0.90433,0.80558 h 0.90433 l 0.90433,0.66045 h 0.90433 l 0.90433,0.51453 h 0.90433 l 0.90433,0.36796 h 0.90434 l 0.90433,0.22095 4.52165,-3e-5 0.90433,-0.22098 h 0.90433 l 0.90433,-0.36798 h 0.90433 l 0.90433,-0.51453 h 0.90433 l 0.90433,-0.66047 h 0.90433 l 0.90433,-0.8056 h 0.90433 l 0.90433,-0.94975 h 0.90433 l 0.90433,-1.09274 h 0.90433 l 0.90433,-1.23442 h 0.90433 l 0.90433,-1.37458 h 0.90433 l 0.90433,-1.51307 h 0.90433 l 0.90433,-1.64972 h 0.90433 l 0.90433,-1.78435 h 0.90433 l 0.90433,-1.91682 h 0.90433 l 0.90433,-2.04695 h 0.90433 l 0.90433,-2.17457 h 0.90433 l 0.90433,-2.29954 h 0.90433 l 0.90433,-2.42172 h 0.90433 l 0.90433,-2.54091 h 0.90433 l 0.90433,-2.65702 h 0.90433 l 0.90433,-2.7699 h 0.90433 l 0.90433,-2.87941 h 0.90434 l 0.90433,-2.98541 h 0.90433 l 0.90433,-3.08781 h 0.90433 l 0.90433,-3.18645 h 0.90433 l 0.90433,-3.2812 h 0.90433 l 0.90433,-3.37193 h 0.90433 l 0.90433,-3.45857 h 0.90433 l 0.90433,-3.54099 h 0.90433 l 0.90433,-3.61909 h 0.90433 l 0.90433,-3.69278 h 0.90433 l 0.90433,-3.76194 h 0.90433 l 0.90433,-3.82653 h 0.90433 l 0.90433,-3.88647 h 0.90433 l 0.90433,-3.94166 h 0.90433 l 0.90433,-3.99205 h 0.90433 l 0.90433,-4.03758 h 0.90433 l 0.90433,-4.07818 h 0.90433 l 0.90433,-4.11383 h 0.90433 l 0.90433,-4.14448 h 0.90433 l 0.90433,-4.1701 h 0.90433 l 0.90433,-4.1906 h 0.90433 l 0.90433,-4.20603 h 0.90433 l 0.90433,-4.21634 h 0.90433 l 0.90433,-4.22147 h 0.90433 l 0.90434,-4.22146 h 0.90433 l 0.90433,-4.21631 h 0.90433 l 0.90433,-4.20604 h 0.90433 l 0.90433,-4.19063 h 0.90433 l 0.90433,-4.17011 h 0.90433 l 0.90433,-4.1445 h 0.90433 l 0.90433,-4.11386 h 0.90433 l 0.90433,-4.07821 h 0.90433 l 0.90433,-4.03757 h 0.90433 l 0.90433,-3.99204 h 0.90433 l 0.90433,-3.94164 h 0.90433 l 0.90433,-3.88645 h 0.90433 l 0.90433,-3.82652 h 0.90433 l 0.90433,-3.76196 h 0.90433 l 0.90433,-3.69278 h 0.90433 l 0.90433,-3.61907 h 0.90433 l 0.90433,-3.54095 h 0.90433 l 0.90433,-3.45856 h 0.90433 l 0.90433,-3.37194 h 0.90433 l 0.90433,-3.281171 h 0.90433 l 0.90433,-3.186407 h 0.90433 l 0.90433,-3.087773 h 0.90433 l 0.90434,-2.985407 h 0.90432 l 0.90433,-2.879417 h 0.90434 l 0.90433,-2.769906 h 0.90433 l 0.90433,-2.657014 h 0.90433 l 0.90433,-2.540913 h 0.90433 l 0.90433,-2.421707 h 0.90433 l 0.90433,-2.299527 h 0.90433 l 0.90433,-2.174545 h 0.90433 l 0.90433,-2.046909 h 0.90433 l 0.90433,-1.916805 h 0.90433 l 0.90433,-1.78436 h 0.90433 l 0.90433,-1.649717 h 0.90433 l 0.90433,-1.513058 h 0.90433 l 0.90433,-1.374554 h 0.90433 l 0.90433,-1.23439 h 0.90433 l 0.90433,-1.092728 h 0.90433 l 0.90433,-0.949731 h 0.90433 l 0.90433,-0.805576 h 0.90433 l 0.90433,-0.660452 h 0.90433 l 0.90433,-0.514528 h 0.90433 l 0.90433,-0.367965 h 0.90433 l 0.90433,-0.22095 4.52165,3e-5 0.90434,0.220977 h 0.90432 l 0.90433,0.367981 h 0.90434 l 0.90433,0.514535 h 0.90433 l 0.90433,0.660467 h 0.90433 l 0.90433,0.805599 h 0.90433 l 0.90433,0.949748 h 0.90433 l 0.90433,1.092745 h 0.90433 l 0.90433,1.234415 h 0.90433 l 0.90433,1.374581 h 0.90433 l 0.90433,1.513072 h 0.90433 l 0.90433,1.649716 h 0.90433 l 0.90433,1.78435 h 0.90433 l 0.90433,1.916827 h 0.90433 l 0.90433,2.046948 h 0.90433 l 0.90433,2.174565 h 0.90433 l 0.90433,2.299545 h 0.90433 l 0.90433,2.421714 h 0.90433 l 0.90433,2.540914 h 0.90433 l 0.90433,2.657017 h 0.90433 l 0.90433,2.769899 h 0.90433 l 0.90433,2.879414 h 0.90433 l 0.90433,2.985415 h 0.90433 l 0.90433,3.087803 h 0.90433 l 0.90433,3.186448 h 0.90433 l 0.90434,3.281205 h 0.90432 l 0.90433,3.37193 h 0.90434 l 0.90433,3.45857 h 0.90433 l 0.90433,3.54099 h 0.90433 l 0.90433,3.61909 h 0.90433 l 0.90433,3.69278 h 0.90433 l 0.90433,3.76194 h 0.90433 l 0.90433,3.82653 h 0.90433 l 0.90433,3.88646 h 0.90433 l 0.90433,3.94167 h 0.90433 l 0.90433,3.99205 h 0.90433 l 0.90433,4.03758 h 0.90433 l 0.90433,4.07818 h 0.90433 l 0.90433,4.11383 h 0.90433 l 0.90433,4.14448 h 0.90433 l 0.90433,4.17009 h 0.90433 l 0.90433,4.19061 h 0.90433 l 0.90433,4.20603 h 0.90433 l 0.90433,4.21633 h 0.90433 v 0"
         style="fill:none;stroke:#d40000;stroke-width:1.5;stroke-linecap:square"
         id="path1703" />
    </g>
    <g
       id="g1709"
       transform="translate(-111.65858)"
       style="stroke:#d40000">
      <path
         clip-path="url(#pd11d413633)"
         d="m 73.832727,174.52822 h 0.90433 l 0.904331,4.22146 h 0.90433 l 0.90433,4.21631 h 0.90433 l 0.904331,4.20604 h 0.90433 l 0.90433,4.19063 h 0.90433 l 0.90433,4.17011 h 0.904331 l 0.90433,4.1445 h 0.90433 l 0.90433,4.11386 h 0.90433 l 0.904331,4.07821 h 0.90433 l 0.90433,4.03757 h 0.90433 l 0.90433,3.99204 h 0.904331 l 0.90433,3.94164 h 0.90433 l 0.90433,3.88645 h 0.904331 l 0.90433,3.82652 h 0.90433 l 0.90433,3.76196 h 0.904327 l 0.90433,3.69278 h 0.90433 l 0.90433,3.61907 h 0.90433 l 0.90433,3.54095 h 0.90434 l 0.90433,3.45856 h 0.90433 l 0.90433,3.37194 h 0.90433 l 0.90433,3.28117 h 0.90433 l 0.90433,3.18641 h 0.90433 l 0.90433,3.08777 h 0.90433 l 0.90433,2.98541 h 0.90433 l 0.90433,2.87941 h 0.90433 l 0.90433,2.76991 h 0.90433 l 0.90433,2.65701 h 0.90433 l 0.90433,2.54092 h 0.90433 l 0.90433,2.4217 h 0.90433 l 0.90433,2.29953 h 0.90433 l 0.90433,2.17455 h 0.90433 l 0.90433,2.04691 h 0.90433 l 0.90433,1.9168 h 0.90433 l 0.90433,1.78436 h 0.90433 l 0.90433,1.64972 h 0.90433 l 0.90433,1.51306 h 0.90433 l 0.90433,1.37455 h 0.90433 l 0.90433,1.23439 h 0.90433 l 0.90433,1.09273 h 0.90433 l 0.90433,0.94973 h 0.90433 l 0.90433,0.80558 h 0.90433 l 0.90433,0.66045 h 0.90433 l 0.90433,0.51453 h 0.90433 l 0.90433,0.36796 h 0.90434 l 0.90433,0.22095 4.52165,-3e-5 0.90433,-0.22098 h 0.90433 l 0.90433,-0.36798 h 0.90433 l 0.90433,-0.51453 h 0.90433 l 0.90433,-0.66047 h 0.90433 l 0.90433,-0.8056 h 0.90433 l 0.90433,-0.94975 h 0.90433 l 0.90433,-1.09274 h 0.90433 l 0.90433,-1.23442 h 0.90433 l 0.90433,-1.37458 h 0.90433 l 0.90433,-1.51307 h 0.90433 l 0.90433,-1.64972 h 0.90433 l 0.90433,-1.78435 h 0.90433 l 0.90433,-1.91682 h 0.90433 l 0.90433,-2.04695 h 0.90433 l 0.90433,-2.17457 h 0.90433 l 0.90433,-2.29954 h 0.90433 l 0.90433,-2.42172 h 0.90433 l 0.90433,-2.54091 h 0.90433 l 0.90433,-2.65702 h 0.90433 l 0.90433,-2.7699 h 0.90433 l 0.90433,-2.87941 h 0.90434 l 0.90433,-2.98541 h 0.90433 l 0.90433,-3.08781 h 0.90433 l 0.90433,-3.18645 h 0.90433 l 0.90433,-3.2812 h 0.90433 l 0.90433,-3.37193 h 0.90433 l 0.90433,-3.45857 h 0.90433 l 0.90433,-3.54099 h 0.90433 l 0.90433,-3.61909 h 0.90433 l 0.90433,-3.69278 h 0.90433 l 0.90433,-3.76194 h 0.90433 l 0.90433,-3.82653 h 0.90433 l 0.90433,-3.88647 h 0.90433 l 0.90433,-3.94166 h 0.90433 l 0.90433,-3.99205 h 0.90433 l 0.90433,-4.03758 h 0.90433 l 0.90433,-4.07818 h 0.90433 l 0.90433,-4.11383 h 0.90433 l 0.90433,-4.14448 h 0.90433 l 0.90433,-4.1701 h 0.90433 l 0.90433,-4.1906 h 0.90433 l 0.90433,-4.20603 h 0.90433 l 0.90433,-4.21634 h 0.90433 l 0.90433,-4.22147 h 0.90433 l 0.90434,-4.22146 h 0.90433 l 0.90433,-4.21631 h 0.90433 l 0.90433,-4.20604 h 0.90433 l 0.90433,-4.19063 h 0.90433 l 0.90433,-4.17011 h 0.90433 l 0.90433,-4.1445 h 0.90433 l 0.90433,-4.11386 h 0.90433 l 0.90433,-4.07821 h 0.90433 l 0.90433,-4.03757 h 0.90433 l 0.90433,-3.99204 h 0.90433 l 0.90433,-3.94164 h 0.90433 l 0.90433,-3.88645 h 0.90433 l 0.90433,-3.82652 h 0.90433 l 0.90433,-3.76196 h 0.90433 l 0.90433,-3.69278 h 0.90433 l 0.90433,-3.61907 h 0.90433 l 0.90433,-3.54095 h 0.90433 l 0.90433,-3.45856 h 0.90433 l 0.90433,-3.37194 h 0.90433 l 0.90433,-3.281171 h 0.90433 l 0.90433,-3.186407 h 0.90433 l 0.90433,-3.087773 h 0.90433 l 0.90434,-2.985407 h 0.90432 l 0.90433,-2.879417 h 0.90434 l 0.90433,-2.769906 h 0.90433 l 0.90433,-2.657014 h 0.90433 l 0.90433,-2.540913 h 0.90433 l 0.90433,-2.421707 h 0.90433 l 0.90433,-2.299527 h 0.90433 l 0.90433,-2.174545 h 0.90433 l 0.90433,-2.046909 h 0.90433 l 0.90433,-1.916805 h 0.90433 l 0.90433,-1.78436 h 0.90433 l 0.90433,-1.649717 h 0.90433 l 0.90433,-1.513058 h 0.90433 l 0.90433,-1.374554 h 0.90433 l 0.90433,-1.23439 h 0.90433 l 0.90433,-1.092728 h 0.90433 l 0.90433,-0.949731 h 0.90433 l 0.90433,-0.805576 h 0.90433 l 0.90433,-0.660452 h 0.90433 l 0.90433,-0.514528 h 0.90433 l 0.90433,-0.367965 h 0.90433 l 0.90433,-0.22095 4.52165,3e-5 0.90434,0.220977 h 0.90432 l 0.90433,0.367981 h 0.90434 l 0.90433,0.514535 h 0.90433 l 0.90433,0.660467 h 0.90433 l 0.90433,0.805599 h 0.90433 l 0.90433,0.949748 h 0.90433 l 0.90433,1.092745 h 0.90433 l 0.90433,1.234415 h 0.90433 l 0.90433,1.374581 h 0.90433 l 0.90433,1.513072 h 0.90433 l 0.90433,1.649716 h 0.90433 l 0.90433,1.78435 h 0.90433 l 0.90433,1.916827 h 0.90433 l 0.90433,2.046948 h 0.90433 l 0.90433,2.174565 h 0.90433 l 0.90433,2.299545 h 0.90433 l 0.90433,2.421714 h 0.90433 l 0.90433,2.540914 h 0.90433 l 0.90433,2.657017 h 0.90433 l 0.90433,2.769899 h 0.90433 l 0.90433,2.879414 h 0.90433 l 0.90433,2.985415 h 0.90433 l 0.90433,3.087803 h 0.90433 l 0.90433,3.186448 h 0.90433 l 0.90434,3.281205 h 0.90432 l 0.90433,3.37193 h 0.90434 l 0.90433,3.45857 h 0.90433 l 0.90433,3.54099 h 0.90433 l 0.90433,3.61909 h 0.90433 l 0.90433,3.69278 h 0.90433 l 0.90433,3.76194 h 0.90433 l 0.90433,3.82653 h 0.90433 l 0.90433,3.88646 h 0.90433 l 0.90433,3.94167 h 0.90433 l 0.90433,3.99205 h 0.90433 l 0.90433,4.03758 h 0.90433 l 0.90433,4.07818 h 0.90433 l 0.90433,4.11383 h 0.90433 l 0.90433,4.14448 h 0.90433 l 0.90433,4.17009 h 0.90433 l 0.90433,4.19061 h 0.90433 l 0.90433,4.20603 h 0.90433 l 0.90433,4.21633 h 0.90433 v 0 c 1.31554,4.22148 1.31554,4.22148 1.31554,4.22148 v 0 0"
         style="fill:none;stroke:#d40000;stroke-width:1.5;stroke-linecap:square"
         id="path1707" />
    </g>
  </g>
  <g
     id="g1722"
     clip-path="url(#clipPath1744)"
     transform="translate(-12.639063,-41.072)">
    <path
       clip-path="url(#pd11d413633)"
       d="m 73.832727,174.52822 h 0.90433 l 0.904331,4.22146 h 0.90433 l 0.90433,4.21631 h 0.90433 l 0.904331,4.20604 h 0.90433 l 0.90433,4.19063 h 0.90433 l 0.90433,4.17011 h 0.904331 l 0.90433,4.1445 h 0.90433 l 0.90433,4.11386 h 0.90433 l 0.904331,4.07821 h 0.90433 l 0.90433,4.03757 h 0.90433 l 0.90433,3.99204 h 0.904331 l 0.90433,3.94164 h 0.90433 l 0.90433,3.88645 h 0.904331 l 0.90433,3.82652 h 0.90433 l 0.90433,3.76196 h 0.904327 l 0.90433,3.69278 h 0.90433 l 0.90433,3.61907 h 0.90433 l 0.90433,3.54095 h 0.90434 l 0.90433,3.45856 h 0.90433 l 0.90433,3.37194 h 0.90433 l 0.90433,3.28117 h 0.90433 l 0.90433,3.18641 h 0.90433 l 0.90433,3.08777 h 0.90433 l 0.90433,2.98541 h 0.90433 l 0.90433,2.87941 h 0.90433 l 0.90433,2.76991 h 0.90433 l 0.90433,2.65701 h 0.90433 l 0.90433,2.54092 h 0.90433 l 0.90433,2.4217 h 0.90433 l 0.90433,2.29953 h 0.90433 l 0.90433,2.17455 h 0.90433 l 0.90433,2.04691 h 0.90433 l 0.90433,1.9168 h 0.90433 l 0.90433,1.78436 h 0.90433 l 0.90433,1.64972 h 0.90433 l 0.90433,1.51306 h 0.90433 l 0.90433,1.37455 h 0.90433 l 0.90433,1.23439 h 0.90433 l 0.90433,1.09273 h 0.90433 l 0.90433,0.94973 h 0.90433 l 0.90433,0.80558 h 0.90433 l 0.90433,0.66045 h 0.90433 l 0.90433,0.51453 h 0.90433 l 0.90433,0.36796 h 0.90434 l 0.90433,0.22095 4.52165,-3e-5 0.90433,-0.22098 h 0.90433 l 0.90433,-0.36798 h 0.90433 l 0.90433,-0.51453 h 0.90433 l 0.90433,-0.66047 h 0.90433 l 0.90433,-0.8056 h 0.90433 l 0.90433,-0.94975 h 0.90433 l 0.90433,-1.09274 h 0.90433 l 0.90433,-1.23442 h 0.90433 l 0.90433,-1.37458 h 0.90433 l 0.90433,-1.51307 h 0.90433 l 0.90433,-1.64972 h 0.90433 l 0.90433,-1.78435 h 0.90433 l 0.90433,-1.91682 h 0.90433 l 0.90433,-2.04695 h 0.90433 l 0.90433,-2.17457 h 0.90433 l 0.90433,-2.29954 h 0.90433 l 0.90433,-2.42172 h 0.90433 l 0.90433,-2.54091 h 0.90433 l 0.90433,-2.65702 h 0.90433 l 0.90433,-2.7699 h 0.90433 l 0.90433,-2.87941 h 0.90434 l 0.90433,-2.98541 h 0.90433 l 0.90433,-3.08781 h 0.90433 l 0.90433,-3.18645 h 0.90433 l 0.90433,-3.2812 h 0.90433 l 0.90433,-3.37193 h 0.90433 l 0.90433,-3.45857 h 0.90433 l 0.90433,-3.54099 h 0.90433 l 0.90433,-3.61909 h 0.90433 l 0.90433,-3.69278 h 0.90433 l 0.90433,-3.76194 h 0.90433 l 0.90433,-3.82653 h 0.90433 l 0.90433,-3.88647 h 0.90433 l 0.90433,-3.94166 h 0.90433 l 0.90433,-3.99205 h 0.90433 l 0.90433,-4.03758 h 0.90433 l 0.90433,-4.07818 h 0.90433 l 0.90433,-4.11383 h 0.90433 l 0.90433,-4.14448 h 0.90433 l 0.90433,-4.1701 h 0.90433 l 0.90433,-4.1906 h 0.90433 l 0.90433,-4.20603 h 0.90433 l 0.90433,-4.21634 h 0.90433 l 0.90433,-4.22147 h 0.90433 l 0.90434,-4.22146 h 0.90433 l 0.90433,-4.21631 h 0.90433 l 0.90433,-4.20604 h 0.90433 l 0.90433,-4.19063 h 0.90433 l 0.90433,-4.17011 h 0.90433 l 0.90433,-4.1445 h 0.90433 l 0.90433,-4.11386 h 0.90433 l 0.90433,-4.07821 h 0.90433 l 0.90433,-4.03757 h 0.90433 l 0.90433,-3.99204 h 0.90433 l 0.90433,-3.94164 h 0.90433 l 0.90433,-3.88645 h 0.90433 l 0.90433,-3.82652 h 0.90433 l 0.90433,-3.76196 h 0.90433 l 0.90433,-3.69278 h 0.90433 l 0.90433,-3.61907 h 0.90433 l 0.90433,-3.54095 h 0.90433 l 0.90433,-3.45856 h 0.90433 l 0.90433,-3.37194 h 0.90433 l 0.90433,-3.281171 h 0.90433 l 0.90433,-3.186407 h 0.90433 l 0.90433,-3.087773 h 0.90433 l 0.90434,-2.985407 h 0.90432 l 0.90433,-2.879417 h 0.90434 l 0.90433,-2.769906 h 0.90433 l 0.90433,-2.657014 h 0.90433 l 0.90433,-2.540913 h 0.90433 l 0.90433,-2.421707 h 0.90433 l 0.90433,-2.299527 h 0.90433 l 0.90433,-2.174545 h 0.90433 l 0.90433,-2.046909 h 0.90433 l 0.90433,-1.916805 h 0.90433 l 0.90433,-1.78436 h 0.90433 l 0.90433,-1.649717 h 0.90433 l 0.90433,-1.513058 h 0.90433 l 0.90433,-1.374554 h 0.90433 l 0.90433,-1.23439 h 0.90433 l 0.90433,-1.092728 h 0.90433 l 0.90433,-0.949731 h 0.90433 l 0.90433,-0.805576 h 0.90433 l 0.90433,-0.660452 h 0.90433 l 0.90433,-0.514528 h 0.90433 l 0.90433,-0.367965 h 0.90433 l 0.90433,-0.22095 4.52165,3e-5 0.90434,0.220977 h 0.90432 l 0.90433,0.367981 h 0.90434 l 0.90433,0.514535 h 0.90433 l 0.90433,0.660467 h 0.90433 l 0.90433,0.805599 h 0.90433 l 0.90433,0.949748 h 0.90433 l 0.90433,1.092745 h 0.90433 l 0.90433,1.234415 h 0.90433 l 0.90433,1.374581 h 0.90433 l 0.90433,1.513072 h 0.90433 l 0.90433,1.649716 h 0.90433 l 0.90433,1.78435 h 0.90433 l 0.90433,1.916827 h 0.90433 l 0.90433,2.046948 h 0.90433 l 0.90433,2.174565 h 0.90433 l 0.90433,2.299545 h 0.90433 l 0.90433,2.421714 h 0.90433 l 0.90433,2.540914 h 0.90433 l 0.90433,2.657017 h 0.90433 l 0.90433,2.769899 h 0.90433 l 0.90433,2.879414 h 0.90433 l 0.90433,2.985415 h 0.90433 l 0.90433,3.087803 h 0.90433 l 0.90433,3.186448 h 0.90433 l 0.90434,3.281205 h 0.90432 l 0.90433,3.37193 h 0.90434 l 0.90433,3.45857 h 0.90433 l 0.90433,3.54099 h 0.90433 l 0.90433,3.61909 h 0.90433 l 0.90433,3.69278 h 0.90433 l 0.90433,3.76194 h 0.90433 l 0.90433,3.82653 h 0.90433 l 0.90433,3.88646 h 0.90433 l 0.90433,3.94167 h 0.90433 l 0.90433,3.99205 h 0.90433 l 0.90433,4.03758 h 0.90433 l 0.90433,4.07818 h 0.90433 l 0.90433,4.11383 h 0.90433 l 0.90433,4.14448 h 0.90433 l 0.90433,4.17009 h 0.90433 l 0.90433,4.19061 h 0.90433 l 0.90433,4.20603 h 0.90433 l 0.90433,4.21633 h 0.90433 v 0"
       style="fill:none;stroke:#008000;stroke-width:1.5;stroke-linecap:square"
       id="path1699"
       transform="translate(108.65575)" />
    <path
       clip-path="url(#pd11d413633)"
       d="m 73.832727,174.52822 h 0.90433 l 0.904331,4.22146 h 0.90433 l 0.90433,4.21631 h 0.90433 l 0.904331,4.20604 h 0.90433 l 0.90433,4.19063 h 0.90433 l 0.90433,4.17011 h 0.904331 l 0.90433,4.1445 h 0.90433 l 0.90433,4.11386 h 0.90433 l 0.904331,4.07821 h 0.90433 l 0.90433,4.03757 h 0.90433 l 0.90433,3.99204 h 0.904331 l 0.90433,3.94164 h 0.90433 l 0.90433,3.88645 h 0.904331 l 0.90433,3.82652 h 0.90433 l 0.90433,3.76196 h 0.904327 l 0.90433,3.69278 h 0.90433 l 0.90433,3.61907 h 0.90433 l 0.90433,3.54095 h 0.90434 l 0.90433,3.45856 h 0.90433 l 0.90433,3.37194 h 0.90433 l 0.90433,3.28117 h 0.90433 l 0.90433,3.18641 h 0.90433 l 0.90433,3.08777 h 0.90433 l 0.90433,2.98541 h 0.90433 l 0.90433,2.87941 h 0.90433 l 0.90433,2.76991 h 0.90433 l 0.90433,2.65701 h 0.90433 l 0.90433,2.54092 h 0.90433 l 0.90433,2.4217 h 0.90433 l 0.90433,2.29953 h 0.90433 l 0.90433,2.17455 h 0.90433 l 0.90433,2.04691 h 0.90433 l 0.90433,1.9168 h 0.90433 l 0.90433,1.78436 h 0.90433 l 0.90433,1.64972 h 0.90433 l 0.90433,1.51306 h 0.90433 l 0.90433,1.37455 h 0.90433 l 0.90433,1.23439 h 0.90433 l 0.90433,1.09273 h 0.90433 l 0.90433,0.94973 h 0.90433 l 0.90433,0.80558 h 0.90433 l 0.90433,0.66045 h 0.90433 l 0.90433,0.51453 h 0.90433 l 0.90433,0.36796 h 0.90434 l 0.90433,0.22095 4.52165,-3e-5 0.90433,-0.22098 h 0.90433 l 0.90433,-0.36798 h 0.90433 l 0.90433,-0.51453 h 0.90433 l 0.90433,-0.66047 h 0.90433 l 0.90433,-0.8056 h 0.90433 l 0.90433,-0.94975 h 0.90433 l 0.90433,-1.09274 h 0.90433 l 0.90433,-1.23442 h 0.90433 l 0.90433,-1.37458 h 0.90433 l 0.90433,-1.51307 h 0.90433 l 0.90433,-1.64972 h 0.90433 l 0.90433,-1.78435 h 0.90433 l 0.90433,-1.91682 h 0.90433 l 0.90433,-2.04695 h 0.90433 l 0.90433,-2.17457 h 0.90433 l 0.90433,-2.29954 h 0.90433 l 0.90433,-2.42172 h 0.90433 l 0.90433,-2.54091 h 0.90433 l 0.90433,-2.65702 h 0.90433 l 0.90433,-2.7699 h 0.90433 l 0.90433,-2.87941 h 0.90434 l 0.90433,-2.98541 h 0.90433 l 0.90433,-3.08781 h 0.90433 l 0.90433,-3.18645 h 0.90433 l 0.90433,-3.2812 h 0.90433 l 0.90433,-3.37193 h 0.90433 l 0.90433,-3.45857 h 0.90433 l 0.90433,-3.54099 h 0.90433 l 0.90433,-3.61909 h 0.90433 l 0.90433,-3.69278 h 0.90433 l 0.90433,-3.76194 h 0.90433 l 0.90433,-3.82653 h 0.90433 l 0.90433,-3.88647 h 0.90433 l 0.90433,-3.94166 h 0.90433 l 0.90433,-3.99205 h 0.90433 l 0.90433,-4.03758 h 0.90433 l 0.90433,-4.07818 h 0.90433 l 0.90433,-4.11383 h 0.90433 l 0.90433,-4.14448 h 0.90433 l 0.90433,-4.1701 h 0.90433 l 0.90433,-4.1906 h 0.90433 l 0.90433,-4.20603 h 0.90433 l 0.90433,-4.21634 h 0.90433 l 0.90433,-4.22147 h 0.90433 l 0.90434,-4.22146 h 0.90433 l 0.90433,-4.21631 h 0.90433 l 0.90433,-4.20604 h 0.90433 l 0.90433,-4.19063 h 0.90433 l 0.90433,-4.17011 h 0.90433 l 0.90433,-4.1445 h 0.90433 l 0.90433,-4.11386 h 0.90433 l 0.90433,-4.07821 h 0.90433 l 0.90433,-4.03757 h 0.90433 l 0.90433,-3.99204 h 0.90433 l 0.90433,-3.94164 h 0.90433 l 0.90433,-3.88645 h 0.90433 l 0.90433,-3.82652 h 0.90433 l 0.90433,-3.76196 h 0.90433 l 0.90433,-3.69278 h 0.90433 l 0.90433,-3.61907 h 0.90433 l 0.90433,-3.54095 h 0.90433 l 0.90433,-3.45856 h 0.90433 l 0.90433,-3.37194 h 0.90433 l 0.90433,-3.281171 h 0.90433 l 0.90433,-3.186407 h 0.90433 l 0.90433,-3.087773 h 0.90433 l 0.90434,-2.985407 h 0.90432 l 0.90433,-2.879417 h 0.90434 l 0.90433,-2.769906 h 0.90433 l 0.90433,-2.657014 h 0.90433 l 0.90433,-2.540913 h 0.90433 l 0.90433,-2.421707 h 0.90433 l 0.90433,-2.299527 h 0.90433 l 0.90433,-2.174545 h 0.90433 l 0.90433,-2.046909 h 0.90433 l 0.90433,-1.916805 h 0.90433 l 0.90433,-1.78436 h 0.90433 l 0.90433,-1.649717 h 0.90433 l 0.90433,-1.513058 h 0.90433 l 0.90433,-1.374554 h 0.90433 l 0.90433,-1.23439 h 0.90433 l 0.90433,-1.092728 h 0.90433 l 0.90433,-0.949731 h 0.90433 l 0.90433,-0.805576 h 0.90433 l 0.90433,-0.660452 h 0.90433 l 0.90433,-0.514528 h 0.90433 l 0.90433,-0.367965 h 0.90433 l 0.90433,-0.22095 4.52165,3e-5 0.90434,0.220977 h 0.90432 l 0.90433,0.367981 h 0.90434 l 0.90433,0.514535 h 0.90433 l 0.90433,0.660467 h 0.90433 l 0.90433,0.805599 h 0.90433 l 0.90433,0.949748 h 0.90433 l 0.90433,1.092745 h 0.90433 l 0.90433,1.234415 h 0.90433 l 0.90433,1.374581 h 0.90433 l 0.90433,1.513072 h 0.90433 l 0.90433,1.649716 h 0.90433 l 0.90433,1.78435 h 0.90433 l 0.90433,1.916827 h 0.90433 l 0.90433,2.046948 h 0.90433 l 0.90433,2.174565 h 0.90433 l 0.90433,2.299545 h 0.90433 l 0.90433,2.421714 h 0.90433 l 0.90433,2.540914 h 0.90433 l 0.90433,2.657017 h 0.90433 l 0.90433,2.769899 h 0.90433 l 0.90433,2.879414 h 0.90433 l 0.90433,2.985415 h 0.90433 l 0.90433,3.087803 h 0.90433 l 0.90433,3.186448 h 0.90433 l 0.90434,3.281205 h 0.90432 l 0.90433,3.37193 h 0.90434 l 0.90433,3.45857 h 0.90433 l 0.90433,3.54099 h 0.90433 l 0.90433,3.61909 h 0.90433 l 0.90433,3.69278 h 0.90433 l 0.90433,3.76194 h 0.90433 l 0.90433,3.82653 h 0.90433 l 0.90433,3.88646 h 0.90433 l 0.90433,3.94167 h 0.90433 l 0.90433,3.99205 h 0.90433 l 0.90433,4.03758 h 0.90433 l 0.90433,4.07818 h 0.90433 l 0.90433,4.11383 h 0.90433 l 0.90433,4.14448 h 0.90433 l 0.90433,4.17009 h 0.90433 l 0.90433,4.19061 h 0.90433 l 0.90433,4.20603 h 0.90433 l 0.90433,4.21633 h 0.90433 v 0 l 1.31554,4.22148"
       style="fill:none;stroke:#008000;stroke-width:1.5;stroke-linecap:square"
       id="path1711"
       transform="translate(-217.31433)" />
  </g>
</svg>
